<svg width="45" height="46" viewBox="0 0 45 46" fill="none" xmlns="http://www.w3.org/2000/svg">
<path d="M13.4267 1.2565H31.9067C38.9467 1.2565 44.6667 6.9765 44.6667 14.0165V32.4965C44.6667 35.8807 43.3223 39.1262 40.9294 41.5192C38.5364 43.9121 35.2909 45.2565 31.9067 45.2565H13.4267C6.38669 45.2565 0.666687 39.5365 0.666687 32.4965V14.0165C0.666687 10.6323 2.01104 7.38678 4.404 4.99382C6.79697 2.60085 10.0425 1.2565 13.4267 1.2565ZM12.9867 5.6565C10.8862 5.6565 8.87169 6.49093 7.3864 7.97621C5.90111 9.4615 5.06669 11.476 5.06669 13.5765V32.9365C5.06669 37.3145 8.60869 40.8565 12.9867 40.8565H32.3467C34.4472 40.8565 36.4617 40.0221 37.947 38.5368C39.4323 37.0515 40.2667 35.037 40.2667 32.9365V13.5765C40.2667 9.1985 36.7247 5.6565 32.3467 5.6565H12.9867ZM34.2167 8.9565C34.946 8.9565 35.6455 9.24623 36.1612 9.76196C36.677 10.2777 36.9667 10.9772 36.9667 11.7065C36.9667 12.4358 36.677 13.1353 36.1612 13.651C35.6455 14.1668 34.946 14.4565 34.2167 14.4565C33.4873 14.4565 32.7879 14.1668 32.2721 13.651C31.7564 13.1353 31.4667 12.4358 31.4667 11.7065C31.4667 10.9772 31.7564 10.2777 32.2721 9.76196C32.7879 9.24623 33.4873 8.9565 34.2167 8.9565ZM22.6667 12.2565C25.5841 12.2565 28.382 13.4154 30.4449 15.4783C32.5078 17.5412 33.6667 20.3391 33.6667 23.2565C33.6667 26.1739 32.5078 28.9718 30.4449 31.0347C28.382 33.0976 25.5841 34.2565 22.6667 34.2565C19.7493 34.2565 16.9514 33.0976 14.8885 31.0347C12.8256 28.9718 11.6667 26.1739 11.6667 23.2565C11.6667 20.3391 12.8256 17.5412 14.8885 15.4783C16.9514 13.4154 19.7493 12.2565 22.6667 12.2565ZM22.6667 16.6565C20.9163 16.6565 19.2375 17.3519 17.9998 18.5896C16.762 19.8273 16.0667 21.5061 16.0667 23.2565C16.0667 25.0069 16.762 26.6857 17.9998 27.9234C19.2375 29.1611 20.9163 29.8565 22.6667 29.8565C24.4171 29.8565 26.0959 29.1611 27.3336 27.9234C28.5713 26.6857 29.2667 25.0069 29.2667 23.2565C29.2667 21.5061 28.5713 19.8273 27.3336 18.5896C26.0959 17.3519 24.4171 16.6565 22.6667 16.6565Z" fill="#ED500E"/>
</svg>
