<svg width="319" height="295" viewBox="0 0 319 295" fill="none" xmlns="http://www.w3.org/2000/svg">
<path d="M192.866 102.341C197.615 115.603 189.57 132.734 189.57 132.734C189.57 132.734 208.979 137.787 215.235 147.154C221.753 156.916 219.595 163.219 219.24 164.384C218.884 165.55 217.8 171.641 209.845 176.65C201.889 181.659 185.546 179.817 172.205 176.782C158.864 173.747 143.267 169.495 138.587 168.022C133.906 166.55 126.844 164.518 126.844 164.518L130.955 152.955C130.955 152.955 137.69 134.53 143.786 120.671C148.946 108.942 154.451 96.0238 166.065 90.4684C169.76 88.7008 175.348 87.1829 181.485 89.8396C186.913 92.1898 190.875 96.7814 192.866 102.341Z" fill="#F47139"/>
<path d="M265.724 220.591C276.903 229.052 290.601 223.65 290.601 223.65C290.601 223.65 289.259 234.972 289.289 245.331C289.329 259.007 289.289 282.091 289.289 282.091C289.289 282.091 274.065 279.027 264.837 276.874C254.828 274.539 249.399 271.979 239.224 272.091C231.597 272.176 222.724 274.091 219.933 275.152C217.87 275.936 214.724 277.091 209.516 278.793C202.52 281.078 198.511 283.077 191.224 285.054C183.02 287.281 178.383 287.678 169.857 289.21C160.882 290.822 156.648 291.644 147.549 292.247C143.005 292.548 138.609 292.014 134.064 291.726C123.786 291.074 119.378 288.752 109.765 285.054C102.912 282.419 100.581 280.769 94.357 276.874C87.0824 272.32 82.0757 268.883 76.0848 262.866C70.9284 257.687 68.4886 254.826 64.2023 249.143C61.2538 245.233 58.6612 240.307 57.6292 235.421C57.4734 234.683 56.6439 231.239 58.6181 228.984C59.941 227.473 61.5953 226.497 63.4581 227.247C65.3209 227.997 67.3152 229.482 71.2179 235.37C74.3643 240.116 77.1716 243.222 80.8458 247.119C84.9763 251.5 90.3961 256.145 92.9171 258.353C95.5474 260.656 100.986 264.754 109.019 268.469C113.095 270.353 120.483 270.54 120.483 270.54C120.483 270.54 109.953 265.412 103.947 261.372C97.4733 257.018 93.8411 254.413 88.2586 248.963C84.3218 245.119 83.0225 243.474 79.429 238.576C76.7051 234.863 73.8631 230.803 72.2913 227.016C71.224 224.444 68.591 220.326 69.0066 214.845C69.1954 212.355 70.7825 210.089 71.6496 209.857C74.2512 209.16 75.281 209.718 77.277 211.465C80.8099 214.559 83.4295 218.844 86.9049 223.215C90.4587 227.684 92.4939 230.177 96.486 234.259C101.668 239.559 104.3 241.951 110.014 246.104C114.476 249.348 116.684 250.617 122.509 253.062C126.863 254.89 135.429 255.745 135.429 255.745C135.429 255.745 125.088 251.296 118.94 247.282C113.388 243.656 110.152 240.828 105.459 236.142C99.7402 230.431 96.6487 227.765 92.074 221.102C88.9318 216.526 86.7042 213.83 84.1846 208.883C82.9639 206.487 82.6866 203.093 84.3753 201.084C86.7335 198.279 89.6345 199.931 91.0941 200.992C95.5566 204.236 99.7835 209.265 104.339 213.918C110.28 219.985 112.75 222.61 119.088 228.159C124.724 233.095 129.177 235.839 135.341 238.407C140.012 240.354 147.932 241.466 147.932 241.466L143.892 239.256C143.892 239.256 139.086 236.46 136.141 234.461C134.059 233.048 132.054 231.547 132.054 231.547C132.054 231.547 128.979 229.387 127.968 228.632C122.341 224.432 114.44 216.787 114.44 216.787C114.44 216.787 103.468 206.858 99.0824 198.693C97.0633 194.933 100.043 190.772 104.018 193.056C105.855 194.112 126.752 210.308 126.752 210.308C126.752 210.308 143.253 221.71 155.597 223.614C163.64 224.855 169.867 223.712 177.724 221.591C189.894 218.307 194.724 217.591 207.224 214.591C219.724 211.591 225.003 211.122 236.724 211.591C245.724 211.951 255.916 213.168 265.724 220.591Z" fill="#52BEF4"/>
<path d="M24.4513 71.0314C14.6442 61.0118 1.83789 44.3675 1.83789 44.3675C1.83789 44.3675 9.57324 35.6545 15.0204 30.568C25.0158 21.2343 31.1292 16.3095 42.9765 9.47825C49.7796 5.55553 61.0626 0.688477 61.0626 0.688477L72.0463 13.6395C72.0463 13.6395 77.0223 20.8891 81.9692 22.2511C84.0968 22.8368 85.3951 22.648 87.6009 22.714C94.9579 22.9339 106.251 19.9947 106.251 19.9947C106.251 19.9947 119.705 18.524 128.363 18.2686C137.479 17.9997 141.787 17.8116 150.876 18.5592C155.414 18.9325 159.683 20.1103 164.135 21.0666C174.205 23.2294 178.222 26.1772 187.182 31.2537C193.571 34.8728 195.633 36.8482 201.213 41.6203C207.736 47.1982 212.18 51.3375 217.216 58.1732C221.551 64.0568 223.542 67.247 226.942 73.5013C229.28 77.8035 231.117 83.0579 231.416 88.0434C231.461 88.796 231.773 92.3251 229.487 94.2634C227.956 95.5623 226.175 96.2833 224.444 95.2663C222.712 94.2493 220.959 92.4861 217.969 86.0869C215.558 80.9278 213.24 77.4411 210.182 73.0444C206.744 68.1016 202.069 62.7066 199.902 60.1512C197.641 57.4848 192.867 52.6282 185.471 47.7679C181.718 45.3019 174.439 44.0261 174.439 44.0261C174.439 44.0261 184.095 50.6535 189.439 55.5355C195.199 60.798 198.406 63.911 203.123 70.126C206.449 74.509 207.491 76.3278 210.321 81.7028C212.467 85.7771 214.678 90.2128 215.673 94.1909C216.349 96.8922 218.345 101.354 217.124 106.713C216.57 109.148 214.666 111.154 213.774 111.256C211.098 111.561 210.161 110.857 208.446 108.834C205.408 105.253 203.45 100.628 200.659 95.7917C197.804 90.8466 196.159 88.0803 192.814 83.4529C188.471 77.4463 186.222 74.6912 181.184 69.7401C177.25 65.873 175.254 64.2916 169.853 61.0128C165.817 58.5624 157.471 56.4515 157.471 56.4515C157.471 56.4515 167.042 62.3784 172.529 67.2569C177.485 71.6632 180.268 74.9383 184.217 80.2658C189.03 86.7586 191.694 89.8522 195.234 97.1176C197.666 102.108 199.471 105.103 201.232 110.367C202.086 112.918 201.859 116.316 199.892 118.053C197.145 120.479 194.52 118.416 193.233 117.151C189.299 113.284 185.861 107.686 182.042 102.412C177.063 95.534 175.007 92.5722 169.559 86.1481C164.713 80.4344 160.714 77.0625 154.998 73.6118C150.666 70.9969 142.997 68.7274 142.997 68.7274L146.666 71.5094C146.666 71.5094 151.006 74.9849 153.623 77.3967C155.474 79.1017 157.235 80.8828 157.235 80.8828C157.235 80.8828 159.958 83.4731 160.846 84.3689C165.791 89.3544 172.476 98.0818 172.476 98.0818C172.476 98.0818 181.861 109.523 184.993 118.246C186.435 122.262 182.872 125.938 179.279 123.092C177.618 121.776 159.342 102.672 159.342 102.672C159.342 102.672 144.706 88.9577 132.779 85.2511C125.008 82.8357 121.857 82.7517 113.772 83.6887C101.251 85.1399 92.8248 88.4352 80.257 90.5015C68.7622 92.3915 61.3797 92.8099 50.2518 89.0982C38.5833 85.2063 33.0553 79.8218 24.4513 71.0314Z" fill="#52BEF4"/>
</svg>
