np<svg width="65" height="55" viewBox="0 0 65 55" fill="none" xmlns="http://www.w3.org/2000/svg">
<g clip-path="url(#clip0_537_18639)">
<path d="M63.9816 6.63777C63.9515 6.1281 63.7334 5.6471 63.3686 5.28609C63.0038 4.92508 62.5177 4.7092 62.0027 4.67944C48.3816 3.89819 37.4448 7.99715 32.7448 15.6742C29.6395 20.7498 29.6448 26.9138 32.7027 32.794C30.9619 34.8443 29.6898 37.2428 28.9737 39.8253L24.6921 35.5727C26.75 31.3201 26.6711 26.8878 24.429 23.2055C20.9553 17.531 12.9369 14.4893 2.98162 15.0675C2.46658 15.0972 1.98052 15.3131 1.61571 15.6741C1.2509 16.0351 1.03275 16.5161 1.00268 17.0258C0.415833 26.8774 3.49215 34.8123 9.22636 38.2498C11.1185 39.3941 13.293 39.9996 15.5106 39.9998C17.6629 39.9733 19.7818 39.4687 21.7106 38.5232L28.2895 45.0336V52.4998C28.2895 53.0523 28.5113 53.5822 28.9061 53.9729C29.3009 54.3636 29.8364 54.5831 30.3948 54.5831C30.9531 54.5831 31.4886 54.3636 31.8834 53.9729C32.2782 53.5822 32.5 53.0523 32.5 52.4998V44.8201C32.4905 41.5057 33.6302 38.2884 35.729 35.7055C38.4367 37.1059 41.4398 37.8553 44.4948 37.893C47.4484 37.9024 50.3472 37.1039 52.8711 35.5857C60.629 30.9399 64.7816 20.1169 63.9816 6.63777ZM11.3974 34.6873C7.36057 32.268 5.07636 26.5414 5.13162 19.1664C12.5843 19.1039 18.3711 21.3721 20.8158 25.3669C22.0921 27.4503 22.3 29.88 21.4632 32.3826L15.0395 26.0258C14.6415 25.6516 14.1115 25.446 13.5625 25.453C13.0135 25.46 12.489 25.6789 12.1008 26.063C11.7126 26.4472 11.4914 26.9662 11.4844 27.5095C11.4774 28.0527 11.6851 28.5772 12.0632 28.9711L18.4869 35.3279C15.9579 36.156 13.5053 35.9503 11.3974 34.6873ZM50.6895 32.0258C47.1632 34.1378 43.0185 34.2992 38.8079 32.5466L52.9369 18.5623C53.315 18.1684 53.5227 17.6439 53.5157 17.1006C53.5087 16.5574 53.2875 16.0383 52.8993 15.6542C52.511 15.27 51.9865 15.0511 51.4376 15.0441C50.8886 15.0372 50.3586 15.2427 49.9606 15.6169L35.829 29.5831C34.05 25.4164 34.2106 21.3123 36.3553 17.8253C40.0237 11.8357 48.7237 8.49715 59.8632 8.75496C60.1158 19.7758 56.7474 28.3956 50.6895 32.0258Z" fill="#602105"/>
</g>
<defs>
<clipPath id="clip0_537_18639">
<rect width="64" height="55" fill="white" transform="translate(0.5)"/>
</clipPath>
</defs>
</svg>
