<svg width="36" height="35" viewBox="0 0 36 35" fill="none" xmlns="http://www.w3.org/2000/svg">
<g clip-path="url(#clip0_1069_8118)">
<path d="M35.2168 4.22406C35.2003 3.89972 35.081 3.59363 34.8815 3.3639C34.682 3.13417 34.4162 2.99679 34.1345 2.97785C26.6855 2.48069 20.7044 5.08911 18.1341 9.97453C16.4359 13.2044 16.4388 17.127 18.1111 20.8689C17.1591 22.1736 16.4634 23.7 16.0718 25.3434L13.7304 22.6372C14.8558 19.931 14.8126 17.1104 13.5864 14.7671C11.6868 11.1561 7.30169 9.22051 1.85741 9.5884C1.57575 9.60734 1.30993 9.74472 1.11043 9.97445C0.910925 10.2042 0.791624 10.5103 0.775175 10.8346C0.454246 17.1038 2.13661 22.1533 5.2725 24.3408C6.30728 25.069 7.49646 25.4543 8.70918 25.4544C9.88624 25.4376 11.045 25.1165 12.0998 24.5148L15.6977 28.6578V33.4089C15.6977 33.7606 15.819 34.0978 16.0349 34.3464C16.2508 34.595 16.5436 34.7347 16.849 34.7347C17.1543 34.7347 17.4472 34.595 17.6631 34.3464C17.879 34.0978 18.0003 33.7606 18.0003 33.4089V28.5219C17.9951 26.4127 18.6184 24.3654 19.7661 22.7217C21.2469 23.6129 22.8892 24.0898 24.5599 24.1137C26.1752 24.1197 27.7604 23.6116 29.1407 22.6455C33.3833 19.689 35.6543 12.8017 35.2168 4.22406ZM6.45979 22.0737C4.25215 20.5342 3.00297 16.89 3.03319 12.1968C7.10885 12.1571 10.2735 13.6005 11.6105 16.1426C12.3085 17.4684 12.4222 19.0145 11.9645 20.6071L8.45157 16.5619C8.2339 16.3238 7.94406 16.193 7.64384 16.1974C7.34362 16.2018 7.05678 16.3411 6.84447 16.5856C6.63217 16.8301 6.5112 17.1604 6.50736 17.5061C6.50351 17.8518 6.6171 18.1855 6.8239 18.4362L10.3368 22.4814C8.95383 23.0084 7.61255 22.8775 6.45979 22.0737ZM27.9477 20.3801C26.0192 21.7241 23.7525 21.8268 21.4499 20.7115L29.1767 11.8124C29.3835 11.5617 29.4971 11.228 29.4932 10.8822C29.4894 10.5365 29.3684 10.2062 29.1561 9.96177C28.9438 9.71729 28.657 9.578 28.3567 9.57357C28.0565 9.56914 27.7667 9.69994 27.549 9.93807L19.8208 18.8256C18.8479 16.1741 18.9357 13.5624 20.1086 11.3434C22.1148 7.53182 26.8726 5.4073 32.9645 5.57136C33.1027 12.5846 31.2606 18.0699 27.9477 20.3801Z" fill="#602105"/>
</g>
<defs>
<clipPath id="clip0_1069_8118">
<rect width="35" height="35" fill="white" transform="translate(0.5)"/>
</clipPath>
</defs>
</svg>
