<svg width="197" height="295" viewBox="0 0 197 295" fill="none" xmlns="http://www.w3.org/2000/svg">
<path d="M35.297 198.542C37.8383 213.322 35.297 234.763 35.297 234.763V295H154.65V234.763C154.65 234.763 152.851 218.25 154.65 207.925C155.919 200.64 157.489 196.626 160.128 189.876L160.323 189.378C163.472 181.321 170.142 169.522 170.142 169.522L186.288 137.229C186.288 137.229 194.163 120.981 195.67 109.737C196.701 102.051 196.428 97.5981 195.67 89.881C194.993 82.9785 192.398 72.4254 192.398 72.4254C192.398 72.4254 190.434 59.7697 188.688 50.6059C187.432 44.0122 185.491 39.9216 180.397 35.5504C176.984 32.6219 170.36 34.8954 169.487 31.4043C167.441 23.2187 168.614 18.749 164.032 11.1122C162.033 7.78093 160.759 4.78412 152.468 1.07518C146.93 -1.40205 142.431 0.890053 136.758 3.03929C130.237 5.50967 124.102 13.5126 121.702 12.6399C113.244 9.5645 111.229 6.31212 101.192 6.31212C96.2234 6.31212 92.0726 7.03703 88.1002 10.0215C83.2057 13.699 84.6519 20.2014 79.1542 22.8951C74.1805 25.3321 68.6809 22.8951 63.0078 22.8951C57.6551 22.8951 53.8436 23.5495 49.6979 26.8225C42.8365 32.2393 43.5832 38.6561 35.297 41.4417C28.9162 43.5867 24.4507 38.4066 18.9324 42.7507C8.67727 50.8237 7.79244 49.4961 6.49521 56.9335C3.22228 75.6982 -1.44224 99.2631 0.822136 109.737C4.31288 125.883 11.3425 138.244 18.0596 155.121C24.8059 172.072 32.2055 180.562 35.297 198.542Z" fill="#FAC770"/>
<path d="M162.941 31.6225C165.319 31.8174 169.051 31.6225 169.051 31.6225L171.669 33.368C171.669 33.368 169.379 34.746 167.742 35.1136C165.913 35.5242 162.941 35.1136 162.941 35.1136C162.941 35.1136 160.706 34.8855 159.232 34.6772C156.954 34.3552 155.406 34.0816 153.123 33.8044C151.48 33.6051 149.195 33.368 149.195 33.368C149.195 33.368 144.53 32.7705 141.558 32.2771C138.821 31.8227 137.321 31.3677 134.576 30.9679C132.285 30.6343 130.993 30.1386 128.685 30.3133C126.583 30.4724 124.801 30.0062 123.448 31.6225C121.971 33.3865 123.448 37.5138 123.448 37.5138C123.448 37.5138 124.831 40.0894 125.848 41.6595C126.877 43.2473 127.633 44.0141 128.685 45.587C129.578 46.9235 130.133 47.6473 130.867 49.0781C131.459 50.2332 132.398 50.5892 133.049 51.7122C133.809 53.0248 134.336 53.3667 135.287 54.5487C137.031 56.7164 137.562 57.0755 139.651 58.9126C141.355 60.4109 142.168 60.5747 144.233 61.5152C146.622 62.6033 147.928 62.3356 150.504 62.8401C152.539 63.2387 154.821 63.4126 156.832 63.9154C158.577 64.3517 156.832 68.7157 156.832 68.7157C156.832 68.7157 156.832 68.0768 155.741 68.0768C153.668 68.0768 151.87 67.6404 151.87 67.6404L146.633 66.5495C146.633 66.5495 142.165 65.7097 139.651 63.9154C137.493 62.3753 134.576 59.349 134.576 59.349C134.576 59.349 130.86 55.9447 129.396 52.585C128.339 50.1597 126.983 49.7226 125.848 47.3325C124.824 45.1758 122.357 42.314 122.357 42.314L119.739 36.2046C119.739 36.2046 118.486 32.243 119.739 30.3133C120.73 28.7859 121.868 28.6063 123.448 27.9132C124.981 27.2406 125.93 27.0081 127.594 26.8222C128.864 26.6802 129.592 26.7227 130.867 26.8222C132.949 26.9847 134.055 27.5047 136.103 27.9132C138.824 28.4556 140.357 28.7236 143.086 29.2223C145.47 29.658 146.781 30.0938 149.195 30.3133C151.741 30.5449 153.194 30.7511 155.741 30.9679C158.589 31.2103 160.093 31.3889 162.941 31.6225Z" fill="#F8BB4D"/>
<path d="M120.175 20.9311C119.277 18.7042 118.866 18.5307 117.775 15.2578C117.534 14.5347 117.745 13.8479 118.43 13.5123C119.135 13.1663 119.922 13.5384 120.393 14.1668C121.048 15.0396 121.617 15.6592 122.357 16.7853C123.344 18.2877 123.856 19.2685 124.539 20.9311C125.333 22.8632 125.848 26.1677 125.848 26.1677C125.848 26.1677 126.676 29.5825 126.939 31.8408C127.216 34.2107 127.488 35.4085 128.03 37.732C128.498 39.7374 128.674 40.7404 129.121 42.7506C129.557 44.7141 130.43 48.4235 130.43 48.4235L131.085 52.3512L132.394 60.206L133.267 65.8793L135.012 73.298L135.942 81.1685H132.232L130.43 72.8616L129.121 68.4977L128.248 64.3519L126.939 56.2787L125.63 49.5147L124.539 42.7506L123.448 36.8591L122.139 28.1315C122.139 28.1315 121.265 23.6343 120.175 20.9311Z" fill="#F8BB4D"/>
<path d="M81.9908 35.7684C81.2271 32.2061 80.9597 30.1766 80.2453 26.6042C80.0271 25.5131 80.1831 24.8587 80.8999 24.4222C81.5549 24.0233 82.6027 24.0416 83.0818 24.6404C83.9546 25.7312 83.9708 26.0309 84.1728 27.0405C84.6092 29.2223 85.482 32.2771 85.482 32.2771L86.3548 35.9864C86.3548 35.9864 87.0677 39.015 87.4457 41.0049C87.8778 43.279 88.2148 44.3858 88.5367 46.6781C88.8854 49.1613 89.6277 53.0058 89.6277 53.0058L92.246 63.4792L95.0826 73.9525L97.3211 85.3143L98.1938 94.0421C98.1938 94.0421 98.1938 98.406 99.2848 99.0606C101.152 100.181 94.6981 98.7724 95.0826 97.7514C95.5755 96.4423 95.0826 93.3719 95.0826 93.3719L93.337 84.4259L90.5005 73.9525L87.8821 64.5701C87.8821 64.5701 86.3364 58.4936 85.7002 54.5332C85.2509 51.7365 84.6408 50.3443 84.1728 47.5507L84.1199 47.2348C83.3838 42.8407 82.943 40.2096 81.9908 35.7684Z" fill="#F8BB4D"/>
<path d="M18.7237 106.73C17.4906 103.302 16.9542 101.326 15.7686 97.8815C15.4065 96.8294 15.4737 96.16 16.1256 95.6316C16.7214 95.1487 17.7622 95.0267 18.3171 95.5561C19.3279 96.5204 19.3841 96.8153 19.7192 97.7888C20.4434 99.8927 21.7168 102.803 21.7168 102.803L23.0776 106.363C23.0776 106.363 24.1891 109.269 24.8298 111.19C25.562 113.386 26.044 114.438 26.6694 116.667C27.347 119.081 28.5966 122.792 28.5966 122.792L30.4426 127.426C30.4426 127.426 29.2157 127.185 27.2803 125.026C25.3449 122.867 24.0261 120.808 22.6982 118.043C20.6853 113.852 20.2977 111.106 18.7237 106.73Z" fill="#F8BB4D"/>
<path d="M50.7889 75.9154C52.5446 82.6441 55.2307 86.0263 56.0256 92.9347C56.3925 96.1237 56.5185 104.297 56.0821 104.733C55.5942 105.221 55.6457 105.824 55.6457 105.824C55.6457 105.824 61.8117 107.57 60.6642 107.133C59.5167 106.697 60.7946 99.5842 60.3895 95.7712C60.0594 92.6637 59.5878 90.9558 58.8622 87.9162C57.9543 84.1136 56.0256 78.3156 56.0256 78.3156L53.1891 66.5331C53.1891 66.5331 51.8435 58.0778 50.1344 53.0053C49.23 50.321 48.8252 48.8596 47.2978 46.4591C46.1173 44.6038 45.1159 43.6231 43.1521 42.9683C42.2629 42.6718 41.0065 42.5528 40.3156 43.1862C39.5618 43.8771 39.6768 45.006 40.3156 45.8045C42.0612 47.9866 43.9515 49.1082 45.1159 51.6959C47.0796 56.06 46.8352 58.6235 47.9524 63.4783C49.0696 68.3332 49.5312 71.0951 50.7889 75.9154Z" fill="#F8BB4D"/>
<path d="M29.6241 127.628C25.9725 124.971 21.9873 117.591 23.0782 116.5C24.1692 115.409 28.5463 116.527 29.6241 118.682C30.9333 121.301 36.6965 119.852 40.9702 118.682C45.6224 117.409 47.4832 115.392 50.8455 111.934C53.4156 109.291 56.5186 104.297 56.3004 103.861C56.0822 103.424 60.9397 107.744 63.4444 108.645C68.8992 110.609 70.3957 112.136 76.0997 112.136C81.1182 112.136 83.3689 111.245 87.0095 108.645C88.9709 107.245 89.8424 106.143 91.3734 104.281C93.4159 101.798 94.6463 97.2992 95.7373 97.2992C96.8282 97.2992 99.0161 99.4657 101.41 99.6993C110.356 100.572 112.974 100.136 119.521 97.2992C126.066 94.4626 124.588 93.1492 127.157 89.8805C129.894 86.3992 131.085 80.9344 132.83 80.0617C134.576 79.189 140.711 79.2696 143.522 77.2252C148.322 73.7341 155.579 66.113 156.67 67.204C157.761 68.2951 154.692 74.9306 155.086 78.3162C155.629 82.9782 159.013 85.2327 158.359 89.8805C157.918 93.0163 156.852 94.6704 155.086 97.2992C151.903 102.039 148.172 102.932 143.522 106.245C138.152 110.072 134.318 111.085 129.339 115.409C125.012 119.168 122.517 121.433 119.521 126.319C116.56 131.149 115.407 134.295 114.284 139.847C112.966 146.362 114.284 150.22 114.284 156.866C114.284 161.723 114.284 169.085 112.975 169.304C111.666 169.522 111.612 165.599 110.356 162.976C106.828 155.607 111.842 149.181 107.52 142.247C106.024 139.847 99.3934 136.568 95.7373 133.52C88.4867 127.474 87.3116 123.196 78.0634 121.301C72.4705 120.155 69.0889 120.445 63.4444 121.301C54.4169 122.67 50.9736 130.278 41.843 130.247C36.9629 130.23 33.57 130.5 29.6241 127.628Z" fill="#F8BB4D"/>
<path d="M122.85 32.7314C123.068 32.0768 123.723 31.6383 124.595 30.9838C125.204 30.5272 125.591 30.511 126.559 30.3361C127.214 30.3292 127.95 30.3361 128.523 30.3361C129.396 30.3361 130.923 48.6596 130.923 48.6596L127.868 44.0775C127.868 44.0775 125.201 40.7635 123.941 38.6226C123.34 37.6025 123.263 37.172 123.068 36.0043C122.85 34.6951 122.473 33.8631 122.85 32.7314Z" fill="#FAC770"/>
<path d="M13.9437 107.012C11.6974 104.144 10.5684 102.437 8.36208 99.5374C7.68826 98.652 7.54203 97.9953 7.99533 97.2891C8.40956 96.6437 9.35963 96.2014 10.0526 96.53C11.3148 97.1286 11.4607 97.3909 12.0842 98.2102C13.4318 99.9807 15.5539 102.345 15.5539 102.345L17.9626 105.298C17.9626 105.298 19.9295 107.709 21.1406 109.332C22.5247 111.188 23.3123 112.035 24.6053 113.955C26.0059 116.035 28.3565 119.166 28.3565 119.166L35.2959 127.436L30.5533 126.596C30.5533 126.596 27.8 125.541 25.4941 122.259C23.8657 119.942 22.7077 118.957 21.0639 116.65L20.878 116.389C18.2924 112.761 16.7442 110.589 13.9437 107.012Z" fill="#F8BB4D"/>
</svg>
