<svg width="57" height="55" viewBox="0 0 57 55" fill="none" xmlns="http://www.w3.org/2000/svg">
<g clip-path="url(#clip0_537_18643)">
<path d="M30.0757 49.0686C40.9659 49.0686 49.794 40.0156 49.794 28.848C49.794 17.6805 40.9659 8.62744 30.0757 8.62744C19.1856 8.62744 10.3574 17.6805 10.3574 28.848C10.3574 40.0156 19.1856 49.0686 30.0757 49.0686Z" stroke="#602105" stroke-width="4" stroke-linecap="round" stroke-linejoin="round"/>
<path d="M24.8178 9.9751C27.1902 11.3343 29.4187 13.3452 29.2319 15.9677C29.0826 18.0633 27.3349 18.531 26.9693 20.0464C26.604 21.5619 28.7183 23.2151 25.1414 25.6609C22.7568 27.2913 15.5775 30.3907 10.3574 27.4996" stroke="#602105" stroke-width="4" stroke-linecap="round"/>
<path d="M11.016 28.1739C7.0723 30.7194 1.24637 37.6385 3.78651 42.3283C7.07215 48.3945 19.5609 43.2592 34.0206 31.544C48.4805 19.8287 54.04 2.70459 54.04 2.70459L47.1667 4.58319" stroke="#602105" stroke-width="4" stroke-linecap="round" stroke-linejoin="round"/>
<path d="M32.707 49.0687C32.707 49.0687 33.3639 42.3285 37.9645 38.2844C42.565 34.2402 48.4818 34.2402 48.4818 34.2402" stroke="#602105" stroke-width="4" stroke-linecap="round"/>
</g>
<defs>
<clipPath id="clip0_537_18643">
<rect width="56" height="55" fill="white" transform="translate(0.5)"/>
</clipPath>
</defs>
</svg>
