<svg width="320" height="323" viewBox="0 0 320 323" fill="none" xmlns="http://www.w3.org/2000/svg">
<g clip-path="url(#clip0_143_460)">
<path fill-rule="evenodd" clip-rule="evenodd" d="M132.93 31.11C132.93 48.29 119 62.22 101.82 62.22C84.64 62.22 70.71 48.29 70.71 31.11C70.71 13.93 84.63 0 101.82 0C119.01 0 132.93 13.93 132.93 31.11ZM114.02 162.75C107.83 165.03 100.87 161.86 99.41 155.43C96.09 140.84 96.35 125.6 100.23 111.03C105.15 92.59 115.64 76.12 130.27 63.87C144.9 51.62 162.96 44.19 181.98 42.59C197.01 41.33 212.06 43.76 225.83 49.59C231.91 52.16 233.8 59.57 230.47 65.26C227.14 70.96 219.83 72.76 213.64 70.46C204.21 66.96 194.09 65.55 183.97 66.4C169.86 67.58 156.46 73.1 145.61 82.18C134.75 91.27 126.97 103.49 123.32 117.17C120.7 126.98 120.31 137.19 122.09 147.09C123.26 153.59 120.2 160.46 114.01 162.74L114.02 162.75ZM181.41 148.2C175.02 146.55 169.02 151.29 168.21 157.84C167.4 164.39 172.11 170.26 178.42 172.19C188.03 175.13 196.93 180.16 204.46 186.98C214.95 196.49 222.25 209 225.36 222.81C228.47 236.62 227.24 251.06 221.83 264.14C217.95 273.52 212.07 281.88 204.64 288.66C199.76 293.11 198.02 300.43 201.56 306C205.1 311.57 212.55 313.28 217.62 309.05C229.12 299.47 238.17 287.21 243.93 273.27C251.22 255.63 252.88 236.18 248.69 217.56C244.5 198.94 234.66 182.07 220.52 169.26C209.34 159.13 195.91 151.93 181.42 148.2H181.41ZM157.83 245.23C163.34 241.59 163.85 233.97 159.53 228.97C155.21 223.98 147.7 223.54 142.04 226.92C133.41 232.08 123.71 235.31 113.61 236.32C99.52 237.73 85.34 234.75 73.01 227.8C60.68 220.84 50.8 210.25 44.71 197.47C40.35 188.3 38.09 178.33 38.05 168.28C38.02 161.68 33.76 155.48 27.25 154.37C20.74 153.26 14.48 157.64 14.22 164.24C13.62 179.19 16.65 194.13 23.13 207.75C31.33 224.98 44.65 239.26 61.27 248.64C77.89 258.01 97 262.03 115.99 260.13C131 258.63 145.35 253.49 157.83 245.24V245.23ZM31.11 322.41C48.29 322.41 62.22 308.48 62.22 291.3C62.22 274.12 48.29 260.19 31.11 260.19C13.93 260.19 0 274.12 0 291.3C0 308.48 13.93 322.41 31.11 322.41ZM288.48 224.84C305.66 224.84 319.59 210.91 319.59 193.73C319.59 176.55 305.66 162.62 288.48 162.62C271.3 162.62 257.37 176.55 257.37 193.73C257.37 210.91 271.3 224.84 288.48 224.84Z" fill="#ED500E"/>
</g>
<defs>
<clipPath id="clip0_143_460">
<rect width="319.59" height="322.41" fill="white"/>
</clipPath>
</defs>
</svg>
