<svg width="322" height="306" viewBox="0 0 322 306" fill="none" xmlns="http://www.w3.org/2000/svg">
<path d="M117.066 40.2713C141.04 43.268 161.018 68.7402 161.018 68.7402C161.018 68.7402 183.791 43.0725 202.973 40.7707C222.96 38.3722 230.933 46.5221 232.44 47.963C233.948 49.4038 242.43 55.7544 243.928 71.7369C245.426 87.7195 229.943 111.194 214.96 129.174C199.976 147.155 181.383 167.632 175.503 173.626C169.622 179.619 161.04 188.809 161.04 188.809L146.534 173.626C146.534 173.626 123.559 149.153 107.078 129.174C93.1298 112.266 77.6307 93.9128 78.1302 71.9368C78.2891 64.9444 80.2975 55.2608 89.1182 47.963C96.9213 41.5071 107.017 39.0151 117.066 40.2713Z" fill="#F47139"/>
<path d="M155.534 268.006C156.533 281.991 155.534 302.968 155.534 302.968C155.534 302.968 143.999 304.61 136.554 304.966C122.894 305.62 115.047 305.421 101.593 302.968C93.867 301.56 82.1139 297.974 82.1139 297.974V280.992C82.1139 280.992 83.0079 272.245 80.1161 268.006C78.8723 266.184 77.76 265.488 76.1204 264.011C70.6518 259.085 60.1379 254.022 60.1379 254.022C60.1379 254.022 48.9256 246.441 42.1575 241.036C35.0316 235.345 31.6241 232.702 25.176 226.253C21.9564 223.033 19.4621 219.373 16.6853 215.765C10.4048 207.602 9.24786 202.756 5.69729 193.088C3.16604 186.196 2.87061 183.355 1.70156 176.107C0.335093 167.634 -0.376946 161.603 0.20329 153.132C0.702706 145.841 1.2481 142.12 2.70044 135.152C3.69947 130.358 5.69729 125.163 8.69392 121.167C9.14625 120.564 11.1912 117.671 14.188 117.671C16.1962 117.671 18.0203 118.272 18.6831 120.168C19.3459 122.064 19.5425 124.542 17.6841 131.357C16.1858 136.851 15.6983 141.009 15.1869 146.34C14.6121 152.334 14.6875 159.472 14.6875 162.822C14.6875 166.319 15.187 173.11 17.6842 181.601C18.9512 185.909 23.6776 191.59 23.6776 191.59C23.6776 191.59 20.5994 180.29 19.6819 173.11C18.6929 165.371 18.2601 160.922 18.6831 153.132C18.9814 147.638 19.3631 145.577 20.6808 139.647C21.6797 135.152 22.8624 130.338 24.6765 126.661C25.9083 124.164 27.272 119.47 31.6688 116.172C33.6667 114.674 36.417 114.375 37.163 114.875C39.401 116.373 39.6601 117.515 39.6601 120.168C39.6601 124.864 38.1618 129.658 37.163 135.152C36.1416 140.769 35.6067 143.943 35.165 149.636C34.5917 157.025 34.5255 160.582 35.165 167.616C35.6645 173.11 36.1639 175.607 38.1618 181.601C39.6549 186.08 44.6548 193.088 44.6548 193.088C44.6548 193.088 41.1891 182.378 40.1596 175.108C39.2297 168.542 39.2262 164.245 39.6601 157.627C40.189 149.562 40.1583 145.48 42.1575 137.649C43.5306 132.27 44.0914 128.818 46.153 123.664C47.1519 121.167 49.5229 118.722 52.1465 118.67C55.8104 118.596 56.4782 121.867 56.6416 123.664C57.141 129.158 56.1421 135.651 55.6427 142.144C54.9915 150.61 54.6438 154.198 54.6438 162.622C54.6438 170.113 55.5126 175.272 57.6406 181.601C59.2531 186.397 63.6341 193.088 63.6341 193.088L62.6351 188.593C62.6351 188.593 61.5731 183.136 61.1367 179.603C60.8282 177.106 60.6372 174.609 60.6372 174.609C60.6372 174.609 60.2361 170.872 60.1379 169.614C59.5913 162.613 60.1379 151.634 60.1379 151.634C60.1379 151.634 60.3799 136.838 63.6341 128.159C65.1323 124.164 70.2266 123.664 71.1259 128.159C71.5415 130.237 73.1236 156.628 73.1236 156.628C73.1236 156.628 75.4155 176.554 82.1139 187.095C86.4789 193.964 88.8274 196.066 95.5991 200.58C106.088 207.573 114.645 210.509 125.566 217.062C135.555 223.056 141.456 227.512 147.542 237.54C153.924 248.055 154.658 255.737 155.534 268.006Z" fill="#FAC770"/>
<path d="M166.466 268.23C165.467 282.214 166.466 303.191 166.466 303.191C166.466 303.191 178.001 304.833 185.446 305.189C199.106 305.843 206.953 305.644 220.407 303.191C228.133 301.783 239.886 298.197 239.886 298.197V281.215C239.886 281.215 238.992 272.468 241.884 268.23C243.128 266.407 244.24 265.711 245.88 264.234C251.348 259.308 261.862 254.245 261.862 254.245C261.862 254.245 273.074 246.664 279.842 241.259C286.968 235.568 290.376 232.925 296.824 226.476C300.044 223.256 302.538 219.597 305.315 215.988C311.595 207.825 312.752 202.979 316.303 193.311C318.834 186.419 319.129 183.579 320.298 176.33C321.665 167.857 322.377 161.826 321.797 153.355C321.297 146.064 320.752 142.344 319.3 135.375C318.301 130.581 316.303 125.386 313.306 121.39C312.854 120.787 310.809 117.894 307.812 117.894C305.804 117.894 303.98 118.495 303.317 120.391C302.654 122.287 302.458 124.765 304.316 131.58C305.814 137.074 306.302 141.232 306.813 146.563C307.388 152.557 307.313 159.695 307.313 163.046C307.313 166.542 306.813 173.333 304.316 181.824C303.049 186.132 298.322 191.813 298.322 191.813C298.322 191.813 301.401 180.513 302.318 173.333C303.307 165.594 303.74 161.146 303.317 153.355C303.019 147.861 302.637 145.8 301.319 139.87C300.32 135.375 299.138 130.562 297.324 126.884C296.092 124.387 294.728 119.693 290.331 116.395C288.333 114.897 285.583 114.598 284.837 115.098C282.599 116.596 282.34 117.738 282.34 120.391C282.34 125.087 283.838 129.881 284.837 135.375C285.858 140.993 286.393 144.166 286.835 149.859C287.408 157.249 287.474 160.805 286.835 167.839C286.336 173.333 285.836 175.831 283.838 181.824C282.345 186.303 277.345 193.311 277.345 193.311C277.345 193.311 280.811 182.601 281.84 175.331C282.77 168.765 282.774 164.468 282.34 157.85C281.811 149.785 281.842 145.703 279.842 137.872C278.469 132.493 277.909 129.041 275.847 123.887C274.848 121.39 272.477 118.945 269.854 118.893C266.19 118.819 265.522 122.09 265.358 123.887C264.859 129.381 265.858 135.874 266.357 142.367C267.009 150.833 267.356 154.421 267.356 162.845C267.356 170.337 266.487 175.495 264.359 181.824C262.747 186.62 258.366 193.311 258.366 193.311L259.365 188.816C259.365 188.816 260.427 183.359 260.863 179.826C261.172 177.329 261.363 174.832 261.363 174.832C261.363 174.832 261.764 171.095 261.862 169.837C262.409 162.837 261.862 151.857 261.862 151.857C261.862 151.857 261.62 137.061 258.366 128.382C256.868 124.387 251.773 123.887 250.874 128.382C250.459 130.46 248.876 156.851 248.876 156.851C248.876 156.851 246.585 176.777 239.886 187.318C235.521 194.187 233.173 196.289 226.401 200.803C215.912 207.796 207.355 210.732 196.434 217.285C186.445 223.279 180.544 227.735 174.458 237.763C168.076 248.278 167.342 255.96 166.466 268.23Z" fill="#FAC770"/>
<path d="M56.5032 67.3089C57.9672 73.4653 62.0542 82.7339 62.0542 82.7339C62.0542 82.7339 64.6022 72.5177 64.1889 65.0685C64.0103 61.8497 61.4998 60.5346 59.5767 60.8672C57.0464 61.3048 55.8555 64.5851 56.5032 67.3089Z" fill="#9DDBF9"/>
<path d="M30.3272 78.3023C41.0143 83.7596 59.4423 89.2656 59.4423 89.2656C59.4423 89.2656 47.8882 73.0453 36.6431 64.4872C31.7842 60.7893 26.7721 62.7868 24.8633 65.9634C22.3517 70.1431 25.5987 75.8878 30.3272 78.3023Z" fill="#C5E9FB"/>
<path d="M266.074 67.3089C264.61 73.4653 260.523 82.7339 260.523 82.7339C260.523 82.7339 257.975 72.5177 258.388 65.0685C258.567 61.8497 261.077 60.5346 263 60.8672C265.53 61.3048 266.721 64.5851 266.074 67.3089Z" fill="#9DDBF9"/>
<path d="M292.249 78.3023C281.562 83.7596 263.134 89.2656 263.134 89.2656C263.134 89.2656 274.688 73.0453 285.933 64.4872C290.792 60.7893 295.804 62.7868 297.713 65.9634C300.225 70.1431 296.978 75.8878 292.249 78.3023Z" fill="#C5E9FB"/>
<path d="M202.366 13.7229C193.335 21.6248 181.389 36.6978 181.389 36.6978C181.389 36.6978 200.737 31.9814 212.855 24.7109C218.09 21.5695 218.094 16.174 215.851 13.2235C212.901 9.34122 206.362 10.2267 202.366 13.7229Z" fill="#C5E9FB"/>
<path d="M177.57 10.0257C175.827 20.1177 176.004 36.5311 176.004 36.5311C176.004 36.5311 186.3 23.0084 190.429 11.6768C192.213 6.7806 189.316 3.20104 186.244 2.44928C182.202 1.46014 178.341 5.56063 177.57 10.0257Z" fill="#9DDBF9"/>
<path d="M119.793 13.7229C128.824 21.6248 140.77 36.6978 140.77 36.6978C140.77 36.6978 121.422 31.9814 109.304 24.7109C104.069 21.5695 104.065 16.174 106.308 13.2235C109.258 9.34122 115.797 10.2267 119.793 13.7229Z" fill="#C5E9FB"/>
<path d="M144.589 10.0257C146.332 20.1177 146.155 36.5311 146.155 36.5311C146.155 36.5311 135.859 23.0084 131.73 11.6768C129.946 6.7806 132.842 3.20104 135.915 2.44928C139.957 1.46014 143.817 5.56063 144.589 10.0257Z" fill="#9DDBF9"/>
<path d="M166.306 27.9171C165.362 36.3984 161.416 49.4942 161.416 49.4942C161.416 49.4942 156.31 36.2845 155.632 26.258C155.339 21.9257 158.487 19.7322 161.12 19.8426C164.585 19.9879 166.724 24.1647 166.306 27.9171Z" fill="#C5E9FB"/>
</svg>
