<svg width="173" height="295" viewBox="0 0 173 295" fill="none" xmlns="http://www.w3.org/2000/svg">
<rect x="0.375977" width="172.248" height="295" rx="15" fill="#7A7A7A"/>
<rect x="8.29541" y="7.91943" width="156.409" height="279.161" rx="12" fill="#FDFDFD"/>
<path d="M147.877 110.862H28.0947V184.117H147.877V110.862Z" fill="#FEF2DC" stroke="#FDE4BA"/>
<path d="M28.0947 184.117L87.4907 142.54L147.877 184.117" stroke="#FDE4BA"/>
<path d="M87.4899 152.44C87.4899 152.44 27.2638 110.859 28.094 110.862C28.9241 110.866 146.885 110.852 147.876 110.862C148.866 110.873 87.4899 152.44 87.4899 152.44Z" fill="#FEF2DC" stroke="#FDE4BA"/>
<path d="M80.1383 136.661C84.1435 137.139 87.4812 141.205 87.4812 141.205C87.4812 141.205 91.2858 137.108 94.4904 136.74C97.8297 136.357 99.1616 137.658 99.4135 137.888C99.6654 138.118 101.082 139.132 101.333 141.683C101.583 144.234 98.9963 147.981 96.493 150.85C93.9897 153.72 90.8834 156.989 89.901 157.945C88.9186 158.902 87.4848 160.369 87.4848 160.369L85.0614 157.945C85.0614 157.945 81.223 154.039 78.4696 150.85C76.1392 148.152 73.5499 145.222 73.6333 141.715C73.6599 140.599 73.9954 139.053 75.469 137.888C76.7727 136.858 78.4594 136.46 80.1383 136.661Z" fill="#F1733D"/>
</svg>
