<svg width="1103" height="923" viewBox="0 0 1103 923" fill="none" xmlns="http://www.w3.org/2000/svg">
<g clip-path="url(#clip0_229_3650)">
<rect width="1103" height="923" fill="#FEF7EB"/>
<path d="M615.873 507.665C654.267 501.436 713.194 488.037 713.194 488.037L721.321 496.941C721.321 496.941 679.453 505.562 652.312 510.299C615.843 516.664 580.293 523.35 543.426 526.475C509.114 529.384 502.641 529.804 467.546 529.931C449.51 529.996 413.303 529.106 379.338 524.21C351.562 520.206 330.945 516.13 312.298 510.675C293.65 505.219 265.823 495.231 265.823 495.231L272.26 491.46L278.698 487.689C278.698 487.689 303.503 497.358 320.863 502.043C343.978 508.281 357.136 511.132 382.231 514.67C413.759 519.115 433.157 520.415 466.347 520.936C495.643 521.396 512.533 520.153 542.228 517.481C571.078 514.884 587.253 512.309 615.873 507.665Z" fill="#FEF2DC"/>
<path d="M606.73 533.74C589.311 527.758 578.847 526.744 560.479 525.393C552.117 524.777 538.05 525.584 538.05 525.584C538.05 525.584 546.779 538.63 552.076 545.75C558.416 554.273 566.066 564.509 579.531 574.049C590.634 581.916 598.5 585.581 611.334 590.106C624.417 594.719 632.978 596.332 646.848 596.565C660.958 596.803 680.125 591.994 680.125 591.994C680.125 591.994 672.892 581.207 667.445 574.949C657.619 563.661 650.921 558.194 638.533 549.797C626.752 541.81 620.192 538.362 606.73 533.74Z" fill="#FEF2DC"/>
<path d="M668.042 468.576C656.23 482.707 647.8 488.989 632.781 499.649C625.943 504.502 613.488 511.089 613.488 511.089C613.488 511.089 614.208 495.409 615.057 486.575C616.073 476.002 617.323 463.284 623.91 448.154C629.343 435.677 634.177 428.471 642.819 417.959C651.628 407.242 658.12 401.432 669.869 394.056C681.821 386.553 700.711 380.752 700.711 380.752C700.711 380.752 700.102 393.725 698.678 401.898C696.11 416.642 693.206 424.786 686.95 438.381C681 451.312 677.17 457.655 668.042 468.576Z" fill="#FEF2DC"/>
<path d="M703.418 520.533C691.144 513.778 683.433 511.654 669.843 508.245C663.656 506.694 653.009 505.464 653.009 505.464C653.009 505.464 657.849 516.379 660.89 522.407C664.53 529.621 668.928 538.291 677.776 547.197C685.072 554.541 690.489 558.313 699.517 563.379C708.721 568.542 714.927 570.868 725.292 572.852C735.836 574.87 750.828 573.765 750.828 573.765C750.828 573.765 746.814 564.737 743.548 559.337C737.656 549.596 733.348 544.625 725.16 536.715C717.371 529.193 712.905 525.754 703.418 520.533Z" fill="#FEF2DC"/>
<path d="M549.937 509.607C538.074 517.061 530.499 519.629 517.13 523.818C511.043 525.725 500.484 527.57 500.484 527.57C500.484 527.57 504.685 516.392 507.372 510.198C510.588 502.786 514.477 493.876 522.794 484.473C529.653 476.719 534.842 472.639 543.562 467.059C552.451 461.371 558.512 458.691 568.745 456.11C579.154 453.485 594.185 453.719 594.185 453.719C594.185 453.719 590.701 462.964 587.753 468.545C582.435 478.611 578.422 483.823 570.705 492.193C563.365 500.154 559.105 503.846 549.937 509.607Z" fill="#FEF2DC"/>
<path d="M756.028 455.732C739.181 463.174 730.812 469.538 716.414 481.022C709.859 486.25 700.083 496.397 700.083 496.397C700.083 496.397 715.351 500.042 724.075 501.67C734.517 503.618 747.084 505.936 763.446 503.791C776.939 502.022 785.201 499.369 797.693 493.973C810.428 488.472 817.807 483.841 828.145 474.591C838.662 465.181 849.462 448.632 849.462 448.632C849.462 448.632 836.827 445.629 828.579 444.736C813.7 443.126 805.071 443.664 790.275 445.914C776.204 448.055 769.048 449.981 756.028 455.732Z" fill="#FEF2DC"/>
<circle cx="714.017" cy="457.09" r="8.15992" transform="rotate(90 714.017 457.09)" fill="#FEF2DC"/>
<circle cx="492.34" cy="499.249" r="8.15992" transform="rotate(90 492.34 499.249)" fill="#FEF2DC"/>
<circle cx="655.538" cy="541.408" r="8.15992" transform="rotate(90 655.538 541.408)" fill="#FEF2DC"/>
<path d="M257.126 417.337C218.732 423.566 159.805 436.965 159.805 436.965L151.678 428.062C151.678 428.062 193.546 419.441 220.687 414.704C257.156 408.338 292.706 401.652 329.573 398.527C363.885 395.619 370.358 395.199 405.453 395.072C423.489 395.007 459.696 395.896 493.661 400.793C521.437 404.797 542.054 408.872 560.701 414.328C579.349 419.783 607.176 429.772 607.176 429.772L600.739 433.542L594.301 437.313C594.301 437.313 569.496 427.644 552.136 422.959C529.021 416.721 515.863 413.871 490.768 410.333C459.24 405.888 439.842 404.588 406.652 404.067C377.356 403.607 360.466 404.849 330.771 407.522C301.921 410.119 285.746 412.694 257.126 417.337Z" fill="#FEF2DC"/>
<path d="M266.269 391.263C283.687 397.245 294.152 398.259 312.52 399.61C320.882 400.226 334.948 399.419 334.948 399.419C334.948 399.419 326.22 386.373 320.923 379.253C314.583 370.73 306.933 360.494 293.468 350.954C282.364 343.087 274.499 339.422 261.665 334.897C248.582 330.284 240.021 328.671 226.15 328.438C212.04 328.2 192.874 333.009 192.874 333.009C192.874 333.009 200.107 343.796 205.554 350.054C215.379 361.342 222.078 366.809 234.466 375.206C246.247 383.193 252.807 386.64 266.269 391.263Z" fill="#FEF2DC"/>
<path d="M204.957 456.426C216.768 442.295 225.199 436.013 240.218 425.354C247.056 420.501 259.51 413.913 259.51 413.913C259.51 413.913 258.79 429.593 257.941 438.428C256.925 449.001 255.675 461.719 249.088 476.849C243.656 489.326 238.821 496.532 230.18 507.044C221.37 517.76 214.879 523.57 203.13 530.946C191.178 538.449 172.288 544.25 172.288 544.25C172.288 544.25 172.897 531.277 174.32 523.104C176.889 508.361 179.793 500.217 186.048 486.621C191.998 473.691 195.828 467.347 204.957 456.426Z" fill="#FEF2DC"/>
<path d="M169.582 404.469C181.856 411.224 189.567 413.349 203.157 416.757C209.344 418.309 219.991 419.539 219.991 419.539C219.991 419.539 215.151 408.623 212.11 402.595C208.47 395.381 204.072 386.712 195.224 377.806C187.928 370.462 182.511 366.689 173.483 361.624C164.279 356.46 158.073 354.135 147.708 352.151C137.164 350.133 122.172 351.237 122.172 351.237C122.172 351.237 126.186 360.265 129.452 365.665C135.344 375.407 139.652 380.378 147.84 388.287C155.629 395.81 160.095 399.249 169.582 404.469Z" fill="#FEF2DC"/>
<path d="M323.062 415.396C334.925 407.942 342.5 405.374 355.87 401.184C361.957 399.277 372.515 397.433 372.515 397.433C372.515 397.433 368.315 408.61 365.627 414.804C362.411 422.217 358.523 431.127 350.206 440.53C343.347 448.284 338.158 452.364 329.438 457.943C320.548 463.631 314.487 466.312 304.255 468.893C293.845 471.518 278.814 471.283 278.814 471.283C278.814 471.283 282.299 462.038 285.247 456.458C290.565 446.392 294.577 441.18 302.295 432.809C309.634 424.848 313.894 421.157 323.062 415.396Z" fill="#FEF2DC"/>
<path d="M116.971 469.269C133.818 461.828 142.187 455.464 156.585 443.98C163.141 438.751 172.916 428.605 172.916 428.605C172.916 428.605 157.649 424.959 148.924 423.331C138.483 421.383 125.916 419.066 109.554 421.211C96.0608 422.979 87.7988 425.632 75.3063 431.028C62.5712 436.53 55.1924 441.161 44.8541 450.411C34.3375 459.821 23.5373 476.369 23.5373 476.369C23.5373 476.369 36.1725 479.373 44.4205 480.265C59.2992 481.876 67.9288 481.338 82.7241 479.087C96.7959 476.946 103.951 475.021 116.971 469.269Z" fill="#FEF2DC"/>
<circle cx="158.981" cy="467.913" r="8.15992" transform="rotate(-90 158.981 467.913)" fill="#FEF2DC"/>
<circle cx="380.659" cy="425.753" r="8.15992" transform="rotate(-90 380.659 425.753)" fill="#FEF2DC"/>
<circle cx="217.461" cy="383.594" r="8.15992" transform="rotate(-90 217.461 383.594)" fill="#FEF2DC"/>
<path d="M-84.9717 455.732C-101.819 463.174 -110.187 469.538 -124.586 481.022C-131.141 486.25 -140.916 496.397 -140.916 496.397C-140.916 496.397 -125.649 500.042 -116.925 501.67C-106.483 503.618 -93.9158 505.936 -77.5538 503.791C-64.0611 502.022 -55.799 499.369 -43.3065 493.973C-30.5714 488.472 -23.1926 483.841 -12.8544 474.591C-2.3377 465.181 8.4625 448.632 8.4625 448.632C8.4625 448.632 -4.17276 445.629 -12.4208 444.736C-27.2994 443.126 -35.929 443.664 -50.7243 445.914C-64.7962 448.055 -71.9515 449.981 -84.9717 455.732Z" fill="#FEF2DC"/>
<path d="M-335.5 289.665C-373.894 283.436 -432.821 270.037 -432.821 270.037L-440.948 278.941C-440.948 278.941 -399.081 287.562 -371.939 292.299C-335.47 298.664 -299.92 305.35 -263.054 308.475C-228.741 311.384 -222.268 311.804 -187.173 311.931C-169.138 311.996 -132.931 311.106 -98.9655 306.21C-71.1895 302.206 -50.5727 298.13 -31.9248 292.675C-13.2768 287.219 14.5502 277.231 14.5502 277.231L8.11261 273.46L1.67506 269.689C1.67506 269.689 -23.1301 279.358 -40.4905 284.043C-63.6049 290.281 -76.7631 293.132 -101.858 296.67C-133.386 301.115 -152.784 302.415 -185.974 302.936C-215.27 303.396 -232.161 302.153 -261.855 299.481C-290.706 296.884 -306.88 294.309 -335.5 289.665Z" fill="#FEF2DC"/>
<path d="M23.2464 199.337C61.6405 205.566 120.568 218.965 120.568 218.965L128.694 210.062C128.694 210.062 86.8272 201.441 59.6858 196.704C23.2167 190.338 -12.3336 183.652 -49.1997 180.527C-83.5126 177.619 -89.9849 177.199 -125.08 177.072C-143.116 177.007 -179.323 177.896 -213.288 182.793C-241.064 186.797 -261.681 190.872 -280.329 196.328C-298.977 201.783 -326.804 211.772 -326.804 211.772L-320.366 215.542L-313.928 219.313C-313.928 219.313 -289.123 209.644 -271.763 204.959C-248.649 198.721 -235.49 195.871 -210.395 192.333C-178.867 187.888 -159.469 186.588 -126.279 186.067C-96.9836 185.607 -80.0928 186.849 -50.3985 189.522C-21.5478 192.119 -5.37311 194.694 23.2464 199.337Z" fill="#FEF2DC"/>
<path d="M14.1041 173.263C-3.31469 179.245 -13.7794 180.259 -32.147 181.61C-40.5093 182.226 -54.5757 181.419 -54.5757 181.419C-54.5757 181.419 -45.8472 168.373 -40.5498 161.253C-34.2098 152.73 -26.5604 142.494 -13.0953 132.954C-1.99149 125.087 5.87396 121.422 18.7078 116.897C31.7909 112.284 40.352 110.671 54.2225 110.438C68.3324 110.2 87.499 115.009 87.499 115.009C87.499 115.009 80.2661 125.796 74.8192 132.054C64.9934 143.342 58.2946 148.809 45.9072 157.206C34.1256 165.193 27.5663 168.64 14.1041 173.263Z" fill="#FEF2DC"/>
<path d="M75.4161 238.426C63.6047 224.295 55.174 218.013 40.155 207.354C33.3172 202.501 20.8625 195.913 20.8625 195.913C20.8625 195.913 21.5824 211.593 22.4316 220.428C23.4478 231.001 24.6975 243.719 31.2848 258.849C36.7168 271.326 41.5515 278.532 50.193 289.044C59.0024 299.76 65.494 305.57 77.243 312.946C89.1949 320.449 108.085 326.25 108.085 326.25C108.085 326.25 107.476 313.277 106.053 305.104C103.484 290.361 100.58 282.217 94.3243 268.621C88.3744 255.691 84.5447 249.347 75.4161 238.426Z" fill="#FEF2DC"/>
<path d="M110.791 186.469C98.5163 193.224 90.8056 195.349 77.2159 198.757C71.0288 200.309 60.3813 201.539 60.3813 201.539C60.3813 201.539 65.2217 190.623 68.2632 184.595C71.9033 177.381 76.3012 168.712 85.1487 159.806C92.4447 152.462 97.8616 148.689 106.89 143.624C116.094 138.46 122.3 136.135 132.665 134.151C143.209 132.133 158.201 133.237 158.201 133.237C158.201 133.237 154.187 142.265 150.921 147.665C145.029 157.407 140.721 162.378 132.532 170.287C124.744 177.81 120.278 181.249 110.791 186.469Z" fill="#FEF2DC"/>
<path d="M-42.6896 197.396C-54.5527 189.942 -62.1274 187.374 -75.497 183.184C-81.5838 181.277 -92.1423 179.433 -92.1423 179.433C-92.1423 179.433 -87.9421 190.61 -85.2546 196.804C-82.0383 204.217 -78.1498 213.127 -69.8327 222.53C-62.9742 230.284 -57.7848 234.364 -49.0648 239.943C-40.1754 245.631 -34.1146 248.312 -23.8818 250.893C-13.4724 253.518 1.55846 253.283 1.55846 253.283C1.55846 253.283 -1.92611 244.038 -4.87415 238.458C-10.1922 228.392 -14.2047 223.18 -21.9217 214.809C-29.2614 206.848 -33.5212 203.157 -42.6896 197.396Z" fill="#FEF2DC"/>
<path d="M163.401 251.269C146.554 243.828 138.186 237.464 123.787 225.98C117.232 220.751 107.457 210.605 107.457 210.605C107.457 210.605 122.724 206.959 131.448 205.331C141.89 203.383 154.457 201.066 170.819 203.211C184.312 204.979 192.574 207.632 205.067 213.028C217.802 218.53 225.18 223.161 235.519 232.411C246.035 241.821 256.836 258.369 256.836 258.369C256.836 258.369 244.2 261.373 235.952 262.265C221.074 263.876 212.444 263.338 197.649 261.087C183.577 258.946 176.422 257.021 163.401 251.269Z" fill="#FEF2DC"/>
<circle cx="8.15992" cy="8.15992" r="8.15992" transform="matrix(0 -1 -1 0 129.552 258.073)" fill="#FEF2DC"/>
<circle cx="8.15992" cy="8.15992" r="8.15992" transform="matrix(0 -1 -1 0 71.072 173.754)" fill="#FEF2DC"/>
<path d="M863.873 199.338C902.267 205.567 961.194 218.966 961.194 218.966L969.321 210.062C969.321 210.062 927.453 201.441 900.312 196.704C863.843 190.339 828.293 183.653 791.426 180.528C757.114 177.619 750.641 177.199 715.546 177.072C697.51 177.007 661.303 177.897 627.338 182.793C599.562 186.797 578.945 190.873 560.298 196.328C541.65 201.784 513.823 211.772 513.823 211.772L520.26 215.543L526.698 219.314C526.698 219.314 551.503 209.645 568.863 204.96C591.978 198.722 605.136 195.871 630.231 192.333C661.759 187.888 681.157 186.588 714.347 186.067C743.643 185.607 760.533 186.849 790.228 189.522C819.078 192.119 835.253 194.694 863.873 199.338Z" fill="#FEF2DC"/>
<path d="M854.73 173.263C837.311 179.245 826.847 180.259 808.479 181.61C800.117 182.226 786.05 181.419 786.05 181.419C786.05 181.419 794.779 168.373 800.076 161.253C806.416 152.73 814.066 142.494 827.531 132.954C838.634 125.087 846.5 121.422 859.334 116.897C872.417 112.284 880.978 110.671 894.848 110.438C908.958 110.2 928.125 115.009 928.125 115.009C928.125 115.009 920.892 125.796 915.445 132.054C905.619 143.342 898.921 148.809 886.533 157.206C874.752 165.193 868.192 168.64 854.73 173.263Z" fill="#FEF2DC"/>
<path d="M916.042 238.427C904.23 224.296 895.8 218.014 880.781 207.354C873.943 202.501 861.488 195.914 861.488 195.914C861.488 195.914 862.208 211.594 863.057 220.428C864.073 231.001 865.323 243.719 871.91 258.849C877.343 271.326 882.177 278.532 890.819 289.044C899.628 299.761 906.12 305.571 917.869 312.947C929.821 320.45 948.711 326.251 948.711 326.251C948.711 326.251 948.102 313.278 946.678 305.105C944.11 290.361 941.206 282.217 934.95 268.622C929 255.691 925.17 249.348 916.042 238.427Z" fill="#FEF2DC"/>
<path d="M951.418 186.47C939.144 193.224 931.433 195.349 917.843 198.758C911.656 200.309 901.009 201.539 901.009 201.539C901.009 201.539 905.849 190.624 908.89 184.596C912.53 177.382 916.928 168.712 925.776 159.806C933.072 152.462 938.489 148.689 947.517 143.624C956.721 138.461 962.927 136.135 973.292 134.151C983.836 132.133 998.828 133.238 998.828 133.238C998.828 133.238 994.814 142.265 991.548 147.666C985.656 157.407 981.348 162.378 973.16 170.288C965.371 177.81 960.905 181.249 951.418 186.47Z" fill="#FEF2DC"/>
<path d="M797.937 197.396C786.074 189.942 778.499 187.374 765.13 183.185C759.043 181.278 748.484 179.433 748.484 179.433C748.484 179.433 752.685 190.611 755.372 196.805C758.588 204.217 762.477 213.127 770.794 222.53C777.653 230.284 782.842 234.364 791.562 239.944C800.451 245.631 806.512 248.312 816.745 250.893C827.154 253.518 842.185 253.284 842.185 253.284C842.185 253.284 838.701 244.039 835.753 238.458C830.435 228.392 826.422 223.18 818.705 214.81C811.365 206.849 807.105 203.157 797.937 197.396Z" fill="#FEF2DC"/>
<path d="M1004.03 251.271C987.181 243.829 978.812 237.465 964.414 225.981C957.859 220.753 948.083 210.606 948.083 210.606C948.083 210.606 963.351 206.961 972.075 205.333C982.517 203.384 995.084 201.067 1011.45 203.212C1024.94 204.981 1033.2 207.634 1045.69 213.03C1058.43 218.531 1065.81 223.162 1076.15 232.412C1086.66 241.822 1097.46 258.37 1097.46 258.37C1097.46 258.37 1084.83 261.374 1076.58 262.267C1061.7 263.877 1053.07 263.339 1038.28 261.088C1024.2 258.948 1017.05 257.022 1004.03 251.271Z" fill="#FEF2DC"/>
<circle cx="8.15992" cy="8.15992" r="8.15992" transform="matrix(0 -1 -1 0 970.177 258.073)" fill="#FEF2DC"/>
<circle cx="8.15992" cy="8.15992" r="8.15992" transform="matrix(0 -1 -1 0 748.5 215.914)" fill="#FEF2DC"/>
<circle cx="8.15992" cy="8.15992" r="8.15992" transform="matrix(0 -1 -1 0 911.698 173.754)" fill="#FEF2DC"/>
<path d="M505.126 289.666C466.732 283.437 407.805 270.037 407.805 270.037L399.678 278.941C399.678 278.941 441.546 287.562 468.687 292.299C505.156 298.665 540.706 305.351 577.573 308.476C611.885 311.384 618.358 311.804 653.453 311.931C671.489 311.996 707.696 311.107 741.661 306.21C769.437 302.206 790.054 298.131 808.701 292.675C827.349 287.22 855.176 277.231 855.176 277.231L848.739 273.461L842.301 269.69C842.301 269.69 817.496 279.358 800.136 284.044C777.021 290.282 763.863 293.132 738.768 296.67C707.24 301.115 687.842 302.415 654.652 302.936C625.356 303.396 608.466 302.154 578.771 299.481C549.921 296.884 533.746 294.309 505.126 289.666Z" fill="#FEF2DC"/>
<path d="M514.268 315.74C531.687 309.758 542.152 308.744 560.52 307.393C568.882 306.777 582.948 307.584 582.948 307.584C582.948 307.584 574.22 320.63 568.922 327.75C562.582 336.273 554.933 346.509 541.468 356.049C530.364 363.916 522.499 367.581 509.665 372.106C496.582 376.719 488.021 378.332 474.15 378.565C460.04 378.803 440.874 373.994 440.874 373.994C440.874 373.994 448.106 363.207 453.553 356.949C463.379 345.661 470.078 340.194 482.465 331.797C494.247 323.81 500.806 320.362 514.268 315.74Z" fill="#FEF2DC"/>
<path d="M452.957 250.577C464.768 264.708 473.199 270.99 488.218 281.649C495.056 286.502 507.51 293.089 507.51 293.089C507.51 293.089 506.79 277.41 505.941 268.575C504.925 258.002 503.675 245.284 497.088 230.154C491.656 217.677 486.821 210.471 478.18 199.959C469.37 189.243 462.879 183.433 451.13 176.057C439.178 168.554 420.288 162.753 420.288 162.753C420.288 162.753 420.897 175.726 422.32 183.899C424.889 198.642 427.793 206.786 434.048 220.382C439.998 233.312 443.828 239.656 452.957 250.577Z" fill="#FEF2DC"/>
<path d="M417.582 302.534C429.856 295.779 437.567 293.654 451.157 290.246C457.344 288.694 467.991 287.464 467.991 287.464C467.991 287.464 463.151 298.38 460.11 304.408C456.47 311.622 452.072 320.291 443.224 329.197C435.928 336.541 430.511 340.314 421.483 345.379C412.279 350.543 406.073 352.868 395.708 354.852C385.164 356.87 370.172 355.766 370.172 355.766C370.172 355.766 374.186 346.738 377.452 341.338C383.344 331.596 387.652 326.625 395.84 318.716C403.629 311.193 408.095 307.754 417.582 302.534Z" fill="#FEF2DC"/>
<path d="M571.062 291.607C582.925 299.061 590.5 301.629 603.87 305.818C609.957 307.726 620.515 309.57 620.515 309.57C620.515 309.57 616.315 298.393 613.627 292.199C610.411 284.786 606.523 275.876 598.206 266.473C591.347 258.719 586.158 254.639 577.438 249.06C568.548 243.372 562.487 240.691 552.255 238.11C541.845 235.485 526.814 235.72 526.814 235.72C526.814 235.72 530.299 244.965 533.247 250.545C538.565 260.611 542.577 265.823 550.295 274.194C557.634 282.154 561.894 285.846 571.062 291.607Z" fill="#FEF2DC"/>
<path d="M364.971 237.733C381.818 245.175 390.187 251.539 404.585 263.023C411.141 268.252 420.916 278.398 420.916 278.398C420.916 278.398 405.649 282.044 396.924 283.672C386.483 285.62 373.916 287.937 357.554 285.792C344.061 284.024 335.799 281.371 323.306 275.975C310.571 270.473 303.192 265.842 292.854 256.592C282.337 247.182 271.537 230.634 271.537 230.634C271.537 230.634 284.173 227.63 292.421 226.737C307.299 225.127 315.929 225.665 330.724 227.916C344.796 230.057 351.951 231.982 364.971 237.733Z" fill="#FEF2DC"/>
<circle cx="8.15992" cy="8.15992" r="8.15992" transform="matrix(0 1 1 0 398.821 230.93)" fill="#FEF2DC"/>
<circle cx="8.15992" cy="8.15992" r="8.15992" transform="matrix(0 1 1 0 620.499 273.09)" fill="#FEF2DC"/>
<circle cx="8.15992" cy="8.15992" r="8.15992" transform="matrix(0 1 1 0 457.301 315.249)" fill="#FEF2DC"/>
<path d="M-335.873 722.665C-374.267 716.436 -433.194 703.037 -433.194 703.037L-441.321 711.941C-441.321 711.941 -399.454 720.562 -372.312 725.299C-335.843 731.664 -300.293 738.35 -263.427 741.475C-229.114 744.384 -222.642 744.804 -187.546 744.931C-169.511 744.996 -133.304 744.106 -99.3386 739.21C-71.5626 735.206 -50.9457 731.13 -32.2978 725.675C-13.6498 720.219 14.1771 710.231 14.1771 710.231L7.73956 706.46L1.30202 702.689C1.30202 702.689 -23.5032 712.358 -40.8635 717.043C-63.978 723.281 -77.1362 726.132 -102.231 729.67C-133.759 734.115 -153.157 735.415 -186.347 735.936C-215.643 736.396 -232.534 735.153 -262.228 732.481C-291.079 729.884 -307.253 727.309 -335.873 722.665Z" fill="#FEF2DC"/>
<path d="M22.8733 632.337C61.2674 638.566 120.195 651.965 120.195 651.965L128.321 643.062C128.321 643.062 86.4542 634.441 59.3128 629.704C22.8436 623.338 -12.7066 616.652 -49.5728 613.527C-83.8856 610.619 -90.358 610.199 -125.453 610.072C-143.489 610.007 -179.696 610.896 -213.661 615.793C-241.437 619.797 -262.054 623.872 -280.702 629.328C-299.35 634.783 -327.177 644.772 -327.177 644.772L-320.739 648.542L-314.302 652.313C-314.302 652.313 -289.496 642.644 -272.136 637.959C-249.022 631.721 -235.863 628.871 -210.768 625.333C-179.24 620.888 -159.843 619.588 -126.652 619.067C-97.3566 618.607 -80.4658 619.849 -50.7716 622.522C-21.9208 625.119 -5.74615 627.694 22.8733 632.337Z" fill="#FEF2DC"/>
<path d="M13.7311 606.263C-3.68773 612.245 -14.1524 613.259 -32.5201 614.61C-40.8824 615.226 -54.9487 614.419 -54.9487 614.419C-54.9487 614.419 -46.2202 601.373 -40.9228 594.253C-34.5829 585.73 -26.9335 575.494 -13.4684 565.954C-2.36454 558.087 5.50091 554.422 18.3347 549.897C31.4178 545.284 39.9789 543.671 53.8494 543.438C67.9593 543.2 87.126 548.009 87.126 548.009C87.126 548.009 79.8931 558.796 74.4461 565.054C64.6204 576.342 57.9216 581.809 45.5342 590.206C33.7525 598.193 27.1932 601.64 13.7311 606.263Z" fill="#FEF2DC"/>
<path d="M75.0431 671.426C63.2316 657.295 54.801 651.013 39.7819 640.354C32.9441 635.501 20.4895 628.913 20.4895 628.913C20.4895 628.913 21.2094 644.593 22.0585 653.428C23.0747 664.001 24.3245 676.719 30.9117 691.849C36.3438 704.326 41.1785 711.532 49.82 722.044C58.6294 732.76 65.1209 738.57 76.87 745.946C88.8218 753.449 107.712 759.25 107.712 759.25C107.712 759.25 107.103 746.277 105.679 738.104C103.111 723.361 100.207 715.217 93.9513 701.621C88.0013 688.691 84.1716 682.347 75.0431 671.426Z" fill="#FEF2DC"/>
<path d="M110.418 619.469C98.1433 626.224 90.4326 628.349 76.8428 631.757C70.6558 633.309 60.0083 634.539 60.0083 634.539C60.0083 634.539 64.8486 623.623 67.8901 617.595C71.5302 610.381 75.9281 601.712 84.7756 592.806C92.0716 585.462 97.4885 581.689 106.517 576.624C115.721 571.46 121.927 569.135 132.292 567.151C142.836 565.133 157.828 566.237 157.828 566.237C157.828 566.237 153.814 575.265 150.547 580.665C144.656 590.407 140.348 595.378 132.159 603.287C124.371 610.81 119.905 614.249 110.418 619.469Z" fill="#FEF2DC"/>
<path d="M-43.0626 630.396C-54.9257 622.942 -62.5005 620.374 -75.87 616.184C-81.9569 614.277 -92.5153 612.433 -92.5153 612.433C-92.5153 612.433 -88.3151 623.61 -85.6277 629.804C-82.4114 637.217 -78.5228 646.127 -70.2058 655.53C-63.3472 663.284 -58.1579 667.364 -49.4379 672.943C-40.5485 678.631 -34.4877 681.312 -24.2548 683.893C-13.8454 686.518 1.18542 686.283 1.18542 686.283C1.18542 686.283 -2.29916 677.038 -5.2472 671.458C-10.5652 661.392 -14.5777 656.18 -22.2948 647.809C-29.6345 639.848 -33.8943 636.157 -43.0626 630.396Z" fill="#FEF2DC"/>
<path d="M163.028 684.269C146.181 676.828 137.813 670.464 123.414 658.98C116.859 653.751 107.084 643.605 107.084 643.605C107.084 643.605 122.351 639.959 131.075 638.331C141.517 636.383 154.084 634.066 170.446 636.211C183.939 637.979 192.201 640.632 204.693 646.028C217.429 651.53 224.807 656.161 235.146 665.411C245.662 674.821 256.463 691.369 256.463 691.369C256.463 691.369 243.827 694.373 235.579 695.265C220.701 696.876 212.071 696.338 197.276 694.087C183.204 691.946 176.048 690.021 163.028 684.269Z" fill="#FEF2DC"/>
<circle cx="8.15992" cy="8.15992" r="8.15992" transform="matrix(0 -1 -1 0 129.178 691.073)" fill="#FEF2DC"/>
<circle cx="8.15992" cy="8.15992" r="8.15992" transform="matrix(0 -1 -1 0 70.699 606.754)" fill="#FEF2DC"/>
<path d="M863.5 632.338C901.894 638.567 960.821 651.966 960.821 651.966L968.948 643.062C968.948 643.062 927.08 634.441 899.939 629.704C863.47 623.339 827.92 616.653 791.053 613.528C756.741 610.619 750.268 610.199 715.173 610.072C697.137 610.007 660.93 610.897 626.965 615.793C599.189 619.797 578.572 623.873 559.925 629.328C541.277 634.784 513.45 644.772 513.45 644.772L519.887 648.543L526.325 652.314C526.325 652.314 551.13 642.645 568.49 637.96C591.605 631.722 604.763 628.871 629.858 625.333C661.386 620.888 680.784 619.588 713.974 619.067C743.27 618.607 760.16 619.849 789.855 622.522C818.705 625.119 834.88 627.694 863.5 632.338Z" fill="#FEF2DC"/>
<path d="M854.357 606.263C836.938 612.245 826.474 613.259 808.106 614.61C799.744 615.226 785.677 614.419 785.677 614.419C785.677 614.419 794.406 601.373 799.703 594.253C806.043 585.73 813.692 575.494 827.158 565.954C838.261 558.087 846.127 554.422 858.961 549.897C872.044 545.284 880.605 543.671 894.475 543.438C908.585 543.2 927.752 548.009 927.752 548.009C927.752 548.009 920.519 558.796 915.072 565.054C905.246 576.342 898.548 581.809 886.16 590.206C874.378 598.193 867.819 601.64 854.357 606.263Z" fill="#FEF2DC"/>
<path d="M915.669 671.427C903.857 657.296 895.427 651.014 880.408 640.354C873.57 635.501 861.115 628.914 861.115 628.914C861.115 628.914 861.835 644.594 862.684 653.428C863.7 664.001 864.95 676.719 871.537 691.849C876.97 704.326 881.804 711.532 890.446 722.044C899.255 732.761 905.747 738.571 917.496 745.947C929.448 753.45 948.338 759.251 948.338 759.251C948.338 759.251 947.729 746.278 946.305 738.105C943.737 723.361 940.833 715.217 934.577 701.622C928.627 688.691 924.797 682.348 915.669 671.427Z" fill="#FEF2DC"/>
<path d="M951.045 619.47C938.77 626.224 931.06 628.349 917.47 631.758C911.283 633.309 900.635 634.539 900.635 634.539C900.635 634.539 905.476 623.624 908.517 617.596C912.157 610.382 916.555 601.712 925.403 592.806C932.699 585.462 938.116 581.689 947.144 576.624C956.348 571.461 962.554 569.135 972.919 567.151C983.463 565.133 998.455 566.238 998.455 566.238C998.455 566.238 994.441 575.265 991.175 580.666C985.283 590.407 980.975 595.378 972.786 603.288C964.998 610.81 960.532 614.249 951.045 619.47Z" fill="#FEF2DC"/>
<path d="M797.564 630.396C785.701 622.942 778.126 620.374 764.757 616.185C758.67 614.278 748.111 612.433 748.111 612.433C748.111 612.433 752.312 623.611 754.999 629.805C758.215 637.217 762.104 646.127 770.421 655.53C777.279 663.284 782.469 667.364 791.189 672.944C800.078 678.631 806.139 681.312 816.372 683.893C826.781 686.518 841.812 686.284 841.812 686.284C841.812 686.284 838.328 677.039 835.38 671.458C830.062 661.392 826.049 656.18 818.332 647.81C810.992 639.849 806.732 636.157 797.564 630.396Z" fill="#FEF2DC"/>
<path d="M1003.66 684.271C986.808 676.829 978.439 670.465 964.041 658.981C957.486 653.753 947.71 643.606 947.71 643.606C947.71 643.606 962.977 639.961 971.702 638.333C982.144 636.384 994.711 634.067 1011.07 636.212C1024.57 637.981 1032.83 640.634 1045.32 646.03C1058.06 651.531 1065.43 656.162 1075.77 665.412C1086.29 674.822 1097.09 691.37 1097.09 691.37C1097.09 691.37 1084.45 694.374 1076.21 695.267C1061.33 696.877 1052.7 696.339 1037.9 694.088C1023.83 691.948 1016.68 690.022 1003.66 684.271Z" fill="#FEF2DC"/>
<circle cx="8.15992" cy="8.15992" r="8.15992" transform="matrix(0 -1 -1 0 969.804 691.073)" fill="#FEF2DC"/>
<circle cx="8.15992" cy="8.15992" r="8.15992" transform="matrix(0 -1 -1 0 748.127 648.914)" fill="#FEF2DC"/>
<circle cx="8.15992" cy="8.15992" r="8.15992" transform="matrix(0 -1 -1 0 911.325 606.754)" fill="#FEF2DC"/>
<path d="M504.753 722.666C466.359 716.437 407.432 703.037 407.432 703.037L399.305 711.941C399.305 711.941 441.173 720.562 468.314 725.299C504.783 731.665 540.333 738.351 577.2 741.476C611.512 744.384 617.985 744.804 653.08 744.931C671.116 744.996 707.323 744.107 741.288 739.21C769.064 735.206 789.68 731.131 808.328 725.675C826.976 720.22 854.803 710.231 854.803 710.231L848.366 706.461L841.928 702.69C841.928 702.69 817.123 712.358 799.763 717.044C776.648 723.282 763.49 726.132 738.395 729.67C706.867 734.115 687.469 735.415 654.279 735.936C624.983 736.396 608.093 735.154 578.398 732.481C549.548 729.884 533.373 727.309 504.753 722.666Z" fill="#FEF2DC"/>
<path d="M513.895 748.74C531.314 742.758 541.779 741.744 560.147 740.393C568.509 739.777 582.575 740.584 582.575 740.584C582.575 740.584 573.847 753.63 568.549 760.75C562.209 769.273 554.56 779.509 541.095 789.049C529.991 796.916 522.126 800.581 509.292 805.106C496.209 809.719 487.648 811.332 473.777 811.565C459.667 811.803 440.5 806.994 440.5 806.994C440.5 806.994 447.733 796.207 453.18 789.949C463.006 778.661 469.705 773.194 482.092 764.797C493.874 756.81 500.433 753.362 513.895 748.74Z" fill="#FEF2DC"/>
<path d="M452.584 683.577C464.395 697.708 472.826 703.99 487.845 714.649C494.683 719.502 507.137 726.089 507.137 726.089C507.137 726.089 506.417 710.41 505.568 701.575C504.552 691.002 503.302 678.284 496.715 663.154C491.283 650.677 486.448 643.471 477.807 632.959C468.997 622.243 462.506 616.433 450.757 609.057C438.805 601.554 419.915 595.753 419.915 595.753C419.915 595.753 420.524 608.726 421.947 616.899C424.515 631.642 427.42 639.786 433.675 653.382C439.625 666.312 443.455 672.656 452.584 683.577Z" fill="#FEF2DC"/>
<path d="M417.209 735.534C429.483 728.779 437.194 726.654 450.784 723.246C456.971 721.694 467.618 720.464 467.618 720.464C467.618 720.464 462.778 731.38 459.737 737.408C456.096 744.622 451.699 753.291 442.851 762.197C435.555 769.541 430.138 773.314 421.11 778.379C411.906 783.543 405.7 785.868 395.335 787.852C384.791 789.87 369.799 788.766 369.799 788.766C369.799 788.766 373.813 779.738 377.079 774.338C382.971 764.596 387.279 759.625 395.467 751.716C403.256 744.193 407.722 740.754 417.209 735.534Z" fill="#FEF2DC"/>
<path d="M570.689 724.607C582.552 732.061 590.127 734.629 603.497 738.818C609.584 740.726 620.142 742.57 620.142 742.57C620.142 742.57 615.942 731.393 613.254 725.199C610.038 717.786 606.15 708.876 597.833 699.473C590.974 691.719 585.785 687.639 577.065 682.06C568.175 676.372 562.114 673.691 551.882 671.11C541.472 668.485 526.441 668.72 526.441 668.72C526.441 668.72 529.926 677.965 532.874 683.545C538.192 693.611 542.204 698.823 549.921 707.194C557.261 715.154 561.521 718.846 570.689 724.607Z" fill="#FEF2DC"/>
<path d="M364.598 670.733C381.445 678.175 389.814 684.539 404.212 696.023C410.767 701.252 420.543 711.398 420.543 711.398C420.543 711.398 405.276 715.044 396.551 716.672C386.11 718.62 373.542 720.937 357.181 718.792C343.688 717.024 335.426 714.371 322.933 708.975C310.198 703.473 302.819 698.842 292.481 689.592C281.964 680.182 271.164 663.634 271.164 663.634C271.164 663.634 283.799 660.63 292.047 659.737C306.926 658.127 315.556 658.665 330.351 660.916C344.423 663.057 351.578 664.982 364.598 670.733Z" fill="#FEF2DC"/>
<circle cx="8.15992" cy="8.15992" r="8.15992" transform="matrix(0 1 1 0 398.448 663.93)" fill="#FEF2DC"/>
<circle cx="8.15992" cy="8.15992" r="8.15992" transform="matrix(0 1 1 0 620.126 706.09)" fill="#FEF2DC"/>
<circle cx="8.15992" cy="8.15992" r="8.15992" transform="matrix(0 1 1 0 456.928 748.249)" fill="#FEF2DC"/>
<path d="M1098.13 417.337C1059.73 423.566 1000.81 436.965 1000.81 436.965L992.678 428.062C992.678 428.062 1034.55 419.441 1061.69 414.704C1098.16 408.338 1133.71 401.652 1170.57 398.527C1204.89 395.619 1211.36 395.199 1246.45 395.072C1264.49 395.007 1300.7 395.896 1334.66 400.793C1362.44 404.797 1383.05 408.872 1401.7 414.328C1420.35 419.783 1448.18 429.772 1448.18 429.772L1441.74 433.542L1435.3 437.313C1435.3 437.313 1410.5 427.644 1393.14 422.959C1370.02 416.721 1356.86 413.871 1331.77 410.333C1300.24 405.888 1280.84 404.588 1247.65 404.067C1218.36 403.607 1201.47 404.849 1171.77 407.522C1142.92 410.119 1126.75 412.694 1098.13 417.337Z" fill="#FEF2DC"/>
<path d="M1107.27 391.263C1124.69 397.245 1135.15 398.259 1153.52 399.61C1161.88 400.226 1175.95 399.419 1175.95 399.419C1175.95 399.419 1167.22 386.373 1161.92 379.253C1155.58 370.73 1147.93 360.494 1134.47 350.954C1123.36 343.087 1115.5 339.422 1102.66 334.897C1089.58 330.284 1081.02 328.671 1067.15 328.438C1053.04 328.2 1033.87 333.009 1033.87 333.009C1033.87 333.009 1041.11 343.796 1046.55 350.054C1056.38 361.342 1063.08 366.809 1075.47 375.206C1087.25 383.193 1093.81 386.64 1107.27 391.263Z" fill="#FEF2DC"/>
<path d="M1045.96 456.426C1057.77 442.295 1066.2 436.013 1081.22 425.354C1088.06 420.501 1100.51 413.913 1100.51 413.913C1100.51 413.913 1099.79 429.593 1098.94 438.428C1097.93 449.001 1096.68 461.719 1090.09 476.849C1084.66 489.326 1079.82 496.532 1071.18 507.044C1062.37 517.76 1055.88 523.57 1044.13 530.946C1032.18 538.449 1013.29 544.25 1013.29 544.25C1013.29 544.25 1013.9 531.277 1015.32 523.104C1017.89 508.361 1020.79 500.217 1027.05 486.621C1033 473.691 1036.83 467.347 1045.96 456.426Z" fill="#FEF2DC"/>
<path d="M1010.58 404.469C1022.86 411.224 1030.57 413.349 1044.16 416.757C1050.34 418.309 1060.99 419.539 1060.99 419.539C1060.99 419.539 1056.15 408.623 1053.11 402.595C1049.47 395.381 1045.07 386.712 1036.22 377.806C1028.93 370.462 1023.51 366.689 1014.48 361.624C1005.28 356.46 999.073 354.135 988.708 352.151C978.164 350.133 963.172 351.237 963.172 351.237C963.172 351.237 967.186 360.265 970.452 365.665C976.344 375.407 980.652 380.378 988.84 388.287C996.629 395.81 1001.1 399.249 1010.58 404.469Z" fill="#FEF2DC"/>
<path d="M957.971 469.269C974.818 461.828 983.187 455.464 997.585 443.98C1004.14 438.751 1013.92 428.605 1013.92 428.605C1013.92 428.605 998.649 424.959 989.924 423.331C979.483 421.383 966.916 419.066 950.554 421.211C937.061 422.979 928.799 425.632 916.306 431.028C903.571 436.53 896.192 441.161 885.854 450.411C875.337 459.821 864.537 476.369 864.537 476.369C864.537 476.369 877.173 479.373 885.421 480.265C900.299 481.876 908.929 481.338 923.724 479.087C937.796 476.946 944.951 475.021 957.971 469.269Z" fill="#FEF2DC"/>
<circle cx="999.981" cy="467.913" r="8.15992" transform="rotate(-90 999.981 467.913)" fill="#FEF2DC"/>
<circle cx="1058.46" cy="383.594" r="8.15992" transform="rotate(-90 1058.46 383.594)" fill="#FEF2DC"/>
<path d="M636.686 75.6664C675.08 69.4373 734.007 56.0379 734.007 56.0379L742.134 64.9415C742.134 64.9415 700.267 73.5627 673.126 78.2999C636.656 84.6651 601.106 91.3511 564.24 94.4762C529.927 97.3849 523.455 97.8049 488.359 97.9315C470.324 97.9966 434.117 97.107 400.152 92.2108C372.376 88.2068 351.759 84.1312 333.111 78.6757C314.463 73.2202 286.636 63.2319 286.636 63.2319L293.074 59.4611L299.511 55.6904C299.511 55.6904 324.316 65.359 341.677 70.0441C364.791 76.282 377.949 79.1327 403.044 82.6708C434.573 87.1159 453.97 88.4157 487.161 88.9368C516.456 89.3968 533.347 88.1544 563.041 85.4815C591.892 82.8845 608.067 80.3096 636.686 75.6664Z" fill="#FEF2DC"/>
<path d="M627.544 101.741C610.125 95.7589 599.66 94.7449 581.292 93.3935C572.93 92.7783 558.864 93.5849 558.864 93.5849C558.864 93.5849 567.592 106.63 572.89 113.751C579.23 122.274 586.879 132.51 600.344 142.05C611.448 149.917 619.313 153.582 632.147 158.107C645.23 162.72 653.791 164.333 667.662 164.566C681.772 164.804 700.938 159.995 700.938 159.995C700.938 159.995 693.706 149.208 688.259 142.95C678.433 131.662 671.734 126.195 659.347 117.798C647.565 109.81 641.006 106.363 627.544 101.741Z" fill="#FEF2DC"/>
<path d="M688.855 36.5772C677.044 50.7082 668.613 56.9901 653.594 67.6496C646.756 72.5026 634.302 79.0899 634.302 79.0899C634.302 79.0899 635.022 63.4101 635.871 54.5756C636.887 44.0025 638.137 31.2848 644.724 16.1546C650.156 3.67758 654.991 -3.52825 663.632 -14.0405C672.442 -24.7569 678.933 -30.5666 690.682 -37.9426C702.634 -45.4459 721.524 -51.247 721.524 -51.247C721.524 -51.247 720.915 -38.2739 719.492 -30.1008C716.923 -15.3572 714.019 -7.21319 707.764 6.38211C701.814 19.3126 697.984 25.6561 688.855 36.5772Z" fill="#FEF2DC"/>
<path d="M724.232 88.5343C711.957 81.7795 704.246 79.6547 690.657 76.2464C684.469 74.6946 673.822 73.4646 673.822 73.4646C673.822 73.4646 678.662 84.3802 681.704 90.408C685.344 97.622 689.742 106.292 698.589 115.198C705.885 122.542 711.302 126.314 720.331 131.38C729.534 136.543 735.74 138.869 746.105 140.853C756.649 142.871 771.641 141.766 771.641 141.766C771.641 141.766 767.627 132.738 764.361 127.338C758.469 117.597 754.162 112.626 745.973 104.716C738.185 97.1937 733.718 93.7548 724.232 88.5343Z" fill="#FEF2DC"/>
<path d="M570.751 77.6077C558.888 85.0619 551.313 87.6295 537.943 91.819C531.856 93.7263 521.298 95.5708 521.298 95.5708C521.298 95.5708 525.498 84.3932 528.186 78.1994C531.402 70.7867 535.29 61.8769 543.607 52.4738C550.466 44.7195 555.655 40.6395 564.375 35.0602C573.265 29.3725 579.326 26.6915 589.558 24.1108C599.968 21.4856 614.999 21.7201 614.999 21.7201C614.999 21.7201 611.514 30.9652 608.566 36.5455C603.248 46.6119 599.236 51.8238 591.518 60.194C584.179 68.1549 579.919 71.8467 570.751 77.6077Z" fill="#FEF2DC"/>
<path d="M776.842 23.733C759.995 31.1746 751.626 37.5385 737.228 49.0228C730.672 54.2513 720.897 64.3977 720.897 64.3977C720.897 64.3977 736.164 68.0433 744.889 69.6712C755.33 71.6195 767.897 73.9365 784.259 71.7917C797.752 70.0231 806.014 67.3704 818.507 61.974C831.242 56.4728 838.621 51.8417 848.959 42.5915C859.476 33.1817 870.276 16.6335 870.276 16.6335C870.276 16.6335 857.64 13.6297 849.392 12.737C834.514 11.1266 825.884 11.6645 811.089 13.9154C797.017 16.0563 789.862 17.9818 776.842 23.733Z" fill="#FEF2DC"/>
<circle cx="734.831" cy="25.0911" r="8.15992" transform="rotate(90 734.831 25.0911)" fill="#FEF2DC"/>
<circle cx="513.154" cy="67.2498" r="8.15992" transform="rotate(90 513.154 67.2498)" fill="#FEF2DC"/>
<circle cx="676.351" cy="109.409" r="8.15992" transform="rotate(90 676.351 109.409)" fill="#FEF2DC"/>
<path d="M277.94 -14.663C239.546 -8.43387 180.619 4.96548 180.619 4.96548L172.492 -3.93811C172.492 -3.93811 214.36 -12.5593 241.501 -17.2965C277.97 -23.6617 313.52 -30.3477 350.387 -33.4728C384.699 -36.3814 391.172 -36.8015 426.267 -36.9281C444.303 -36.9931 480.51 -36.1036 514.475 -31.2074C542.251 -27.2033 562.868 -23.1278 581.515 -17.6723C600.163 -12.2168 627.99 -2.22846 627.99 -2.22846L621.553 1.5423L615.115 5.31306C615.115 5.31306 590.31 -4.35556 572.95 -9.04065C549.835 -15.2786 536.677 -18.1293 511.582 -21.6674C480.054 -26.1125 460.656 -27.4123 427.466 -27.9334C398.17 -28.3934 381.28 -27.151 351.585 -24.4781C322.735 -21.8811 306.56 -19.3062 277.94 -14.663Z" fill="#FEF2DC"/>
<path d="M225.771 24.4262C237.582 10.2952 246.013 4.01334 261.032 -6.64614C267.87 -11.4991 280.324 -18.0865 280.324 -18.0865C280.324 -18.0865 279.604 -2.4067 278.755 6.42781C277.739 17.0009 276.489 29.7187 269.902 44.8489C264.47 57.3258 259.635 64.5317 250.994 75.0439C242.184 85.7603 235.693 91.5701 223.944 98.946C211.992 106.449 193.102 112.25 193.102 112.25C193.102 112.25 193.711 99.2773 195.134 91.1042C197.702 76.3607 200.607 68.2166 206.862 54.6213C212.812 41.6908 216.642 35.3473 225.771 24.4262Z" fill="#FEF2DC"/>
<path d="M343.876 -16.6043C355.739 -24.0585 363.314 -26.6261 376.684 -30.8155C382.771 -32.7229 393.329 -34.5674 393.329 -34.5674C393.329 -34.5674 389.129 -23.3897 386.441 -17.196C383.225 -9.78331 379.337 -0.873492 371.02 8.52967C364.161 16.2839 358.972 20.3639 350.252 25.9432C341.362 31.631 335.301 34.3119 325.069 36.8926C314.659 39.5179 299.628 39.2833 299.628 39.2833C299.628 39.2833 303.113 30.0382 306.061 24.4579C311.379 14.3915 315.391 9.17961 323.108 0.809413C330.448 -7.15151 334.708 -10.8433 343.876 -16.6043Z" fill="#FEF2DC"/>
<path d="M137.785 37.2694C154.632 29.8278 163.001 23.4639 177.399 11.9796C183.954 6.75112 193.73 -3.3953 193.73 -3.3953C193.73 -3.3953 178.463 -7.04089 169.738 -8.66877C159.297 -10.617 146.73 -12.9341 130.368 -10.7893C116.875 -9.02064 108.613 -6.36793 96.1203 -0.971575C83.3852 4.5296 76.0063 9.16072 65.6681 18.4109C55.1514 27.8207 44.3512 44.369 44.3512 44.369C44.3512 44.369 56.9865 47.3727 65.2345 48.2655C80.1131 49.8759 88.7427 49.3379 103.538 47.087C117.61 44.9462 124.765 43.0207 137.785 37.2694Z" fill="#FEF2DC"/>
<circle cx="179.795" cy="35.9133" r="8.15992" transform="rotate(-90 179.795 35.9133)" fill="#FEF2DC"/>
<circle cx="401.473" cy="-6.24683" r="8.15992" transform="rotate(-90 401.473 -6.24683)" fill="#FEF2DC"/>
<path d="M-64.1582 23.7355C-81.0051 31.1771 -89.374 37.541 -103.772 49.0253C-110.327 54.2538 -120.103 64.4002 -120.103 64.4002C-120.103 64.4002 -104.836 68.0458 -96.1111 69.6737C-85.6695 71.6219 -73.1023 73.9389 -56.7403 71.7942C-43.2476 70.0255 -34.9855 67.3728 -22.4931 61.9765C-9.75796 56.4753 -2.37915 51.8442 7.95911 42.594C18.4758 33.1841 29.276 16.6359 29.276 16.6359C29.276 16.6359 16.6407 13.6322 8.39272 12.7394C-6.48594 11.129 -15.1155 11.667 -29.9109 13.9179C-43.9827 16.0587 -51.1381 17.9842 -64.1582 23.7355Z" fill="#FEF2DC"/>
<path d="M1118.94 -14.661C1080.55 -8.43191 1021.62 4.96743 1021.62 4.96743L1013.49 -3.93615C1013.49 -3.93615 1055.36 -12.5573 1082.5 -17.2945C1118.97 -23.6597 1154.52 -30.3458 1191.39 -33.4708C1225.7 -36.3795 1232.17 -36.7995 1267.27 -36.9261C1285.3 -36.9912 1321.51 -36.1016 1355.47 -31.2054C1383.25 -27.2014 1403.87 -23.1258 1422.51 -17.6703C1441.16 -12.2148 1468.99 -2.22651 1468.99 -2.22651L1462.55 1.54425L1456.11 5.31501C1456.11 5.31501 1431.31 -4.35361 1413.95 -9.0387C1390.83 -15.2767 1377.68 -18.1274 1352.58 -21.6654C1321.05 -26.1105 1301.66 -27.4103 1268.47 -27.9314C1239.17 -28.3914 1222.28 -27.1491 1192.58 -24.4761C1163.73 -21.8792 1147.56 -19.3043 1118.94 -14.661Z" fill="#FEF2DC"/>
<path d="M1066.77 24.4281C1078.58 10.2972 1087.01 4.01529 1102.03 -6.64419C1108.87 -11.4972 1121.32 -18.0846 1121.32 -18.0846C1121.32 -18.0846 1120.6 -2.40475 1119.75 6.42976C1118.74 17.0029 1117.49 29.7206 1110.9 44.8508C1105.47 57.3278 1100.63 64.5336 1091.99 75.0458C1083.18 85.7622 1076.69 91.572 1064.94 98.948C1052.99 106.451 1034.1 112.252 1034.1 112.252C1034.1 112.252 1034.71 99.2792 1036.13 91.1062C1038.7 76.3626 1041.61 68.2186 1047.86 54.6233C1053.81 41.6927 1057.64 35.3493 1066.77 24.4281Z" fill="#FEF2DC"/>
<path d="M978.785 37.2714C995.632 29.8298 1004 23.4659 1018.4 11.9816C1024.95 6.75307 1034.73 -3.39334 1034.73 -3.39334C1034.73 -3.39334 1019.46 -7.03894 1010.74 -8.66682C1000.3 -10.6151 987.729 -12.9321 971.367 -10.7873C957.874 -9.01868 949.612 -6.36598 937.12 -0.969622C924.385 4.53155 917.006 9.16268 906.668 18.4129C896.151 27.8227 885.351 44.3709 885.351 44.3709C885.351 44.3709 897.986 47.3747 906.234 48.2674C921.113 49.8778 929.742 49.3399 944.538 47.089C958.609 44.9481 965.765 43.0226 978.785 37.2714Z" fill="#FEF2DC"/>
<circle cx="1020.79" cy="35.9153" r="8.15992" transform="rotate(-90 1020.79 35.9153)" fill="#FEF2DC"/>
<path d="M598.873 937.662C637.267 931.433 696.194 918.034 696.194 918.034L704.321 926.937C704.321 926.937 662.453 935.558 635.312 940.295C598.843 946.661 563.293 953.347 526.426 956.472C492.114 959.38 485.641 959.801 450.546 959.927C432.51 959.992 396.303 959.103 362.338 954.206C334.562 950.202 313.945 946.127 295.298 940.671C276.65 935.216 248.823 925.227 248.823 925.227L255.26 921.457L261.698 917.686C261.698 917.686 286.503 927.355 303.863 932.04C326.978 938.278 340.136 941.128 365.231 944.666C396.759 949.111 416.157 950.411 449.347 950.932C478.643 951.392 495.533 950.15 525.228 947.477C554.078 944.88 570.253 942.305 598.873 937.662Z" fill="#FEF2DC"/>
<path d="M651.042 898.573C639.23 912.704 630.8 918.986 615.781 929.645C608.943 934.498 596.488 941.086 596.488 941.086C596.488 941.086 597.208 925.406 598.057 916.571C599.073 905.998 600.323 893.28 606.91 878.15C612.343 865.673 617.177 858.467 625.819 847.955C634.628 837.239 641.12 831.429 652.869 824.053C664.821 816.55 683.711 810.749 683.711 810.749C683.711 810.749 683.102 823.722 681.678 831.895C679.11 846.638 676.206 854.782 669.95 868.378C664 881.308 660.17 887.652 651.042 898.573Z" fill="#FEF2DC"/>
<path d="M532.937 939.603C521.074 947.057 513.499 949.625 500.13 953.815C494.043 955.722 483.484 957.566 483.484 957.566C483.484 957.566 487.685 946.389 490.372 940.195C493.588 932.782 497.477 923.873 505.794 914.469C512.653 906.715 517.842 902.635 526.562 897.056C535.451 891.368 541.512 888.687 551.745 886.106C562.154 883.481 577.185 883.716 577.185 883.716C577.185 883.716 573.701 892.961 570.753 898.541C565.435 908.607 561.422 913.819 553.705 922.19C546.365 930.151 542.105 933.842 532.937 939.603Z" fill="#FEF2DC"/>
<path d="M739.028 885.729C722.181 893.17 713.812 899.534 699.414 911.018C692.859 916.247 683.083 926.393 683.083 926.393C683.083 926.393 698.351 930.039 707.075 931.667C717.517 933.615 730.084 935.932 746.446 933.787C759.939 932.019 768.201 929.366 780.693 923.97C793.428 918.468 800.807 913.837 811.145 904.587C821.662 895.177 832.462 878.629 832.462 878.629C832.462 878.629 819.827 875.625 811.579 874.733C796.7 873.122 788.071 873.66 773.275 875.911C759.204 878.052 752.048 879.977 739.028 885.729Z" fill="#FEF2DC"/>
<circle cx="697.017" cy="887.087" r="8.15992" transform="rotate(90 697.017 887.087)" fill="#FEF2DC"/>
<circle cx="475.34" cy="929.245" r="8.15992" transform="rotate(90 475.34 929.245)" fill="#FEF2DC"/>
<path d="M240.126 847.334C201.732 853.563 142.805 866.962 142.805 866.962L134.678 858.058C134.678 858.058 176.546 849.437 203.687 844.7C240.156 838.335 275.706 831.649 312.573 828.524C346.885 825.615 353.358 825.195 388.453 825.068C406.489 825.003 442.696 825.893 476.661 830.789C504.437 834.793 525.054 838.869 543.701 844.324C562.349 849.78 590.176 859.768 590.176 859.768L583.739 863.539L577.301 867.31C577.301 867.31 552.496 857.641 535.136 852.956C512.021 846.718 498.863 843.867 473.768 840.329C442.24 835.884 422.842 834.584 389.652 834.063C360.356 833.603 343.466 834.846 313.771 837.518C284.921 840.115 268.746 842.69 240.126 847.334Z" fill="#FEF2DC"/>
<path d="M249.269 821.26C266.687 827.242 277.152 828.256 295.52 829.607C303.882 830.222 317.948 829.416 317.948 829.416C317.948 829.416 309.22 816.37 303.923 809.249C297.583 800.727 289.933 790.49 276.468 780.95C265.364 773.084 257.499 769.419 244.665 764.894C231.582 760.281 223.021 758.668 209.15 758.434C195.04 758.197 175.874 763.006 175.874 763.006C175.874 763.006 183.107 773.793 188.554 780.05C198.379 791.339 205.078 796.805 217.466 805.203C229.247 813.19 235.807 816.637 249.269 821.26Z" fill="#FEF2DC"/>
<path d="M187.957 886.423C199.768 872.292 208.199 866.01 223.218 855.35C230.056 850.497 242.51 843.91 242.51 843.91C242.51 843.91 241.79 859.59 240.941 868.424C239.925 878.997 238.675 891.715 232.088 906.845C226.656 919.322 221.821 926.528 213.18 937.04C204.37 947.757 197.879 953.567 186.13 960.943C174.178 968.446 155.288 974.247 155.288 974.247C155.288 974.247 155.897 961.274 157.32 953.101C159.889 938.357 162.793 930.213 169.048 916.618C174.998 903.687 178.828 897.344 187.957 886.423Z" fill="#FEF2DC"/>
<path d="M152.582 834.466C164.856 841.221 172.567 843.345 186.157 846.754C192.344 848.305 202.991 849.535 202.991 849.535C202.991 849.535 198.151 838.62 195.11 832.592C191.47 825.378 187.072 816.708 178.224 807.802C170.928 800.458 165.511 796.686 156.483 791.62C147.279 786.457 141.073 784.131 130.708 782.147C120.164 780.129 105.172 781.234 105.172 781.234C105.172 781.234 109.186 790.262 112.452 795.662C118.344 805.403 122.652 810.374 130.84 818.284C138.629 825.806 143.095 829.245 152.582 834.466Z" fill="#FEF2DC"/>
<path d="M306.062 845.392C317.925 837.938 325.5 835.371 338.87 831.181C344.957 829.274 355.515 827.429 355.515 827.429C355.515 827.429 351.315 838.607 348.627 844.801C345.411 852.213 341.523 861.123 333.206 870.526C326.347 878.28 321.158 882.36 312.438 887.94C303.548 893.628 297.487 896.309 287.255 898.889C276.845 901.514 261.814 901.28 261.814 901.28C261.814 901.28 265.299 892.035 268.247 886.455C273.565 876.388 277.577 871.176 285.295 862.806C292.634 854.845 296.894 851.153 306.062 845.392Z" fill="#FEF2DC"/>
<path d="M99.9714 899.266C116.818 891.824 125.187 885.46 139.585 873.976C146.141 868.748 155.916 858.601 155.916 858.601C155.916 858.601 140.649 854.956 131.924 853.328C121.483 851.38 108.916 849.063 92.5536 851.207C79.0608 852.976 70.7988 855.629 58.3063 861.025C45.5712 866.526 38.1924 871.157 27.8541 880.408C17.3375 889.817 6.53725 906.366 6.53725 906.366C6.53725 906.366 19.1725 909.369 27.4205 910.262C42.2992 911.872 50.9288 911.335 65.7241 909.084C79.7959 906.943 86.9513 905.017 99.9714 899.266Z" fill="#FEF2DC"/>
<circle cx="141.981" cy="897.91" r="8.15992" transform="rotate(-90 141.981 897.91)" fill="#FEF2DC"/>
<circle cx="363.659" cy="855.75" r="8.15992" transform="rotate(-90 363.659 855.75)" fill="#FEF2DC"/>
<circle cx="200.461" cy="813.591" r="8.15992" transform="rotate(-90 200.461 813.591)" fill="#FEF2DC"/>
<path d="M1439.87 937.662C1478.27 931.433 1537.19 918.034 1537.19 918.034L1545.32 926.937C1545.32 926.937 1503.45 935.558 1476.31 940.295C1439.84 946.661 1404.29 953.347 1367.43 956.472C1333.11 959.38 1326.64 959.801 1291.55 959.927C1273.51 959.992 1237.3 959.103 1203.34 954.206C1175.56 950.202 1154.95 946.127 1136.3 940.671C1117.65 935.216 1089.82 925.227 1089.82 925.227L1096.26 921.457L1102.7 917.686C1102.7 917.686 1127.5 927.355 1144.86 932.04C1167.98 938.278 1181.14 941.128 1206.23 944.666C1237.76 949.111 1257.16 950.411 1290.35 950.932C1319.64 951.392 1336.53 950.15 1366.23 947.477C1395.08 944.88 1411.25 942.305 1439.87 937.662Z" fill="#FEF2DC"/>
<path d="M1081.13 847.334C1042.73 853.563 983.805 866.962 983.805 866.962L975.678 858.058C975.678 858.058 1017.55 849.437 1044.69 844.7C1081.16 838.335 1116.71 831.649 1153.57 828.524C1187.89 825.615 1194.36 825.195 1229.45 825.068C1247.49 825.003 1283.7 825.893 1317.66 830.789C1345.44 834.793 1366.05 838.869 1384.7 844.324C1403.35 849.78 1431.18 859.768 1431.18 859.768L1424.74 863.539L1418.3 867.31C1418.3 867.31 1393.5 857.641 1376.14 852.956C1353.02 846.718 1339.86 843.867 1314.77 840.329C1283.24 835.884 1263.84 834.584 1230.65 834.063C1201.36 833.603 1184.47 834.846 1154.77 837.518C1125.92 840.115 1109.75 842.69 1081.13 847.334Z" fill="#FEF2DC"/>
<path d="M1090.27 821.26C1107.69 827.242 1118.15 828.256 1136.52 829.607C1144.88 830.222 1158.95 829.416 1158.95 829.416C1158.95 829.416 1150.22 816.37 1144.92 809.249C1138.58 800.727 1130.93 790.49 1117.47 780.95C1106.36 773.084 1098.5 769.419 1085.66 764.894C1072.58 760.281 1064.02 758.668 1050.15 758.434C1036.04 758.197 1016.87 763.006 1016.87 763.006C1016.87 763.006 1024.11 773.793 1029.55 780.05C1039.38 791.339 1046.08 796.805 1058.47 805.203C1070.25 813.19 1076.81 816.637 1090.27 821.26Z" fill="#FEF2DC"/>
<path d="M1028.96 886.423C1040.77 872.292 1049.2 866.01 1064.22 855.35C1071.06 850.497 1083.51 843.91 1083.51 843.91C1083.51 843.91 1082.79 859.59 1081.94 868.424C1080.93 878.997 1079.68 891.715 1073.09 906.845C1067.66 919.322 1062.82 926.528 1054.18 937.04C1045.37 947.757 1038.88 953.567 1027.13 960.943C1015.18 968.446 996.288 974.247 996.288 974.247C996.288 974.247 996.897 961.274 998.32 953.101C1000.89 938.357 1003.79 930.213 1010.05 916.618C1016 903.687 1019.83 897.344 1028.96 886.423Z" fill="#FEF2DC"/>
<path d="M993.582 834.466C1005.86 841.221 1013.57 843.345 1027.16 846.754C1033.34 848.305 1043.99 849.535 1043.99 849.535C1043.99 849.535 1039.15 838.62 1036.11 832.592C1032.47 825.378 1028.07 816.708 1019.22 807.802C1011.93 800.458 1006.51 796.686 997.483 791.62C988.279 786.457 982.073 784.131 971.708 782.147C961.164 780.129 946.172 781.234 946.172 781.234C946.172 781.234 950.186 790.262 953.452 795.662C959.344 805.403 963.652 810.374 971.84 818.284C979.629 825.806 984.095 829.245 993.582 834.466Z" fill="#FEF2DC"/>
<path d="M1147.06 845.392C1158.93 837.938 1166.5 835.371 1179.87 831.181C1185.96 829.274 1196.52 827.429 1196.52 827.429C1196.52 827.429 1192.31 838.607 1189.63 844.801C1186.41 852.213 1182.52 861.123 1174.21 870.526C1167.35 878.28 1162.16 882.36 1153.44 887.94C1144.55 893.628 1138.49 896.309 1128.25 898.889C1117.85 901.514 1102.81 901.28 1102.81 901.28C1102.81 901.28 1106.3 892.035 1109.25 886.455C1114.56 876.388 1118.58 871.176 1126.29 862.806C1133.63 854.845 1137.89 851.153 1147.06 845.392Z" fill="#FEF2DC"/>
<path d="M940.971 899.266C957.818 891.824 966.187 885.46 980.585 873.976C987.141 868.748 996.916 858.601 996.916 858.601C996.916 858.601 981.649 854.956 972.924 853.328C962.483 851.38 949.916 849.063 933.554 851.207C920.061 852.976 911.799 855.629 899.306 861.025C886.571 866.526 879.192 871.157 868.854 880.408C858.337 889.817 847.537 906.366 847.537 906.366C847.537 906.366 860.173 909.369 868.421 910.262C883.299 911.872 891.929 911.335 906.724 909.084C920.796 906.943 927.951 905.017 940.971 899.266Z" fill="#FEF2DC"/>
<circle cx="982.981" cy="897.91" r="8.15992" transform="rotate(-90 982.981 897.91)" fill="#FEF2DC"/>
<circle cx="1041.46" cy="813.591" r="8.15992" transform="rotate(-90 1041.46 813.591)" fill="#FEF2DC"/>
</g>
<defs>
<clipPath id="clip0_229_3650">
<rect width="1103" height="923" fill="white"/>
</clipPath>
</defs>
</svg>
