<svg width="1103" height="923" viewBox="0 0 1103 923" fill="none" xmlns="http://www.w3.org/2000/svg">
<g clip-path="url(#clip0_336_4022)">
<rect width="1103" height="923" fill="#DAF1FD"/>
<path d="M615.873 507.665C654.267 501.436 713.194 488.037 713.194 488.037L721.321 496.941C721.321 496.941 679.454 505.562 652.313 510.299C615.843 516.664 580.293 523.35 543.427 526.475C509.114 529.384 502.642 529.804 467.546 529.931C449.511 529.996 413.304 529.106 379.339 524.21C351.563 520.206 330.946 516.13 312.298 510.675C293.65 505.219 265.823 495.231 265.823 495.231L272.261 491.46L278.698 487.689C278.698 487.689 303.503 497.358 320.864 502.043C343.978 508.281 357.136 511.132 382.231 514.67C413.76 519.115 433.157 520.415 466.348 520.936C495.643 521.396 512.534 520.153 542.228 517.481C571.079 514.884 587.254 512.309 615.873 507.665Z" fill="#C5E9FB"/>
<path d="M606.731 533.74C589.312 527.758 578.847 526.744 560.479 525.393C552.117 524.777 538.051 525.584 538.051 525.584C538.051 525.584 546.779 538.63 552.077 545.75C558.417 554.273 566.066 564.509 579.531 574.049C590.635 581.916 598.5 585.581 611.334 590.106C624.417 594.719 632.978 596.332 646.849 596.565C660.959 596.803 680.126 591.994 680.126 591.994C680.126 591.994 672.893 581.207 667.446 574.949C657.62 563.661 650.921 558.194 638.534 549.797C626.752 541.81 620.193 538.362 606.731 533.74Z" fill="#C5E9FB"/>
<path d="M668.042 468.576C656.231 482.707 647.8 488.989 632.781 499.649C625.943 504.502 613.489 511.089 613.489 511.089C613.489 511.089 614.209 495.409 615.058 486.575C616.074 476.002 617.324 463.284 623.911 448.154C629.343 435.677 634.178 428.471 642.819 417.959C651.629 407.242 658.12 401.432 669.869 394.056C681.821 386.553 700.711 380.752 700.711 380.752C700.711 380.752 700.102 393.725 698.679 401.898C696.11 416.642 693.206 424.786 686.951 438.381C681.001 451.312 677.171 457.655 668.042 468.576Z" fill="#C5E9FB"/>
<path d="M703.419 520.533C691.144 513.778 683.433 511.654 669.844 508.245C663.657 506.694 653.009 505.464 653.009 505.464C653.009 505.464 657.849 516.379 660.891 522.407C664.531 529.621 668.929 538.291 677.776 547.197C685.072 554.541 690.489 558.313 699.518 563.379C708.721 568.542 714.927 570.868 725.292 572.852C735.836 574.87 750.828 573.765 750.828 573.765C750.828 573.765 746.814 564.737 743.548 559.337C737.656 549.596 733.349 544.625 725.16 536.715C717.372 529.193 712.905 525.754 703.419 520.533Z" fill="#C5E9FB"/>
<path d="M549.938 509.607C538.075 517.061 530.5 519.629 517.13 523.818C511.043 525.725 500.485 527.57 500.485 527.57C500.485 527.57 504.685 516.392 507.373 510.198C510.589 502.786 514.477 493.876 522.794 484.473C529.653 476.719 534.842 472.639 543.562 467.059C552.452 461.371 558.513 458.691 568.745 456.11C579.155 453.485 594.186 453.719 594.186 453.719C594.186 453.719 590.701 462.964 587.753 468.545C582.435 478.611 578.423 483.823 570.705 492.193C563.366 500.154 559.106 503.846 549.938 509.607Z" fill="#C5E9FB"/>
<path d="M756.029 455.732C739.182 463.174 730.813 469.538 716.415 481.022C709.859 486.25 700.084 496.397 700.084 496.397C700.084 496.397 715.351 500.042 724.076 501.67C734.517 503.618 747.084 505.936 763.446 503.791C776.939 502.022 785.201 499.369 797.694 493.973C810.429 488.472 817.808 483.841 828.146 474.591C838.663 465.181 849.463 448.632 849.463 448.632C849.463 448.632 836.827 445.629 828.579 444.736C813.701 443.126 805.071 443.664 790.276 445.914C776.204 448.055 769.049 449.981 756.029 455.732Z" fill="#C5E9FB"/>
<circle cx="714.018" cy="457.09" r="8.15992" transform="rotate(90 714.018 457.09)" fill="#C5E9FB"/>
<circle cx="492.341" cy="499.249" r="8.15992" transform="rotate(90 492.341 499.249)" fill="#C5E9FB"/>
<circle cx="655.538" cy="541.408" r="8.15992" transform="rotate(90 655.538 541.408)" fill="#C5E9FB"/>
<path d="M257.127 417.337C218.733 423.566 159.806 436.965 159.806 436.965L151.679 428.062C151.679 428.062 193.546 419.441 220.687 414.704C257.157 408.338 292.707 401.652 329.573 398.527C363.886 395.619 370.358 395.199 405.454 395.072C423.489 395.007 459.696 395.896 493.661 400.793C521.437 404.797 542.054 408.872 560.702 414.328C579.35 419.783 607.177 429.772 607.177 429.772L600.739 433.542L594.302 437.313C594.302 437.313 569.497 427.644 552.136 422.959C529.022 416.721 515.864 413.871 490.769 410.333C459.24 405.888 439.843 404.588 406.652 404.067C377.357 403.607 360.466 404.849 330.772 407.522C301.921 410.119 285.746 412.694 257.127 417.337Z" fill="#C5E9FB"/>
<path d="M266.269 391.263C283.688 397.245 294.152 398.259 312.52 399.61C320.882 400.226 334.949 399.419 334.949 399.419C334.949 399.419 326.22 386.373 320.923 379.253C314.583 370.73 306.933 360.494 293.468 350.954C282.365 343.087 274.499 339.422 261.665 334.897C248.582 330.284 240.021 328.671 226.151 328.438C212.041 328.2 192.874 333.009 192.874 333.009C192.874 333.009 200.107 343.796 205.554 350.054C215.38 361.342 222.078 366.809 234.466 375.206C246.247 383.193 252.807 386.64 266.269 391.263Z" fill="#C5E9FB"/>
<path d="M204.957 456.426C216.769 442.295 225.199 436.013 240.218 425.354C247.056 420.501 259.511 413.913 259.511 413.913C259.511 413.913 258.791 429.593 257.942 438.428C256.926 449.001 255.676 461.719 249.089 476.849C243.656 489.326 238.822 496.532 230.18 507.044C221.371 517.76 214.879 523.57 203.13 530.946C191.178 538.449 172.288 544.25 172.288 544.25C172.288 544.25 172.897 531.277 174.321 523.104C176.889 508.361 179.793 500.217 186.049 486.621C191.999 473.691 195.829 467.347 204.957 456.426Z" fill="#C5E9FB"/>
<path d="M169.582 404.469C181.857 411.224 189.568 413.349 203.157 416.757C209.344 418.309 219.992 419.539 219.992 419.539C219.992 419.539 215.152 408.623 212.11 402.595C208.47 395.381 204.072 386.712 195.225 377.806C187.929 370.462 182.512 366.689 173.483 361.624C164.28 356.46 158.074 354.135 147.709 352.151C137.165 350.133 122.173 351.237 122.173 351.237C122.173 351.237 126.187 360.265 129.453 365.665C135.345 375.407 139.652 380.378 147.841 388.287C155.629 395.81 160.096 399.249 169.582 404.469Z" fill="#C5E9FB"/>
<path d="M323.063 415.396C334.926 407.942 342.501 405.374 355.87 401.184C361.957 399.277 372.516 397.433 372.516 397.433C372.516 397.433 368.315 408.61 365.628 414.804C362.412 422.217 358.523 431.127 350.206 440.53C343.347 448.284 338.158 452.364 329.438 457.943C320.549 463.631 314.488 466.312 304.255 468.893C293.846 471.518 278.815 471.283 278.815 471.283C278.815 471.283 282.299 462.038 285.247 456.458C290.565 446.392 294.578 441.18 302.295 432.809C309.635 424.848 313.895 421.157 323.063 415.396Z" fill="#C5E9FB"/>
<path d="M116.972 469.269C133.819 461.828 142.188 455.464 156.586 443.98C163.141 438.751 172.917 428.605 172.917 428.605C172.917 428.605 157.649 424.959 148.925 423.331C138.483 421.383 125.916 419.066 109.554 421.211C96.0613 422.979 87.7993 425.632 75.3068 431.028C62.5717 436.53 55.1929 441.161 44.8546 450.411C34.3379 459.821 23.5377 476.369 23.5377 476.369C23.5377 476.369 36.173 479.373 44.421 480.265C59.2997 481.876 67.9293 481.338 82.7246 479.087C96.7964 476.946 103.952 475.021 116.972 469.269Z" fill="#C5E9FB"/>
<circle cx="158.982" cy="467.913" r="8.15992" transform="rotate(-90 158.982 467.913)" fill="#C5E9FB"/>
<circle cx="380.659" cy="425.753" r="8.15992" transform="rotate(-90 380.659 425.753)" fill="#C5E9FB"/>
<circle cx="217.461" cy="383.594" r="8.15992" transform="rotate(-90 217.461 383.594)" fill="#C5E9FB"/>
<path d="M-84.9714 455.732C-101.818 463.174 -110.187 469.538 -124.585 481.022C-131.141 486.25 -140.916 496.397 -140.916 496.397C-140.916 496.397 -125.649 500.042 -116.924 501.67C-106.483 503.618 -93.9155 505.936 -77.5536 503.791C-64.0608 502.022 -55.7988 499.369 -43.3063 493.973C-30.5712 488.472 -23.1924 483.841 -12.8541 474.591C-2.33745 465.181 8.46275 448.632 8.46275 448.632C8.46275 448.632 -4.17252 445.629 -12.4205 444.736C-27.2992 443.126 -35.9288 443.664 -50.7241 445.914C-64.7959 448.055 -71.9513 449.981 -84.9714 455.732Z" fill="#C5E9FB"/>
<path d="M-335.5 289.665C-373.894 283.436 -432.821 270.037 -432.821 270.037L-440.948 278.941C-440.948 278.941 -399.08 287.562 -371.939 292.299C-335.47 298.664 -299.92 305.35 -263.053 308.475C-228.741 311.384 -222.268 311.804 -187.173 311.931C-169.137 311.996 -132.93 311.106 -98.9653 306.21C-71.1893 302.206 -50.5724 298.13 -31.9245 292.675C-13.2766 287.219 14.5504 277.231 14.5504 277.231L8.11286 273.46L1.67531 269.689C1.67531 269.689 -23.1299 279.358 -40.4902 284.043C-63.6047 290.281 -76.7629 293.132 -101.858 296.67C-133.386 301.115 -152.784 302.415 -185.974 302.936C-215.27 303.396 -232.16 302.153 -261.855 299.481C-290.705 296.884 -306.88 294.309 -335.5 289.665Z" fill="#C5E9FB"/>
<path d="M23.2466 199.337C61.6407 205.566 120.568 218.965 120.568 218.965L128.695 210.062C128.695 210.062 86.8274 201.441 59.6861 196.704C23.2169 190.338 -12.3333 183.652 -49.1995 180.527C-83.5123 177.619 -89.9847 177.199 -125.08 177.072C-143.116 177.007 -179.323 177.896 -213.288 182.793C-241.064 186.797 -261.68 190.872 -280.328 196.328C-298.976 201.783 -326.803 211.772 -326.803 211.772L-320.366 215.542L-313.928 219.313C-313.928 219.313 -289.123 209.644 -271.763 204.959C-248.648 198.721 -235.49 195.871 -210.395 192.333C-178.867 187.888 -159.469 186.588 -126.279 186.067C-96.9833 185.607 -80.0925 186.849 -50.3983 189.522C-21.5475 192.119 -5.37286 194.694 23.2466 199.337Z" fill="#C5E9FB"/>
<path d="M14.1046 173.263C-3.3142 179.245 -13.7789 180.259 -32.1465 181.61C-40.5089 182.226 -54.5752 181.419 -54.5752 181.419C-54.5752 181.419 -45.8467 168.373 -40.5493 161.253C-34.2094 152.73 -26.56 142.494 -13.0949 132.954C-1.991 125.087 5.87445 121.422 18.7083 116.897C31.7914 112.284 40.3525 110.671 54.223 110.438C68.3329 110.2 87.4995 115.009 87.4995 115.009C87.4995 115.009 80.2666 125.796 74.8197 132.054C64.9939 143.342 58.2951 148.809 45.9077 157.206C34.126 165.193 27.5668 168.64 14.1046 173.263Z" fill="#C5E9FB"/>
<path d="M75.4164 238.426C63.6049 224.295 55.1743 218.013 40.1552 207.354C33.3174 202.501 20.8627 195.913 20.8627 195.913C20.8627 195.913 21.5827 211.593 22.4318 220.428C23.448 231.001 24.6978 243.719 31.285 258.849C36.7171 271.326 41.5518 278.532 50.1933 289.044C59.0026 299.76 65.4942 305.57 77.2433 312.946C89.1951 320.449 108.085 326.25 108.085 326.25C108.085 326.25 107.476 313.277 106.053 305.104C103.485 290.361 100.58 282.217 94.3246 268.621C88.3746 255.691 84.5449 249.347 75.4164 238.426Z" fill="#C5E9FB"/>
<path d="M110.791 186.469C98.5166 193.224 90.8058 195.349 77.2161 198.757C71.0291 200.309 60.3816 201.539 60.3816 201.539C60.3816 201.539 65.2219 190.623 68.2634 184.595C71.9035 177.381 76.3014 168.712 85.1489 159.806C92.4449 152.462 97.8618 148.689 106.89 143.624C116.094 138.46 122.3 136.135 132.665 134.151C143.209 132.133 158.201 133.237 158.201 133.237C158.201 133.237 154.187 142.265 150.921 147.665C145.029 157.407 140.721 162.378 132.533 170.287C124.744 177.81 120.278 181.249 110.791 186.469Z" fill="#C5E9FB"/>
<path d="M-42.6894 197.396C-54.5524 189.942 -62.1272 187.374 -75.4968 183.184C-81.5836 181.277 -92.142 179.433 -92.142 179.433C-92.142 179.433 -87.9418 190.61 -85.2544 196.804C-82.0381 204.217 -78.1495 213.127 -69.8325 222.53C-62.974 230.284 -57.7846 234.364 -49.0646 239.943C-40.1752 245.631 -34.1144 248.312 -23.8816 250.893C-13.4721 253.518 1.55871 253.283 1.55871 253.283C1.55871 253.283 -1.92586 244.038 -4.87391 238.458C-10.1919 228.392 -14.2044 223.18 -21.9215 214.809C-29.2612 206.848 -33.521 203.157 -42.6894 197.396Z" fill="#C5E9FB"/>
<path d="M163.402 251.269C146.555 243.828 138.186 237.464 123.788 225.98C117.233 220.751 107.457 210.605 107.457 210.605C107.457 210.605 122.724 206.959 131.449 205.331C141.89 203.383 154.458 201.066 170.819 203.211C184.312 204.979 192.574 207.632 205.067 213.028C217.802 218.53 225.181 223.161 235.519 232.411C246.036 241.821 256.836 258.369 256.836 258.369C256.836 258.369 244.201 261.373 235.953 262.265C221.074 263.876 212.444 263.338 197.649 261.087C183.577 258.946 176.422 257.021 163.402 251.269Z" fill="#C5E9FB"/>
<circle cx="8.15992" cy="8.15992" r="8.15992" transform="matrix(0 -1 -1 0 129.552 258.073)" fill="#C5E9FB"/>
<circle cx="8.15992" cy="8.15992" r="8.15992" transform="matrix(0 -1 -1 0 71.0723 173.754)" fill="#C5E9FB"/>
<path d="M863.873 199.338C902.267 205.567 961.194 218.966 961.194 218.966L969.321 210.062C969.321 210.062 927.454 201.441 900.313 196.704C863.843 190.339 828.293 183.653 791.427 180.528C757.114 177.619 750.642 177.199 715.546 177.072C697.511 177.007 661.304 177.897 627.339 182.793C599.563 186.797 578.946 190.873 560.298 196.328C541.65 201.784 513.823 211.772 513.823 211.772L520.261 215.543L526.698 219.314C526.698 219.314 551.503 209.645 568.864 204.96C591.978 198.722 605.136 195.871 630.231 192.333C661.76 187.888 681.157 186.588 714.348 186.067C743.643 185.607 760.534 186.849 790.228 189.522C819.079 192.119 835.254 194.694 863.873 199.338Z" fill="#C5E9FB"/>
<path d="M854.731 173.263C837.312 179.245 826.847 180.259 808.479 181.61C800.117 182.226 786.051 181.419 786.051 181.419C786.051 181.419 794.779 168.373 800.077 161.253C806.417 152.73 814.066 142.494 827.531 132.954C838.635 125.087 846.5 121.422 859.334 116.897C872.417 112.284 880.978 110.671 894.849 110.438C908.959 110.2 928.126 115.009 928.126 115.009C928.126 115.009 920.893 125.796 915.446 132.054C905.62 143.342 898.921 148.809 886.534 157.206C874.752 165.193 868.193 168.64 854.731 173.263Z" fill="#C5E9FB"/>
<path d="M916.042 238.427C904.231 224.296 895.8 218.014 880.781 207.354C873.943 202.501 861.489 195.914 861.489 195.914C861.489 195.914 862.209 211.594 863.058 220.428C864.074 231.001 865.324 243.719 871.911 258.849C877.343 271.326 882.178 278.532 890.819 289.044C899.629 299.761 906.12 305.571 917.869 312.947C929.821 320.45 948.711 326.251 948.711 326.251C948.711 326.251 948.102 313.278 946.679 305.105C944.11 290.361 941.206 282.217 934.951 268.622C929.001 255.691 925.171 249.348 916.042 238.427Z" fill="#C5E9FB"/>
<path d="M951.419 186.47C939.144 193.224 931.433 195.349 917.844 198.758C911.657 200.309 901.009 201.539 901.009 201.539C901.009 201.539 905.849 190.624 908.891 184.596C912.531 177.382 916.929 168.712 925.776 159.806C933.072 152.462 938.489 148.689 947.518 143.624C956.721 138.461 962.927 136.135 973.292 134.151C983.836 132.133 998.828 133.238 998.828 133.238C998.828 133.238 994.814 142.265 991.548 147.666C985.656 157.407 981.349 162.378 973.16 170.288C965.372 177.81 960.905 181.249 951.419 186.47Z" fill="#C5E9FB"/>
<path d="M797.938 197.396C786.075 189.942 778.5 187.374 765.13 183.185C759.043 181.278 748.485 179.433 748.485 179.433C748.485 179.433 752.685 190.611 755.373 196.805C758.589 204.217 762.477 213.127 770.794 222.53C777.653 230.284 782.842 234.364 791.562 239.944C800.452 245.631 806.513 248.312 816.745 250.893C827.155 253.518 842.186 253.284 842.186 253.284C842.186 253.284 838.701 244.039 835.753 238.458C830.435 228.392 826.423 223.18 818.705 214.81C811.366 206.849 807.106 203.157 797.938 197.396Z" fill="#C5E9FB"/>
<path d="M1004.03 251.271C987.182 243.829 978.813 237.465 964.415 225.981C957.859 220.753 948.084 210.606 948.084 210.606C948.084 210.606 963.351 206.961 972.076 205.333C982.517 203.384 995.084 201.067 1011.45 203.212C1024.94 204.981 1033.2 207.634 1045.69 213.03C1058.43 218.531 1065.81 223.162 1076.15 232.412C1086.66 241.822 1097.46 258.37 1097.46 258.37C1097.46 258.37 1084.83 261.374 1076.58 262.267C1061.7 263.877 1053.07 263.339 1038.28 261.088C1024.2 258.948 1017.05 257.022 1004.03 251.271Z" fill="#C5E9FB"/>
<circle cx="8.15992" cy="8.15992" r="8.15992" transform="matrix(0 -1 -1 0 970.178 258.073)" fill="#C5E9FB"/>
<circle cx="8.15992" cy="8.15992" r="8.15992" transform="matrix(0 -1 -1 0 748.5 215.914)" fill="#C5E9FB"/>
<circle cx="8.15992" cy="8.15992" r="8.15992" transform="matrix(0 -1 -1 0 911.698 173.754)" fill="#C5E9FB"/>
<path d="M505.127 289.666C466.733 283.437 407.806 270.037 407.806 270.037L399.679 278.941C399.679 278.941 441.546 287.562 468.687 292.299C505.157 298.665 540.707 305.351 577.573 308.476C611.886 311.384 618.358 311.804 653.454 311.931C671.489 311.996 707.696 311.107 741.661 306.21C769.437 302.206 790.054 298.131 808.702 292.675C827.35 287.22 855.177 277.231 855.177 277.231L848.739 273.461L842.302 269.69C842.302 269.69 817.497 279.358 800.136 284.044C777.022 290.282 763.864 293.132 738.769 296.67C707.24 301.115 687.843 302.415 654.652 302.936C625.357 303.396 608.466 302.154 578.772 299.481C549.921 296.884 533.746 294.309 505.127 289.666Z" fill="#C5E9FB"/>
<path d="M514.269 315.74C531.688 309.758 542.152 308.744 560.52 307.393C568.882 306.777 582.949 307.584 582.949 307.584C582.949 307.584 574.22 320.63 568.923 327.75C562.583 336.273 554.933 346.509 541.468 356.049C530.365 363.916 522.499 367.581 509.665 372.106C496.582 376.719 488.021 378.332 474.151 378.565C460.041 378.803 440.874 373.994 440.874 373.994C440.874 373.994 448.107 363.207 453.554 356.949C463.38 345.661 470.078 340.194 482.466 331.797C494.247 323.81 500.807 320.362 514.269 315.74Z" fill="#C5E9FB"/>
<path d="M452.957 250.577C464.769 264.708 473.199 270.99 488.218 281.649C495.056 286.502 507.511 293.089 507.511 293.089C507.511 293.089 506.791 277.41 505.942 268.575C504.926 258.002 503.676 245.284 497.089 230.154C491.656 217.677 486.822 210.471 478.18 199.959C469.371 189.243 462.879 183.433 451.13 176.057C439.178 168.554 420.288 162.753 420.288 162.753C420.288 162.753 420.897 175.726 422.321 183.899C424.889 198.642 427.793 206.786 434.049 220.382C439.999 233.312 443.829 239.656 452.957 250.577Z" fill="#C5E9FB"/>
<path d="M417.582 302.534C429.857 295.779 437.568 293.654 451.157 290.246C457.344 288.694 467.992 287.464 467.992 287.464C467.992 287.464 463.152 298.38 460.11 304.408C456.47 311.622 452.072 320.291 443.225 329.197C435.929 336.541 430.512 340.314 421.483 345.379C412.28 350.543 406.074 352.868 395.709 354.852C385.165 356.87 370.173 355.766 370.173 355.766C370.173 355.766 374.187 346.738 377.453 341.338C383.345 331.596 387.652 326.625 395.841 318.716C403.629 311.193 408.096 307.754 417.582 302.534Z" fill="#C5E9FB"/>
<path d="M571.063 291.607C582.926 299.061 590.501 301.629 603.87 305.818C609.957 307.726 620.516 309.57 620.516 309.57C620.516 309.57 616.315 298.393 613.628 292.199C610.412 284.786 606.523 275.876 598.206 266.473C591.347 258.719 586.158 254.639 577.438 249.06C568.549 243.372 562.488 240.691 552.255 238.11C541.846 235.485 526.815 235.72 526.815 235.72C526.815 235.72 530.299 244.965 533.247 250.545C538.565 260.611 542.578 265.823 550.295 274.194C557.635 282.154 561.895 285.846 571.063 291.607Z" fill="#C5E9FB"/>
<path d="M364.972 237.733C381.819 245.175 390.188 251.539 404.586 263.023C411.141 268.252 420.917 278.398 420.917 278.398C420.917 278.398 405.649 282.044 396.925 283.672C386.483 285.62 373.916 287.937 357.554 285.792C344.061 284.024 335.799 281.371 323.307 275.975C310.572 270.473 303.193 265.842 292.855 256.592C282.338 247.182 271.538 230.634 271.538 230.634C271.538 230.634 284.173 227.63 292.421 226.737C307.3 225.127 315.929 225.665 330.725 227.916C344.796 230.057 351.952 231.982 364.972 237.733Z" fill="#C5E9FB"/>
<circle cx="8.15992" cy="8.15992" r="8.15992" transform="matrix(0 1 1 0 398.822 230.93)" fill="#C5E9FB"/>
<circle cx="8.15992" cy="8.15992" r="8.15992" transform="matrix(0 1 1 0 620.5 273.09)" fill="#C5E9FB"/>
<circle cx="8.15992" cy="8.15992" r="8.15992" transform="matrix(0 1 1 0 457.301 315.249)" fill="#C5E9FB"/>
<path d="M-335.873 722.665C-374.267 716.436 -433.194 703.037 -433.194 703.037L-441.321 711.941C-441.321 711.941 -399.453 720.562 -372.312 725.299C-335.843 731.664 -300.293 738.35 -263.426 741.475C-229.114 744.384 -222.641 744.804 -187.546 744.931C-169.51 744.996 -133.303 744.106 -99.3383 739.21C-71.5623 735.206 -50.9455 731.13 -32.2976 725.675C-13.6496 720.219 14.1774 710.231 14.1774 710.231L7.73981 706.46L1.30226 702.689C1.30226 702.689 -23.5029 712.358 -40.8633 717.043C-63.9777 723.281 -77.1359 726.132 -102.231 729.67C-133.759 734.115 -153.157 735.415 -186.347 735.936C-215.643 736.396 -232.533 735.153 -262.228 732.481C-291.078 729.884 -307.253 727.309 -335.873 722.665Z" fill="#C5E9FB"/>
<path d="M22.8736 632.337C61.2677 638.566 120.195 651.965 120.195 651.965L128.322 643.062C128.322 643.062 86.4544 634.441 59.313 629.704C22.8439 623.338 -12.7064 616.652 -49.5726 613.527C-83.8854 610.619 -90.3578 610.199 -125.453 610.072C-143.489 610.007 -179.696 610.896 -213.661 615.793C-241.437 619.797 -262.054 623.872 -280.701 629.328C-299.349 634.783 -327.176 644.772 -327.176 644.772L-320.739 648.542L-314.301 652.313C-314.301 652.313 -289.496 642.644 -272.136 637.959C-249.021 631.721 -235.863 628.871 -210.768 625.333C-179.24 620.888 -159.842 619.588 -126.652 619.067C-97.3564 618.607 -80.4656 619.849 -50.7713 622.522C-21.9206 625.119 -5.74591 627.694 22.8736 632.337Z" fill="#C5E9FB"/>
<path d="M13.7316 606.263C-3.68725 612.245 -14.1519 613.259 -32.5196 614.61C-40.8819 615.226 -54.9482 614.419 -54.9482 614.419C-54.9482 614.419 -46.2197 601.373 -40.9223 594.253C-34.5824 585.73 -26.933 575.494 -13.4679 565.954C-2.36405 558.087 5.5014 554.422 18.3352 549.897C31.4183 545.284 39.9794 543.671 53.8499 543.438C67.9598 543.2 87.1265 548.009 87.1265 548.009C87.1265 548.009 79.8936 558.796 74.4466 565.054C64.6208 576.342 57.9221 581.809 45.5347 590.206C33.753 598.193 27.1937 601.64 13.7316 606.263Z" fill="#C5E9FB"/>
<path d="M75.0433 671.426C63.2319 657.295 54.8012 651.013 39.7822 640.354C32.9444 635.501 20.4897 628.913 20.4897 628.913C20.4897 628.913 21.2096 644.593 22.0587 653.428C23.075 664.001 24.3247 676.719 30.912 691.849C36.344 704.326 41.1787 711.532 49.8202 722.044C58.6296 732.76 65.1212 738.57 76.8702 745.946C88.8221 753.449 107.712 759.25 107.712 759.25C107.712 759.25 107.103 746.277 105.68 738.104C103.111 723.361 100.207 715.217 93.9515 701.621C88.0016 688.691 84.1719 682.347 75.0433 671.426Z" fill="#C5E9FB"/>
<path d="M110.418 619.469C98.1435 626.224 90.4328 628.349 76.8431 631.757C70.656 633.309 60.0085 634.539 60.0085 634.539C60.0085 634.539 64.8488 623.623 67.8904 617.595C71.5305 610.381 75.9284 601.712 84.7759 592.806C92.0719 585.462 97.4888 581.689 106.517 576.624C115.721 571.46 121.927 569.135 132.292 567.151C142.836 565.133 157.828 566.237 157.828 566.237C157.828 566.237 153.814 575.265 150.548 580.665C144.656 590.407 140.348 595.378 132.16 603.287C124.371 610.81 119.905 614.249 110.418 619.469Z" fill="#C5E9FB"/>
<path d="M-43.0624 630.396C-54.9255 622.942 -62.5002 620.374 -75.8698 616.184C-81.9567 614.277 -92.5151 612.433 -92.5151 612.433C-92.5151 612.433 -88.3149 623.61 -85.6274 629.804C-82.4111 637.217 -78.5226 646.127 -70.2055 655.53C-63.347 663.284 -58.1576 667.364 -49.4376 672.943C-40.5482 678.631 -34.4874 681.312 -24.2546 683.893C-13.8452 686.518 1.18566 686.283 1.18566 686.283C1.18566 686.283 -2.29891 677.038 -5.24695 671.458C-10.565 661.392 -14.5775 656.18 -22.2945 647.809C-29.6342 639.848 -33.894 636.157 -43.0624 630.396Z" fill="#C5E9FB"/>
<path d="M163.029 684.269C146.182 676.828 137.813 670.464 123.415 658.98C116.859 653.751 107.084 643.605 107.084 643.605C107.084 643.605 122.351 639.959 131.076 638.331C141.517 636.383 154.084 634.066 170.446 636.211C183.939 637.979 192.201 640.632 204.694 646.028C217.429 651.53 224.808 656.161 235.146 665.411C245.663 674.821 256.463 691.369 256.463 691.369C256.463 691.369 243.827 694.373 235.579 695.265C220.701 696.876 212.071 696.338 197.276 694.087C183.204 691.946 176.049 690.021 163.029 684.269Z" fill="#C5E9FB"/>
<circle cx="8.15992" cy="8.15992" r="8.15992" transform="matrix(0 -1 -1 0 129.179 691.073)" fill="#C5E9FB"/>
<circle cx="8.15992" cy="8.15992" r="8.15992" transform="matrix(0 -1 -1 0 70.6992 606.754)" fill="#C5E9FB"/>
<path d="M863.5 632.338C901.894 638.567 960.821 651.966 960.821 651.966L968.948 643.062C968.948 643.062 927.081 634.441 899.939 629.704C863.47 623.339 827.92 616.653 791.054 613.528C756.741 610.619 750.269 610.199 715.173 610.072C697.138 610.007 660.931 610.897 626.966 615.793C599.19 619.797 578.573 623.873 559.925 629.328C541.277 634.784 513.45 644.772 513.45 644.772L519.888 648.543L526.325 652.314C526.325 652.314 551.13 642.645 568.491 637.96C591.605 631.722 604.763 628.871 629.858 625.333C661.387 620.888 680.784 619.588 713.975 619.067C743.27 618.607 760.161 619.849 789.855 622.522C818.706 625.119 834.881 627.694 863.5 632.338Z" fill="#C5E9FB"/>
<path d="M854.358 606.263C836.939 612.245 826.474 613.259 808.106 614.61C799.744 615.226 785.678 614.419 785.678 614.419C785.678 614.419 794.406 601.373 799.704 594.253C806.044 585.73 813.693 575.494 827.158 565.954C838.262 558.087 846.127 554.422 858.961 549.897C872.044 545.284 880.605 543.671 894.476 543.438C908.586 543.2 927.752 548.009 927.752 548.009C927.752 548.009 920.52 558.796 915.073 565.054C905.247 576.342 898.548 581.809 886.161 590.206C874.379 598.193 867.82 601.64 854.358 606.263Z" fill="#C5E9FB"/>
<path d="M915.669 671.427C903.858 657.296 895.427 651.014 880.408 640.354C873.57 635.501 861.116 628.914 861.116 628.914C861.116 628.914 861.836 644.594 862.685 653.428C863.701 664.001 864.951 676.719 871.538 691.849C876.97 704.326 881.805 711.532 890.446 722.044C899.256 732.761 905.747 738.571 917.496 745.947C929.448 753.45 948.338 759.251 948.338 759.251C948.338 759.251 947.729 746.278 946.306 738.105C943.737 723.361 940.833 715.217 934.578 701.622C928.628 688.691 924.798 682.348 915.669 671.427Z" fill="#C5E9FB"/>
<path d="M951.046 619.47C938.771 626.224 931.06 628.349 917.471 631.758C911.283 633.309 900.636 634.539 900.636 634.539C900.636 634.539 905.476 623.624 908.518 617.596C912.158 610.382 916.556 601.712 925.403 592.806C932.699 585.462 938.116 581.689 947.145 576.624C956.348 571.461 962.554 569.135 972.919 567.151C983.463 565.133 998.455 566.238 998.455 566.238C998.455 566.238 994.441 575.265 991.175 580.666C985.283 590.407 980.976 595.378 972.787 603.288C964.999 610.81 960.532 614.249 951.046 619.47Z" fill="#C5E9FB"/>
<path d="M797.565 630.396C785.701 622.942 778.127 620.374 764.757 616.185C758.67 614.278 748.112 612.433 748.112 612.433C748.112 612.433 752.312 623.611 755 629.805C758.216 637.217 762.104 646.127 770.421 655.53C777.28 663.284 782.469 667.364 791.189 672.944C800.079 678.631 806.14 681.312 816.372 683.893C826.782 686.518 841.813 686.284 841.813 686.284C841.813 686.284 838.328 677.039 835.38 671.458C830.062 661.392 826.049 656.18 818.332 647.81C810.993 639.849 806.733 636.157 797.565 630.396Z" fill="#C5E9FB"/>
<path d="M1003.66 684.271C986.809 676.829 978.44 670.465 964.042 658.981C957.486 653.753 947.711 643.606 947.711 643.606C947.711 643.606 962.978 639.961 971.703 638.333C982.144 636.384 994.711 634.067 1011.07 636.212C1024.57 637.981 1032.83 640.634 1045.32 646.03C1058.06 651.531 1065.43 656.162 1075.77 665.412C1086.29 674.822 1097.09 691.37 1097.09 691.37C1097.09 691.37 1084.45 694.374 1076.21 695.267C1061.33 696.877 1052.7 696.339 1037.9 694.088C1023.83 691.948 1016.68 690.022 1003.66 684.271Z" fill="#C5E9FB"/>
<circle cx="8.15992" cy="8.15992" r="8.15992" transform="matrix(0 -1 -1 0 969.805 691.073)" fill="#C5E9FB"/>
<circle cx="8.15992" cy="8.15992" r="8.15992" transform="matrix(0 -1 -1 0 748.127 648.914)" fill="#C5E9FB"/>
<circle cx="8.15992" cy="8.15992" r="8.15992" transform="matrix(0 -1 -1 0 911.325 606.754)" fill="#C5E9FB"/>
<path d="M504.754 722.666C466.36 716.437 407.433 703.037 407.433 703.037L399.306 711.941C399.306 711.941 441.173 720.562 468.314 725.299C504.784 731.665 540.334 738.351 577.2 741.476C611.513 744.384 617.985 744.804 653.081 744.931C671.116 744.996 707.323 744.107 741.288 739.21C769.064 735.206 789.681 731.131 808.329 725.675C826.977 720.22 854.804 710.231 854.804 710.231L848.366 706.461L841.929 702.69C841.929 702.69 817.124 712.358 799.763 717.044C776.649 723.282 763.491 726.132 738.396 729.67C706.867 734.115 687.47 735.415 654.279 735.936C624.984 736.396 608.093 735.154 578.399 732.481C549.548 729.884 533.373 727.309 504.754 722.666Z" fill="#C5E9FB"/>
<path d="M513.896 748.74C531.315 742.758 541.779 741.744 560.147 740.393C568.509 739.777 582.576 740.584 582.576 740.584C582.576 740.584 573.847 753.63 568.55 760.75C562.21 769.273 554.56 779.509 541.095 789.049C529.991 796.916 522.126 800.581 509.292 805.106C496.209 809.719 487.648 811.332 473.778 811.565C459.668 811.803 440.501 806.994 440.501 806.994C440.501 806.994 447.734 796.207 453.181 789.949C463.007 778.661 469.705 773.194 482.093 764.797C493.874 756.81 500.434 753.362 513.896 748.74Z" fill="#C5E9FB"/>
<path d="M452.584 683.577C464.396 697.708 472.826 703.99 487.845 714.649C494.683 719.502 507.138 726.089 507.138 726.089C507.138 726.089 506.418 710.41 505.569 701.575C504.552 691.002 503.303 678.284 496.715 663.154C491.283 650.677 486.449 643.471 477.807 632.959C468.998 622.243 462.506 616.433 450.757 609.057C438.805 601.554 419.915 595.753 419.915 595.753C419.915 595.753 420.524 608.726 421.948 616.899C424.516 631.642 427.42 639.786 433.676 653.382C439.626 666.312 443.456 672.656 452.584 683.577Z" fill="#C5E9FB"/>
<path d="M417.209 735.534C429.484 728.779 437.195 726.654 450.784 723.246C456.971 721.694 467.619 720.464 467.619 720.464C467.619 720.464 462.779 731.38 459.737 737.408C456.097 744.622 451.699 753.291 442.852 762.197C435.556 769.541 430.139 773.314 421.11 778.379C411.906 783.543 405.701 785.868 395.336 787.852C384.792 789.87 369.8 788.766 369.8 788.766C369.8 788.766 373.814 779.738 377.08 774.338C382.972 764.596 387.279 759.625 395.468 751.716C403.256 744.193 407.723 740.754 417.209 735.534Z" fill="#C5E9FB"/>
<path d="M570.69 724.607C582.553 732.061 590.128 734.629 603.497 738.818C609.584 740.726 620.142 742.57 620.142 742.57C620.142 742.57 615.942 731.393 613.255 725.199C610.039 717.786 606.15 708.876 597.833 699.473C590.974 691.719 585.785 687.639 577.065 682.06C568.176 676.372 562.115 673.691 551.882 671.11C541.473 668.485 526.442 668.72 526.442 668.72C526.442 668.72 529.926 677.965 532.874 683.545C538.192 693.611 542.205 698.823 549.922 707.194C557.262 715.154 561.521 718.846 570.69 724.607Z" fill="#C5E9FB"/>
<path d="M364.599 670.733C381.446 678.175 389.815 684.539 404.213 696.023C410.768 701.252 420.544 711.398 420.544 711.398C420.544 711.398 405.276 715.044 396.552 716.672C386.11 718.62 373.543 720.937 357.181 718.792C343.688 717.024 335.426 714.371 322.934 708.975C310.199 703.473 302.82 698.842 292.482 689.592C281.965 680.182 271.165 663.634 271.165 663.634C271.165 663.634 283.8 660.63 292.048 659.737C306.927 658.127 315.556 658.665 330.352 660.916C344.423 663.057 351.579 664.982 364.599 670.733Z" fill="#C5E9FB"/>
<circle cx="8.15992" cy="8.15992" r="8.15992" transform="matrix(0 1 1 0 398.449 663.93)" fill="#C5E9FB"/>
<circle cx="8.15992" cy="8.15992" r="8.15992" transform="matrix(0 1 1 0 620.126 706.09)" fill="#C5E9FB"/>
<circle cx="8.15992" cy="8.15992" r="8.15992" transform="matrix(0 1 1 0 456.928 748.249)" fill="#C5E9FB"/>
<path d="M1098.13 417.337C1059.73 423.566 1000.81 436.965 1000.81 436.965L992.679 428.062C992.679 428.062 1034.55 419.441 1061.69 414.704C1098.16 408.338 1133.71 401.652 1170.57 398.527C1204.89 395.619 1211.36 395.199 1246.45 395.072C1264.49 395.007 1300.7 395.896 1334.66 400.793C1362.44 404.797 1383.05 408.872 1401.7 414.328C1420.35 419.783 1448.18 429.772 1448.18 429.772L1441.74 433.542L1435.3 437.313C1435.3 437.313 1410.5 427.644 1393.14 422.959C1370.02 416.721 1356.86 413.871 1331.77 410.333C1300.24 405.888 1280.84 404.588 1247.65 404.067C1218.36 403.607 1201.47 404.849 1171.77 407.522C1142.92 410.119 1126.75 412.694 1098.13 417.337Z" fill="#C5E9FB"/>
<path d="M1107.27 391.263C1124.69 397.245 1135.15 398.259 1153.52 399.61C1161.88 400.226 1175.95 399.419 1175.95 399.419C1175.95 399.419 1167.22 386.373 1161.92 379.253C1155.58 370.73 1147.93 360.494 1134.47 350.954C1123.36 343.087 1115.5 339.422 1102.67 334.897C1089.58 330.284 1081.02 328.671 1067.15 328.438C1053.04 328.2 1033.87 333.009 1033.87 333.009C1033.87 333.009 1041.11 343.796 1046.55 350.054C1056.38 361.342 1063.08 366.809 1075.47 375.206C1087.25 383.193 1093.81 386.64 1107.27 391.263Z" fill="#C5E9FB"/>
<path d="M1045.96 456.426C1057.77 442.295 1066.2 436.013 1081.22 425.354C1088.06 420.501 1100.51 413.913 1100.51 413.913C1100.51 413.913 1099.79 429.593 1098.94 438.428C1097.93 449.001 1096.68 461.719 1090.09 476.849C1084.66 489.326 1079.82 496.532 1071.18 507.044C1062.37 517.76 1055.88 523.57 1044.13 530.946C1032.18 538.449 1013.29 544.25 1013.29 544.25C1013.29 544.25 1013.9 531.277 1015.32 523.104C1017.89 508.361 1020.79 500.217 1027.05 486.621C1033 473.691 1036.83 467.347 1045.96 456.426Z" fill="#C5E9FB"/>
<path d="M1010.58 404.469C1022.86 411.224 1030.57 413.349 1044.16 416.757C1050.34 418.309 1060.99 419.539 1060.99 419.539C1060.99 419.539 1056.15 408.623 1053.11 402.595C1049.47 395.381 1045.07 386.712 1036.22 377.806C1028.93 370.462 1023.51 366.689 1014.48 361.624C1005.28 356.46 999.074 354.135 988.709 352.151C978.165 350.133 963.173 351.237 963.173 351.237C963.173 351.237 967.187 360.265 970.453 365.665C976.345 375.407 980.652 380.378 988.841 388.287C996.629 395.81 1001.1 399.249 1010.58 404.469Z" fill="#C5E9FB"/>
<path d="M957.972 469.269C974.819 461.828 983.188 455.464 997.586 443.98C1004.14 438.751 1013.92 428.605 1013.92 428.605C1013.92 428.605 998.649 424.959 989.925 423.331C979.483 421.383 966.916 419.066 950.554 421.211C937.061 422.979 928.799 425.632 916.307 431.028C903.572 436.53 896.193 441.161 885.855 450.411C875.338 459.821 864.538 476.369 864.538 476.369C864.538 476.369 877.173 479.373 885.421 480.265C900.3 481.876 908.929 481.338 923.725 479.087C937.796 476.946 944.952 475.021 957.972 469.269Z" fill="#C5E9FB"/>
<circle cx="999.982" cy="467.913" r="8.15992" transform="rotate(-90 999.982 467.913)" fill="#C5E9FB"/>
<circle cx="1058.46" cy="383.594" r="8.15992" transform="rotate(-90 1058.46 383.594)" fill="#C5E9FB"/>
<path d="M636.686 75.6664C675.08 69.4373 734.007 56.0379 734.007 56.0379L742.134 64.9415C742.134 64.9415 700.267 73.5627 673.126 78.2999C636.656 84.6651 601.106 91.3511 564.24 94.4762C529.927 97.3849 523.455 97.8049 488.359 97.9315C470.324 97.9966 434.117 97.107 400.152 92.2108C372.376 88.2068 351.759 84.1312 333.111 78.6757C314.463 73.2202 286.636 63.2319 286.636 63.2319L293.074 59.4611L299.511 55.6904C299.511 55.6904 324.316 65.359 341.677 70.0441C364.791 76.282 377.949 79.1327 403.044 82.6708C434.573 87.1159 453.97 88.4157 487.161 88.9368C516.456 89.3968 533.347 88.1544 563.041 85.4815C591.892 82.8845 608.067 80.3096 636.686 75.6664Z" fill="#C5E9FB"/>
<path d="M627.544 101.741C610.125 95.7589 599.66 94.7449 581.292 93.3935C572.93 92.7783 558.864 93.5849 558.864 93.5849C558.864 93.5849 567.592 106.63 572.89 113.751C579.23 122.274 586.879 132.51 600.344 142.05C611.448 149.917 619.313 153.582 632.147 158.107C645.23 162.72 653.791 164.333 667.662 164.566C681.772 164.804 700.938 159.995 700.938 159.995C700.938 159.995 693.706 149.208 688.259 142.95C678.433 131.662 671.734 126.195 659.347 117.798C647.565 109.81 641.006 106.363 627.544 101.741Z" fill="#C5E9FB"/>
<path d="M688.855 36.5772C677.044 50.7082 668.613 56.9901 653.594 67.6496C646.756 72.5026 634.302 79.0899 634.302 79.0899C634.302 79.0899 635.022 63.4101 635.871 54.5756C636.887 44.0025 638.137 31.2848 644.724 16.1546C650.156 3.67758 654.991 -3.52825 663.632 -14.0405C672.442 -24.7569 678.933 -30.5666 690.682 -37.9426C702.634 -45.4459 721.524 -51.247 721.524 -51.247C721.524 -51.247 720.915 -38.2739 719.492 -30.1008C716.923 -15.3572 714.019 -7.21319 707.764 6.38211C701.814 19.3126 697.984 25.6561 688.855 36.5772Z" fill="#C5E9FB"/>
<path d="M724.232 88.5343C711.957 81.7795 704.246 79.6547 690.657 76.2464C684.469 74.6946 673.822 73.4646 673.822 73.4646C673.822 73.4646 678.662 84.3802 681.704 90.408C685.344 97.622 689.742 106.292 698.589 115.198C705.885 122.542 711.302 126.314 720.331 131.38C729.534 136.543 735.74 138.869 746.105 140.853C756.649 142.871 771.641 141.766 771.641 141.766C771.641 141.766 767.627 132.738 764.361 127.338C758.469 117.597 754.162 112.626 745.973 104.716C738.185 97.1937 733.718 93.7548 724.232 88.5343Z" fill="#C5E9FB"/>
<path d="M570.751 77.6077C558.888 85.0619 551.313 87.6295 537.943 91.819C531.856 93.7263 521.298 95.5708 521.298 95.5708C521.298 95.5708 525.498 84.3932 528.186 78.1994C531.402 70.7867 535.29 61.8769 543.607 52.4738C550.466 44.7195 555.655 40.6395 564.375 35.0602C573.265 29.3725 579.326 26.6915 589.558 24.1108C599.968 21.4856 614.999 21.7201 614.999 21.7201C614.999 21.7201 611.514 30.9652 608.566 36.5455C603.248 46.6119 599.236 51.8238 591.518 60.194C584.179 68.1549 579.919 71.8467 570.751 77.6077Z" fill="#C5E9FB"/>
<path d="M776.842 23.733C759.995 31.1746 751.626 37.5385 737.228 49.0228C730.672 54.2513 720.897 64.3977 720.897 64.3977C720.897 64.3977 736.164 68.0433 744.889 69.6712C755.33 71.6195 767.897 73.9365 784.259 71.7917C797.752 70.0231 806.014 67.3704 818.507 61.974C831.242 56.4728 838.621 51.8417 848.959 42.5915C859.476 33.1817 870.276 16.6335 870.276 16.6335C870.276 16.6335 857.64 13.6297 849.392 12.737C834.514 11.1266 825.884 11.6645 811.089 13.9154C797.017 16.0563 789.862 17.9818 776.842 23.733Z" fill="#C5E9FB"/>
<circle cx="734.831" cy="25.0911" r="8.15992" transform="rotate(90 734.831 25.0911)" fill="#C5E9FB"/>
<circle cx="513.154" cy="67.2498" r="8.15992" transform="rotate(90 513.154 67.2498)" fill="#C5E9FB"/>
<circle cx="676.351" cy="109.409" r="8.15992" transform="rotate(90 676.351 109.409)" fill="#C5E9FB"/>
<path d="M277.94 -14.663C239.546 -8.43387 180.619 4.96548 180.619 4.96548L172.492 -3.93811C172.492 -3.93811 214.36 -12.5593 241.501 -17.2965C277.97 -23.6617 313.52 -30.3477 350.387 -33.4728C384.699 -36.3814 391.172 -36.8015 426.267 -36.9281C444.303 -36.9931 480.51 -36.1036 514.475 -31.2074C542.251 -27.2033 562.868 -23.1278 581.515 -17.6723C600.163 -12.2168 627.99 -2.22846 627.99 -2.22846L621.553 1.5423L615.115 5.31306C615.115 5.31306 590.31 -4.35556 572.95 -9.04065C549.835 -15.2786 536.677 -18.1293 511.582 -21.6674C480.054 -26.1125 460.656 -27.4123 427.466 -27.9334C398.17 -28.3934 381.28 -27.151 351.585 -24.4781C322.735 -21.8811 306.56 -19.3062 277.94 -14.663Z" fill="#C5E9FB"/>
<path d="M225.771 24.4262C237.582 10.2952 246.013 4.01334 261.032 -6.64614C267.87 -11.4991 280.324 -18.0865 280.324 -18.0865C280.324 -18.0865 279.604 -2.4067 278.755 6.42781C277.739 17.0009 276.489 29.7187 269.902 44.8489C264.47 57.3258 259.635 64.5317 250.994 75.0439C242.184 85.7603 235.693 91.5701 223.944 98.946C211.992 106.449 193.102 112.25 193.102 112.25C193.102 112.25 193.711 99.2773 195.134 91.1042C197.702 76.3607 200.607 68.2166 206.862 54.6213C212.812 41.6908 216.642 35.3473 225.771 24.4262Z" fill="#C5E9FB"/>
<path d="M343.876 -16.6043C355.739 -24.0585 363.314 -26.6261 376.684 -30.8155C382.771 -32.7229 393.329 -34.5674 393.329 -34.5674C393.329 -34.5674 389.129 -23.3897 386.441 -17.196C383.225 -9.78331 379.337 -0.873492 371.02 8.52967C364.161 16.2839 358.972 20.3639 350.252 25.9432C341.362 31.631 335.301 34.3119 325.069 36.8926C314.659 39.5179 299.628 39.2833 299.628 39.2833C299.628 39.2833 303.113 30.0382 306.061 24.4579C311.379 14.3915 315.391 9.17961 323.108 0.809413C330.448 -7.15151 334.708 -10.8433 343.876 -16.6043Z" fill="#C5E9FB"/>
<path d="M137.785 37.2694C154.632 29.8278 163.001 23.4639 177.399 11.9796C183.954 6.75112 193.73 -3.3953 193.73 -3.3953C193.73 -3.3953 178.463 -7.04089 169.738 -8.66877C159.297 -10.617 146.73 -12.9341 130.368 -10.7893C116.875 -9.02064 108.613 -6.36793 96.1203 -0.971575C83.3852 4.5296 76.0063 9.16072 65.6681 18.4109C55.1514 27.8207 44.3512 44.369 44.3512 44.369C44.3512 44.369 56.9865 47.3727 65.2345 48.2655C80.1131 49.8759 88.7427 49.3379 103.538 47.087C117.61 44.9462 124.765 43.0207 137.785 37.2694Z" fill="#C5E9FB"/>
<circle cx="179.795" cy="35.9133" r="8.15992" transform="rotate(-90 179.795 35.9133)" fill="#C5E9FB"/>
<circle cx="401.473" cy="-6.24683" r="8.15992" transform="rotate(-90 401.473 -6.24683)" fill="#C5E9FB"/>
<path d="M-64.1579 23.7355C-81.0048 31.1771 -89.3737 37.541 -103.772 49.0253C-110.327 54.2538 -120.103 64.4002 -120.103 64.4002C-120.103 64.4002 -104.836 68.0458 -96.1109 69.6737C-85.6693 71.6219 -73.1021 73.9389 -56.7401 71.7942C-43.2473 70.0255 -34.9853 67.3728 -22.4928 61.9765C-9.75771 56.4753 -2.3789 51.8442 7.95936 42.594C18.476 33.1841 29.2762 16.6359 29.2762 16.6359C29.2762 16.6359 16.641 13.6322 8.39296 12.7394C-6.48569 11.129 -15.1153 11.667 -29.9106 13.9179C-43.9825 16.0587 -51.1378 17.9842 -64.1579 23.7355Z" fill="#C5E9FB"/>
<path d="M1118.94 -14.661C1080.55 -8.43191 1021.62 4.96743 1021.62 4.96743L1013.49 -3.93615C1013.49 -3.93615 1055.36 -12.5573 1082.5 -17.2945C1118.97 -23.6597 1154.52 -30.3458 1191.39 -33.4708C1225.7 -36.3795 1232.17 -36.7995 1267.27 -36.9261C1285.3 -36.9912 1321.51 -36.1016 1355.47 -31.2054C1383.25 -27.2014 1403.87 -23.1258 1422.51 -17.6703C1441.16 -12.2148 1468.99 -2.22651 1468.99 -2.22651L1462.55 1.54425L1456.11 5.31501C1456.11 5.31501 1431.31 -4.35361 1413.95 -9.0387C1390.83 -15.2767 1377.68 -18.1274 1352.58 -21.6654C1321.05 -26.1105 1301.66 -27.4103 1268.47 -27.9314C1239.17 -28.3914 1222.28 -27.1491 1192.58 -24.4761C1163.73 -21.8792 1147.56 -19.3043 1118.94 -14.661Z" fill="#C5E9FB"/>
<path d="M1066.77 24.4281C1078.58 10.2972 1087.01 4.01529 1102.03 -6.64419C1108.87 -11.4972 1121.32 -18.0846 1121.32 -18.0846C1121.32 -18.0846 1120.6 -2.40475 1119.75 6.42976C1118.74 17.0029 1117.49 29.7206 1110.9 44.8508C1105.47 57.3278 1100.63 64.5336 1091.99 75.0458C1083.18 85.7622 1076.69 91.572 1064.94 98.948C1052.99 106.451 1034.1 112.252 1034.1 112.252C1034.1 112.252 1034.71 99.2792 1036.13 91.1062C1038.7 76.3626 1041.61 68.2186 1047.86 54.6233C1053.81 41.6927 1057.64 35.3493 1066.77 24.4281Z" fill="#C5E9FB"/>
<path d="M978.785 37.2714C995.632 29.8298 1004 23.4659 1018.4 11.9816C1024.95 6.75307 1034.73 -3.39334 1034.73 -3.39334C1034.73 -3.39334 1019.46 -7.03894 1010.74 -8.66682C1000.3 -10.6151 987.729 -12.9321 971.367 -10.7873C957.874 -9.01868 949.612 -6.36598 937.12 -0.969622C924.385 4.53155 917.006 9.16268 906.668 18.4129C896.151 27.8227 885.351 44.3709 885.351 44.3709C885.351 44.3709 897.986 47.3747 906.234 48.2674C921.113 49.8778 929.742 49.3399 944.538 47.089C958.609 44.9481 965.765 43.0226 978.785 37.2714Z" fill="#C5E9FB"/>
<circle cx="1020.79" cy="35.9153" r="8.15992" transform="rotate(-90 1020.79 35.9153)" fill="#C5E9FB"/>
<path d="M598.873 937.662C637.267 931.433 696.194 918.034 696.194 918.034L704.321 926.937C704.321 926.937 662.454 935.558 635.313 940.295C598.843 946.661 563.293 953.347 526.427 956.472C492.114 959.38 485.642 959.801 450.546 959.927C432.511 959.992 396.304 959.103 362.339 954.206C334.563 950.202 313.946 946.127 295.298 940.671C276.65 935.216 248.823 925.227 248.823 925.227L255.261 921.457L261.698 917.686C261.698 917.686 286.503 927.355 303.864 932.04C326.978 938.278 340.136 941.128 365.231 944.666C396.76 949.111 416.157 950.411 449.348 950.932C478.643 951.392 495.534 950.15 525.228 947.477C554.079 944.88 570.254 942.305 598.873 937.662Z" fill="#C5E9FB"/>
<path d="M651.042 898.573C639.231 912.704 630.8 918.986 615.781 929.645C608.943 934.498 596.489 941.086 596.489 941.086C596.489 941.086 597.209 925.406 598.058 916.571C599.074 905.998 600.324 893.28 606.911 878.15C612.343 865.673 617.178 858.467 625.819 847.955C634.629 837.239 641.12 831.429 652.869 824.053C664.821 816.55 683.711 810.749 683.711 810.749C683.711 810.749 683.102 823.722 681.679 831.895C679.11 846.638 676.206 854.782 669.951 868.378C664.001 881.308 660.171 887.652 651.042 898.573Z" fill="#C5E9FB"/>
<path d="M532.938 939.603C521.075 947.057 513.5 949.625 500.13 953.815C494.043 955.722 483.485 957.566 483.485 957.566C483.485 957.566 487.685 946.389 490.373 940.195C493.589 932.782 497.477 923.873 505.794 914.469C512.653 906.715 517.842 902.635 526.562 897.056C535.452 891.368 541.513 888.687 551.745 886.106C562.155 883.481 577.186 883.716 577.186 883.716C577.186 883.716 573.701 892.961 570.753 898.541C565.435 908.607 561.423 913.819 553.705 922.19C546.366 930.151 542.106 933.842 532.938 939.603Z" fill="#C5E9FB"/>
<path d="M739.029 885.729C722.182 893.17 713.813 899.534 699.415 911.018C692.859 916.247 683.084 926.393 683.084 926.393C683.084 926.393 698.351 930.039 707.076 931.667C717.517 933.615 730.084 935.932 746.446 933.787C759.939 932.019 768.201 929.366 780.694 923.97C793.429 918.468 800.808 913.837 811.146 904.587C821.663 895.177 832.463 878.629 832.463 878.629C832.463 878.629 819.827 875.625 811.579 874.733C796.701 873.122 788.071 873.66 773.276 875.911C759.204 878.052 752.049 879.977 739.029 885.729Z" fill="#C5E9FB"/>
<circle cx="697.018" cy="887.087" r="8.15992" transform="rotate(90 697.018 887.087)" fill="#C5E9FB"/>
<circle cx="475.341" cy="929.245" r="8.15992" transform="rotate(90 475.341 929.245)" fill="#C5E9FB"/>
<path d="M240.127 847.334C201.733 853.563 142.806 866.962 142.806 866.962L134.679 858.058C134.679 858.058 176.546 849.437 203.687 844.7C240.157 838.335 275.707 831.649 312.573 828.524C346.886 825.615 353.358 825.195 388.454 825.068C406.489 825.003 442.696 825.893 476.661 830.789C504.437 834.793 525.054 838.869 543.702 844.324C562.35 849.78 590.177 859.768 590.177 859.768L583.739 863.539L577.302 867.31C577.302 867.31 552.497 857.641 535.136 852.956C512.022 846.718 498.864 843.867 473.769 840.329C442.24 835.884 422.843 834.584 389.652 834.063C360.357 833.603 343.466 834.846 313.772 837.518C284.921 840.115 268.746 842.69 240.127 847.334Z" fill="#C5E9FB"/>
<path d="M249.269 821.26C266.688 827.242 277.152 828.256 295.52 829.607C303.882 830.222 317.949 829.416 317.949 829.416C317.949 829.416 309.22 816.37 303.923 809.249C297.583 800.727 289.933 790.49 276.468 780.95C265.365 773.084 257.499 769.419 244.665 764.894C231.582 760.281 223.021 758.668 209.151 758.434C195.041 758.197 175.874 763.006 175.874 763.006C175.874 763.006 183.107 773.793 188.554 780.05C198.38 791.339 205.078 796.805 217.466 805.203C229.247 813.19 235.807 816.637 249.269 821.26Z" fill="#C5E9FB"/>
<path d="M187.957 886.423C199.769 872.292 208.199 866.01 223.218 855.35C230.056 850.497 242.511 843.91 242.511 843.91C242.511 843.91 241.791 859.59 240.942 868.424C239.926 878.997 238.676 891.715 232.089 906.845C226.656 919.322 221.822 926.528 213.18 937.04C204.371 947.757 197.879 953.567 186.13 960.943C174.178 968.446 155.288 974.247 155.288 974.247C155.288 974.247 155.897 961.274 157.321 953.101C159.889 938.357 162.793 930.213 169.049 916.618C174.999 903.687 178.829 897.344 187.957 886.423Z" fill="#C5E9FB"/>
<path d="M152.582 834.466C164.857 841.221 172.568 843.345 186.157 846.754C192.344 848.305 202.992 849.535 202.992 849.535C202.992 849.535 198.152 838.62 195.11 832.592C191.47 825.378 187.072 816.708 178.225 807.802C170.929 800.458 165.512 796.686 156.483 791.62C147.28 786.457 141.074 784.131 130.709 782.147C120.165 780.129 105.173 781.234 105.173 781.234C105.173 781.234 109.187 790.262 112.453 795.662C118.345 805.403 122.652 810.374 130.841 818.284C138.629 825.806 143.096 829.245 152.582 834.466Z" fill="#C5E9FB"/>
<path d="M306.063 845.392C317.926 837.938 325.501 835.371 338.87 831.181C344.957 829.274 355.516 827.429 355.516 827.429C355.516 827.429 351.315 838.607 348.628 844.801C345.412 852.213 341.523 861.123 333.206 870.526C326.347 878.28 321.158 882.36 312.438 887.94C303.549 893.628 297.488 896.309 287.255 898.889C276.846 901.514 261.815 901.28 261.815 901.28C261.815 901.28 265.299 892.035 268.247 886.455C273.565 876.388 277.578 871.176 285.295 862.806C292.635 854.845 296.895 851.153 306.063 845.392Z" fill="#C5E9FB"/>
<path d="M99.9719 899.266C116.819 891.824 125.188 885.46 139.586 873.976C146.141 868.748 155.917 858.601 155.917 858.601C155.917 858.601 140.649 854.956 131.925 853.328C121.483 851.38 108.916 849.063 92.554 851.207C79.0613 852.976 70.7993 855.629 58.3068 861.025C45.5717 866.526 38.1929 871.157 27.8546 880.408C17.3379 889.817 6.53774 906.366 6.53774 906.366C6.53774 906.366 19.173 909.369 27.421 910.262C42.2997 911.872 50.9293 911.335 65.7246 909.084C79.7964 906.943 86.9518 905.017 99.9719 899.266Z" fill="#C5E9FB"/>
<circle cx="141.982" cy="897.91" r="8.15992" transform="rotate(-90 141.982 897.91)" fill="#C5E9FB"/>
<circle cx="363.659" cy="855.75" r="8.15992" transform="rotate(-90 363.659 855.75)" fill="#C5E9FB"/>
<circle cx="200.461" cy="813.591" r="8.15992" transform="rotate(-90 200.461 813.591)" fill="#C5E9FB"/>
<path d="M1439.87 937.662C1478.27 931.433 1537.19 918.034 1537.19 918.034L1545.32 926.937C1545.32 926.937 1503.45 935.558 1476.31 940.295C1439.84 946.661 1404.29 953.347 1367.43 956.472C1333.11 959.38 1326.64 959.801 1291.55 959.927C1273.51 959.992 1237.3 959.103 1203.34 954.206C1175.56 950.202 1154.95 946.127 1136.3 940.671C1117.65 935.216 1089.82 925.227 1089.82 925.227L1096.26 921.457L1102.7 917.686C1102.7 917.686 1127.5 927.355 1144.86 932.04C1167.98 938.278 1181.14 941.128 1206.23 944.666C1237.76 949.111 1257.16 950.411 1290.35 950.932C1319.64 951.392 1336.53 950.15 1366.23 947.477C1395.08 944.88 1411.25 942.305 1439.87 937.662Z" fill="#C5E9FB"/>
<path d="M1081.13 847.334C1042.73 853.563 983.806 866.962 983.806 866.962L975.679 858.058C975.679 858.058 1017.55 849.437 1044.69 844.7C1081.16 838.335 1116.71 831.649 1153.57 828.524C1187.89 825.615 1194.36 825.195 1229.45 825.068C1247.49 825.003 1283.7 825.893 1317.66 830.789C1345.44 834.793 1366.05 838.869 1384.7 844.324C1403.35 849.78 1431.18 859.768 1431.18 859.768L1424.74 863.539L1418.3 867.31C1418.3 867.31 1393.5 857.641 1376.14 852.956C1353.02 846.718 1339.86 843.867 1314.77 840.329C1283.24 835.884 1263.84 834.584 1230.65 834.063C1201.36 833.603 1184.47 834.846 1154.77 837.518C1125.92 840.115 1109.75 842.69 1081.13 847.334Z" fill="#C5E9FB"/>
<path d="M1090.27 821.26C1107.69 827.242 1118.15 828.256 1136.52 829.607C1144.88 830.222 1158.95 829.416 1158.95 829.416C1158.95 829.416 1150.22 816.37 1144.92 809.249C1138.58 800.727 1130.93 790.49 1117.47 780.95C1106.36 773.084 1098.5 769.419 1085.67 764.894C1072.58 760.281 1064.02 758.668 1050.15 758.434C1036.04 758.197 1016.87 763.006 1016.87 763.006C1016.87 763.006 1024.11 773.793 1029.55 780.05C1039.38 791.339 1046.08 796.805 1058.47 805.203C1070.25 813.19 1076.81 816.637 1090.27 821.26Z" fill="#C5E9FB"/>
<path d="M1028.96 886.423C1040.77 872.292 1049.2 866.01 1064.22 855.35C1071.06 850.497 1083.51 843.91 1083.51 843.91C1083.51 843.91 1082.79 859.59 1081.94 868.424C1080.93 878.997 1079.68 891.715 1073.09 906.845C1067.66 919.322 1062.82 926.528 1054.18 937.04C1045.37 947.757 1038.88 953.567 1027.13 960.943C1015.18 968.446 996.288 974.247 996.288 974.247C996.288 974.247 996.897 961.274 998.321 953.101C1000.89 938.357 1003.79 930.213 1010.05 916.618C1016 903.687 1019.83 897.344 1028.96 886.423Z" fill="#C5E9FB"/>
<path d="M993.582 834.466C1005.86 841.221 1013.57 843.345 1027.16 846.754C1033.34 848.305 1043.99 849.535 1043.99 849.535C1043.99 849.535 1039.15 838.62 1036.11 832.592C1032.47 825.378 1028.07 816.708 1019.22 807.802C1011.93 800.458 1006.51 796.686 997.483 791.62C988.28 786.457 982.074 784.131 971.709 782.147C961.165 780.129 946.173 781.234 946.173 781.234C946.173 781.234 950.187 790.262 953.453 795.662C959.345 805.403 963.652 810.374 971.841 818.284C979.629 825.806 984.096 829.245 993.582 834.466Z" fill="#C5E9FB"/>
<path d="M1147.06 845.392C1158.93 837.938 1166.5 835.371 1179.87 831.181C1185.96 829.274 1196.52 827.429 1196.52 827.429C1196.52 827.429 1192.32 838.607 1189.63 844.801C1186.41 852.213 1182.52 861.123 1174.21 870.526C1167.35 878.28 1162.16 882.36 1153.44 887.94C1144.55 893.628 1138.49 896.309 1128.26 898.889C1117.85 901.514 1102.81 901.28 1102.81 901.28C1102.81 901.28 1106.3 892.035 1109.25 886.455C1114.57 876.388 1118.58 871.176 1126.3 862.806C1133.63 854.845 1137.89 851.153 1147.06 845.392Z" fill="#C5E9FB"/>
<path d="M940.972 899.266C957.819 891.824 966.188 885.46 980.586 873.976C987.141 868.748 996.917 858.601 996.917 858.601C996.917 858.601 981.649 854.956 972.925 853.328C962.483 851.38 949.916 849.063 933.554 851.207C920.061 852.976 911.799 855.629 899.307 861.025C886.572 866.526 879.193 871.157 868.855 880.408C858.338 889.817 847.538 906.366 847.538 906.366C847.538 906.366 860.173 909.369 868.421 910.262C883.3 911.872 891.929 911.335 906.725 909.084C920.796 906.943 927.952 905.017 940.972 899.266Z" fill="#C5E9FB"/>
<circle cx="982.982" cy="897.91" r="8.15992" transform="rotate(-90 982.982 897.91)" fill="#C5E9FB"/>
<circle cx="1041.46" cy="813.591" r="8.15992" transform="rotate(-90 1041.46 813.591)" fill="#C5E9FB"/>
</g>
<defs>
<clipPath id="clip0_336_4022">
<rect width="1103" height="923" fill="white"/>
</clipPath>
</defs>
</svg>
