<svg width="213" height="263" viewBox="0 0 213 263" fill="none" xmlns="http://www.w3.org/2000/svg">
<circle cx="106.5" cy="59" r="59" fill="#52BEF4"/>
<path d="M11.5 190.5C5.35705 202.48 0 223 0 223C0 223 15.1833 235.312 26 241.5C40.9812 250.071 50.2402 253.877 67 258C82.6413 261.848 91.8924 262.479 108 262.5C124.302 262.521 133.73 262.131 149.5 258C165.324 253.855 173.955 249.885 188 241.5C198.428 235.274 213 223 213 223C213 223 208.486 202.419 202.5 190.5C196.714 178.978 192.466 172.765 183.5 163.5C175.568 155.304 170.373 151.211 160.5 145.5C151.866 140.507 146.61 138.168 137 135.5C126.008 132.449 119.407 132.045 108 132C96.2049 131.953 89.3805 132.4 78 135.5C68.2033 138.169 62.8604 140.541 54 145.5C43.7764 151.222 38.1656 155.099 30 163.5C21.0913 172.666 17.3321 179.126 11.5 190.5Z" fill="#52BEF4"/>
</svg>
