<svg width="319" height="295" viewBox="0 0 319 295" fill="none" xmlns="http://www.w3.org/2000/svg">
<path d="M192.866 102.341C197.615 115.603 189.57 132.734 189.57 132.734C189.57 132.734 208.979 137.787 215.235 147.154C221.753 156.916 219.595 163.219 219.24 164.384C218.884 165.55 217.8 171.641 209.845 176.65C201.889 181.659 185.546 179.817 172.205 176.782C158.864 173.747 143.267 169.495 138.587 168.022C133.906 166.55 126.844 164.518 126.844 164.518L130.955 152.955C130.955 152.955 137.69 134.53 143.786 120.671C148.946 108.942 154.451 96.024 166.065 90.4686C169.76 88.701 175.348 87.1831 181.485 89.8398C186.913 92.19 190.875 96.7816 192.866 102.341Z" fill="#F47139"/>
<path d="M265.724 220.591C276.903 229.052 290.601 223.65 290.601 223.65C290.601 223.65 289.259 234.972 289.289 245.331C289.329 259.007 289.289 282.091 289.289 282.091C289.289 282.091 274.065 279.027 264.837 276.874C254.828 274.539 249.399 271.979 239.224 272.091C231.597 272.176 222.724 274.091 219.933 275.152C217.87 275.936 214.724 277.091 209.516 278.793C202.52 281.078 198.511 283.077 191.224 285.054C183.02 287.281 178.383 287.678 169.857 289.21C160.882 290.822 156.648 291.644 147.549 292.247C143.005 292.548 138.609 292.014 134.064 291.726C123.786 291.074 119.378 288.752 109.765 285.054C102.912 282.419 100.581 280.769 94.357 276.874C87.0824 272.32 82.0757 268.883 76.0848 262.866C70.9284 257.687 68.4886 254.826 64.2023 249.143C61.2538 245.233 58.6612 240.307 57.6292 235.421C57.4734 234.683 56.6439 231.239 58.6181 228.984C59.941 227.473 61.5953 226.497 63.4581 227.247C65.3209 227.997 67.3152 229.482 71.2179 235.37C74.3643 240.116 77.1716 243.222 80.8458 247.119C84.9763 251.5 90.3961 256.145 92.9171 258.353C95.5474 260.656 100.986 264.754 109.019 268.469C113.095 270.353 120.483 270.54 120.483 270.54C120.483 270.54 109.953 265.412 103.947 261.372C97.4733 257.018 93.8411 254.413 88.2586 248.963C84.3218 245.119 83.0225 243.474 79.429 238.576C76.7051 234.863 73.8631 230.803 72.2913 227.016C71.224 224.444 68.591 220.326 69.0066 214.845C69.1954 212.355 70.7825 210.089 71.6496 209.857C74.2512 209.16 75.281 209.718 77.277 211.465C80.8099 214.559 83.4295 218.844 86.9049 223.215C90.4587 227.684 92.4939 230.177 96.486 234.259C101.668 239.559 104.3 241.951 110.014 246.104C114.476 249.348 116.684 250.617 122.509 253.062C126.863 254.89 135.429 255.745 135.429 255.745C135.429 255.745 125.088 251.296 118.94 247.282C113.388 243.656 110.152 240.828 105.459 236.142C99.7402 230.431 96.6487 227.765 92.074 221.102C88.9318 216.526 86.7042 213.83 84.1846 208.883C82.9639 206.487 82.6866 203.093 84.3753 201.084C86.7335 198.279 89.6345 199.931 91.0941 200.992C95.5566 204.236 99.7835 209.265 104.339 213.918C110.28 219.985 112.75 222.61 119.088 228.159C124.724 233.095 129.177 235.839 135.341 238.407C140.012 240.354 147.932 241.466 147.932 241.466L143.892 239.256C143.892 239.256 139.086 236.46 136.141 234.461C134.059 233.048 132.054 231.547 132.054 231.547C132.054 231.547 128.979 229.387 127.968 228.632C122.341 224.432 114.44 216.787 114.44 216.787C114.44 216.787 103.468 206.858 99.0824 198.693C97.0633 194.933 100.043 190.772 104.018 193.056C105.855 194.112 126.752 210.308 126.752 210.308C126.752 210.308 143.253 221.71 155.597 223.614C163.64 224.855 169.867 223.712 177.724 221.591C189.894 218.307 194.724 217.591 207.224 214.591C219.724 211.591 225.003 211.122 236.724 211.591C245.724 211.951 255.916 213.168 265.724 220.591Z" fill="#FAC770"/>
<path d="M24.4513 71.0313C14.6442 61.0117 1.83789 44.3674 1.83789 44.3674C1.83789 44.3674 9.57324 35.6544 15.0204 30.5679C25.0158 21.2342 31.1292 16.3094 42.9765 9.47813C49.7796 5.55541 61.0626 0.688356 61.0626 0.688356L72.0463 13.6394C72.0463 13.6394 77.0223 20.889 81.9692 22.251C84.0968 22.8367 85.3951 22.6479 87.6009 22.7139C94.9579 22.9338 106.251 19.9946 106.251 19.9946C106.251 19.9946 119.705 18.5239 128.363 18.2685C137.479 17.9996 141.787 17.8115 150.876 18.5591C155.414 18.9324 159.683 20.1102 164.135 21.0665C174.205 23.2293 178.222 26.1771 187.182 31.2536C193.571 34.8727 195.633 36.8481 201.213 41.6202C207.736 47.1981 212.18 51.3374 217.216 58.1731C221.551 64.0567 223.542 67.2469 226.942 73.5012C229.28 77.8034 231.117 83.0578 231.416 88.0433C231.461 88.7959 231.773 92.325 229.487 94.2633C227.956 95.5622 226.175 96.2832 224.444 95.2662C222.712 94.2492 220.959 92.486 217.969 86.0868C215.558 80.9277 213.24 77.441 210.182 73.0443C206.744 68.1015 202.069 62.7065 199.902 60.1511C197.641 57.4847 192.867 52.6281 185.471 47.7678C181.718 45.3018 174.439 44.026 174.439 44.026C174.439 44.026 184.095 50.6534 189.439 55.5354C195.199 60.7979 198.406 63.9109 203.123 70.1259C206.449 74.5089 207.491 76.3277 210.321 81.7027C212.467 85.777 214.678 90.2127 215.673 94.1908C216.349 96.8921 218.345 101.354 217.124 106.713C216.57 109.148 214.666 111.154 213.774 111.256C211.098 111.561 210.161 110.857 208.446 108.834C205.408 105.253 203.45 100.628 200.659 95.7916C197.804 90.8465 196.159 88.0802 192.814 83.4528C188.471 77.4462 186.222 74.6911 181.184 69.74C177.25 65.8729 175.254 64.2915 169.853 61.0127C165.817 58.5623 157.471 56.4514 157.471 56.4514C157.471 56.4514 167.042 62.3783 172.529 67.2568C177.485 71.6631 180.268 74.9382 184.217 80.2657C189.03 86.7585 191.694 89.8521 195.234 97.1175C197.666 102.108 199.471 105.103 201.232 110.367C202.086 112.918 201.859 116.316 199.892 118.053C197.145 120.479 194.52 118.416 193.233 117.151C189.299 113.284 185.861 107.686 182.042 102.412C177.063 95.5339 175.007 92.5721 169.559 86.148C164.713 80.4343 160.714 77.0624 154.998 73.6117C150.666 70.9968 142.997 68.7273 142.997 68.7273L146.666 71.5093C146.666 71.5093 151.006 74.9848 153.623 77.3966C155.474 79.1016 157.235 80.8827 157.235 80.8827C157.235 80.8827 159.958 83.473 160.846 84.3688C165.791 89.3543 172.476 98.0817 172.476 98.0817C172.476 98.0817 181.861 109.523 184.993 118.246C186.435 122.262 182.872 125.938 179.279 123.092C177.618 121.776 159.342 102.672 159.342 102.672C159.342 102.672 144.706 88.9576 132.779 85.251C125.008 82.8356 121.857 82.7516 113.772 83.6886C101.251 85.1398 92.8248 88.4351 80.257 90.5014C68.7622 92.3914 61.3797 92.8098 50.2518 89.0981C38.5833 85.2062 33.0553 79.8217 24.4513 71.0313Z" fill="#FAC770"/>
</svg>
