<svg width="296" height="296" viewBox="0 0 296 296" fill="none" xmlns="http://www.w3.org/2000/svg">
<circle cx="148.133" cy="147.633" r="147.633" transform="rotate(180 148.133 147.633)" fill="#C5E9FB"/>
<path d="M217.742 162.932C232.21 183.918 272.105 199.613 253.694 217.243C241.031 229.37 226.686 221.651 209.328 224.127C182.807 227.911 137.926 259.124 141.248 232.542C144.308 208.064 109.121 178.996 137.424 169.052C170.967 157.266 155.575 116.741 190.969 120.096C214.645 122.34 204.243 143.353 217.742 162.932Z" fill="#779A85"/>
<path d="M122.89 58.9007C118.85 37.3528 139.633 37.163 141.248 15.2992C141.689 9.34091 141.248 0.000427246 141.248 0.000427246C141.248 0.000427246 122.832 1.65649 111.416 4.59006C99.6989 7.60078 82.3481 15.2992 82.3481 15.2992C82.3481 15.2992 67.6749 22.6844 59.3999 29.0681C51.8719 34.8756 41.8063 45.1318 41.8063 45.1318C41.8063 45.1318 59.4 72.6696 69.3442 59.6656C82.9538 41.8684 125.185 71.1397 122.89 58.9007Z" fill="#779A85"/>
<path d="M78.5235 202.709C74.9211 225.809 52.5155 260.08 52.5155 260.08C52.5155 260.08 31.7165 242.353 18.8582 219.538C10.6035 204.891 5.73259 187.628 2.79443 174.406C-1.03024 149.163 0.499634 130.04 6.61914 105.562C10.0252 91.9379 23.6592 79.5125 37.9816 80.319C59.2164 81.5147 56.9439 115.612 64.7545 135.395C74.6084 160.352 82.6579 176.197 78.5235 202.709Z" fill="#779A85"/>
<path d="M221.567 90.2632C234.25 87.198 241.446 103.943 253.694 99.4425C273.652 92.1091 244.277 74.6568 246.81 53.5461C249.105 34.4227 218.305 58.1735 209.328 45.1318C168.786 -13.7685 129.774 112.446 221.567 90.2632Z" fill="#779A85"/>
<circle cx="192.191" cy="126.763" r="9.27538" fill="#F47139"/>
<line x1="191.645" y1="119.035" x2="191.645" y2="148.407" stroke="#F47139" stroke-width="2"/>
<circle cx="108.712" cy="21.6421" r="9.27538" fill="#F47139"/>
<line x1="108.166" y1="13.9141" x2="108.166" y2="43.2861" stroke="#F47139" stroke-width="2"/>
<path d="M123.036 20.6685C123.036 20.6685 145.569 20.6685 164.995 35.682C184.42 50.6955 188.305 60.4543 191.413 68.7118C196.363 81.8617 196.852 109.248 196.852 109.248" stroke="#212121" stroke-width="2" stroke-dasharray="4 4"/>
</svg>
