<svg width="283" height="234" viewBox="0 0 283 234" fill="none" xmlns="http://www.w3.org/2000/svg">
<path d="M1 18.8717C1 18.8717 83.2229 73.6875 117.5 50.5C134.5 39 136 19.8711 123 8.3718C104.714 -7.80341 61.5 8.37209 66 39.3719C70.7759 72.2722 107.5 77.5 125.5 80.372C188.492 90.4228 191.5 85.8712 191.5 85.8712" stroke="#212121" stroke-width="2.5" stroke-dasharray="2 2"/>
<path d="M245.594 46.8296L37.1091 105.49L72.9839 232.993L281.468 174.333L245.594 46.8296Z" fill="#52BEF4" stroke="#0C9FE7"/>
<path d="M72.9836 232.993L156.003 131.538L281.468 174.333" stroke="#0C9FE7"/>
<path d="M160.85 148.769C160.85 148.769 35.6617 105.891 37.1083 105.491C38.5549 105.09 243.864 47.2971 245.593 46.8304C247.322 46.3637 160.85 148.769 160.85 148.769Z" fill="#52BEF4" stroke="#0C9FE7"/>
<path d="M140.328 124.906C147.533 123.777 155.334 129.219 155.334 129.219C155.334 129.219 159.949 120.225 165.347 118.016C170.972 115.715 173.927 117.327 174.478 117.603C175.029 117.88 177.992 118.951 179.677 123.268C181.362 127.586 178.694 135.374 175.743 141.595C172.791 147.816 168.985 155.026 167.744 157.172C166.502 159.318 164.725 162.573 164.725 162.573L159.32 159.542C159.32 159.542 150.726 154.623 144.372 150.421C138.995 146.865 133.053 143.035 131.481 136.889C130.98 134.933 130.807 132.079 132.802 129.33C134.566 126.898 137.307 125.379 140.328 124.906Z" fill="#FEEEE7"/>
</svg>
