<svg width="635" height="602" viewBox="0 0 635 602" fill="none" xmlns="http://www.w3.org/2000/svg">
<g opacity="0.2">
<path d="M231.075 79.7229C278.236 85.618 317.537 135.727 317.537 135.727C317.537 135.727 362.336 85.2333 400.069 80.7054C439.388 75.987 455.071 92.0196 458.038 94.8539C461.004 97.6883 477.688 110.181 480.636 141.622C483.583 173.063 453.125 219.241 423.649 254.612C394.174 289.983 357.598 330.267 346.03 342.057C334.462 353.847 317.579 371.926 317.579 371.926L289.044 342.057C289.044 342.057 243.847 293.913 211.426 254.612C183.987 221.35 153.497 185.246 154.48 142.015C154.792 128.26 158.743 109.21 176.095 94.8539C191.445 82.1539 211.306 77.2518 231.075 79.7229Z" fill="#F47139"/>
<path d="M306.747 527.725C308.712 555.236 306.747 596.502 306.747 596.502C306.747 596.502 284.055 599.731 269.411 600.432C242.539 601.717 227.101 601.327 200.634 596.502C185.436 593.731 162.316 586.676 162.316 586.676V553.271C162.316 553.271 164.075 536.063 158.386 527.725C155.939 524.139 153.751 522.77 150.526 519.865C139.768 510.174 119.085 500.214 119.085 500.214C119.085 500.214 97.0281 485.302 83.7139 474.669C69.6958 463.474 62.9927 458.274 50.3081 445.588C43.9745 439.254 39.0677 432.054 33.6052 424.955C21.2502 408.898 18.9743 399.364 11.9897 380.347C7.01019 366.788 6.42903 361.2 4.12928 346.941C1.44117 330.273 0.0404564 318.409 1.18189 301.745C2.16434 287.402 3.23724 280.083 6.09427 266.374C8.05956 256.944 11.9897 246.723 17.8846 238.863C18.7744 237.677 22.7972 231.985 28.6926 231.985C32.643 231.985 36.2314 233.169 37.5353 236.898C38.8391 240.627 39.2258 245.503 35.57 258.909C32.6227 269.716 31.6635 277.896 30.6576 288.384C29.5268 300.175 29.6751 314.216 29.6751 320.808C29.6751 327.685 30.6578 341.046 35.5702 357.749C38.0626 366.223 47.3603 377.399 47.3603 377.399C47.3603 377.399 41.305 355.169 39.5001 341.046C37.5545 325.822 36.7031 317.07 37.5353 301.745C38.1221 290.937 38.8728 286.882 41.4652 275.217C43.4302 266.374 45.7568 256.906 49.3254 249.671C51.7486 244.758 54.4312 235.525 63.0807 229.038C67.0108 226.09 72.4212 225.503 73.8887 226.485C78.2913 229.433 78.8011 231.679 78.8011 236.898C78.8011 246.136 75.8535 255.566 73.8887 266.374C71.8795 277.425 70.8273 283.668 69.9584 294.867C68.8304 309.404 68.7004 316.4 69.9584 330.238C70.9409 341.046 71.9234 345.958 75.8535 357.749C78.7907 366.56 88.6265 380.347 88.6265 380.347C88.6265 380.347 81.8088 359.277 79.7836 344.976C77.9544 332.059 77.9474 323.605 78.8011 310.587C79.8414 294.722 79.7811 286.692 83.7139 271.286C86.4151 260.705 87.5182 253.915 91.5739 243.776C93.5389 238.863 98.2031 234.054 103.364 233.951C110.572 233.806 111.886 240.241 112.207 243.776C113.189 254.584 111.224 267.356 110.242 280.129C108.961 296.783 108.277 303.842 108.277 320.413C108.277 335.15 109.986 345.298 114.172 357.749C117.344 367.184 125.962 380.347 125.962 380.347L123.997 371.504C123.997 371.504 121.908 360.767 121.05 353.818C120.443 348.906 120.067 343.993 120.067 343.993C120.067 343.993 119.278 336.642 119.085 334.168C118.01 320.397 119.085 298.797 119.085 298.797C119.085 298.797 119.561 269.691 125.962 252.618C128.91 244.758 138.931 243.776 140.7 252.618C141.518 256.706 144.63 308.622 144.63 308.622C144.63 308.622 149.139 347.82 162.316 368.556C170.903 382.069 175.523 386.204 188.844 395.084C209.477 408.84 226.311 414.617 247.795 427.508C267.446 439.298 279.054 448.064 291.026 467.791C303.581 488.477 305.023 503.589 306.747 527.725Z" fill="#FAC770"/>
<path d="M328.253 528.163C326.288 555.674 328.253 596.94 328.253 596.94C328.253 596.94 350.944 600.169 365.589 600.87C392.461 602.155 407.899 601.765 434.366 596.94C449.563 594.169 472.684 587.114 472.684 587.114V553.709C472.684 553.709 470.925 536.501 476.614 528.163C479.061 524.577 481.249 523.208 484.474 520.303C495.232 510.612 515.915 500.652 515.915 500.652C515.915 500.652 537.972 485.74 551.286 475.107C565.304 463.912 572.007 458.712 584.692 446.026C591.025 439.692 595.932 432.492 601.395 425.393C613.75 409.336 616.025 399.802 623.01 380.785C627.99 367.226 628.571 361.638 630.87 347.379C633.559 330.711 634.959 318.847 633.818 302.183C632.835 287.84 631.763 280.521 628.905 266.812C626.94 257.382 623.01 247.161 617.115 239.301C616.225 238.115 612.203 232.423 606.307 232.423C602.357 232.423 598.768 233.607 597.464 237.336C596.161 241.065 595.774 245.941 599.43 259.347C602.377 270.154 603.336 278.334 604.342 288.822C605.473 300.613 605.325 314.654 605.325 321.246C605.325 328.123 604.342 341.484 599.43 358.187C596.937 366.661 587.639 377.837 587.639 377.837C587.639 377.837 593.695 355.607 595.5 341.484C597.445 326.26 598.297 317.508 597.464 302.183C596.878 291.375 596.127 287.32 593.535 275.655C591.57 266.812 589.243 257.344 585.674 250.109C583.251 245.196 580.569 235.963 571.919 229.476C567.989 226.528 562.579 225.941 561.111 226.923C556.708 229.871 556.199 232.117 556.199 237.336C556.199 246.574 559.146 256.004 561.111 266.812C563.12 277.863 564.172 284.106 565.041 295.305C566.169 309.842 566.299 316.838 565.041 330.676C564.059 341.484 563.076 346.396 559.146 358.187C556.209 366.998 546.373 380.785 546.373 380.785C546.373 380.785 553.191 359.715 555.216 345.414C557.045 332.497 557.052 324.043 556.199 311.025C555.158 295.16 555.219 287.13 551.286 271.724C548.585 261.143 547.482 254.353 543.426 244.214C541.461 239.301 536.797 234.492 531.636 234.389C524.428 234.244 523.114 240.679 522.793 244.214C521.81 255.022 523.775 267.794 524.758 280.567C526.039 297.221 526.723 304.28 526.723 320.851C526.723 335.588 525.014 345.736 520.828 358.187C517.655 367.622 509.037 380.785 509.037 380.785L511.003 371.942C511.003 371.942 513.092 361.205 513.95 354.256C514.557 349.344 514.933 344.431 514.933 344.431C514.933 344.431 515.722 337.08 515.915 334.606C516.99 320.835 515.915 299.235 515.915 299.235C515.915 299.235 515.439 270.128 509.037 253.056C506.09 245.196 496.068 244.214 494.3 253.056C493.482 257.144 490.37 309.06 490.37 309.06C490.37 309.06 485.861 348.258 472.684 368.994C464.097 382.507 459.477 386.642 446.156 395.522C425.523 409.278 408.689 415.055 387.204 427.946C367.554 439.736 355.946 448.502 343.973 468.229C331.419 488.915 329.977 504.027 328.253 528.163Z" fill="#FAC770"/>
<path d="M111.935 132.911C114.815 145.022 122.855 163.255 122.855 163.255C122.855 163.255 127.867 143.158 127.054 128.504C126.703 122.172 121.764 119.585 117.981 120.239C113.003 121.1 110.661 127.553 111.935 132.911Z" fill="#9DDBF9"/>
<path d="M60.4411 154.538C81.4648 165.273 117.716 176.104 117.716 176.104C117.716 176.104 94.987 144.196 72.8657 127.361C63.3073 120.086 53.4476 124.016 49.6926 130.265C44.7519 138.487 51.1393 149.788 60.4411 154.538Z" fill="#C5E9FB"/>
<path d="M524.201 132.911C521.321 145.022 513.281 163.255 513.281 163.255C513.281 163.255 508.268 143.158 509.081 128.504C509.433 122.172 514.371 119.585 518.154 120.239C523.132 121.1 525.475 127.553 524.201 132.911Z" fill="#9DDBF9"/>
<path d="M575.69 154.538C554.667 165.273 518.415 176.104 518.415 176.104C518.415 176.104 541.145 144.196 563.266 127.361C572.824 120.086 582.684 124.016 586.439 130.265C591.38 138.487 584.992 149.788 575.69 154.538Z" fill="#C5E9FB"/>
<path d="M398.874 27.4966C381.108 43.0412 357.608 72.6926 357.608 72.6926C357.608 72.6926 395.669 63.4145 419.507 49.1122C429.807 42.9323 429.813 32.3184 425.402 26.5141C419.598 18.877 406.734 20.6189 398.874 27.4966Z" fill="#C5E9FB"/>
<path d="M350.1 20.2224C346.671 40.0752 347.019 72.3636 347.019 72.3636C347.019 72.3636 367.273 45.7618 375.396 23.4705C378.905 13.8387 373.207 6.79696 367.163 5.31812C359.211 3.37228 351.617 11.4387 350.1 20.2224Z" fill="#9DDBF9"/>
<path d="M236.436 27.4966C254.201 43.0412 277.702 72.6926 277.702 72.6926C277.702 72.6926 239.64 63.4145 215.803 49.1122C205.503 42.9323 205.497 32.3184 209.908 26.5141C215.712 18.877 228.576 20.6189 236.436 27.4966Z" fill="#C5E9FB"/>
<path d="M285.216 20.2224C288.645 40.0752 288.297 72.3636 288.297 72.3636C288.297 72.3636 268.043 45.7618 259.92 23.4705C256.411 13.8387 262.109 6.79696 268.152 5.31812C276.105 3.37228 283.699 11.4387 285.216 20.2224Z" fill="#9DDBF9"/>
<path d="M327.938 55.4225C326.08 72.1068 318.318 97.8688 318.318 97.8688C318.318 97.8688 308.273 71.8828 306.939 52.1588C306.363 43.6362 312.556 39.3211 317.736 39.5384C324.551 39.8243 328.76 48.0407 327.938 55.4225Z" fill="#C5E9FB"/>
</g>
</svg>
