<svg width="16" height="16" viewBox="0 0 16 16" fill="none" xmlns="http://www.w3.org/2000/svg">
<path d="M15.4768 2.99313C15.4697 2.8708 15.4179 2.75536 15.3312 2.66872C15.2446 2.58208 15.1291 2.53027 15.0068 2.52313C11.7718 2.33563 9.17431 3.31937 8.05806 5.16187C7.32056 6.38 7.32181 7.85938 8.04806 9.27063C7.63462 9.76268 7.3325 10.3383 7.16244 10.9581L6.14556 9.9375C6.63431 8.91688 6.61556 7.85313 6.08306 6.96938C5.25806 5.6075 3.35369 4.8775 0.989312 5.01625C0.866991 5.02339 0.75155 5.0752 0.664908 5.16185C0.578267 5.24849 0.526456 5.36393 0.519312 5.48625C0.379937 7.85063 1.11056 9.755 2.47244 10.58C2.92183 10.8546 3.43827 11 3.96494 11C4.47612 10.9937 4.97934 10.8726 5.43744 10.6456L6.99994 12.2081V14C6.99994 14.1326 7.05262 14.2598 7.14638 14.3536C7.24015 14.4473 7.36733 14.5 7.49994 14.5C7.63255 14.5 7.75972 14.4473 7.85349 14.3536C7.94726 14.2598 7.99994 14.1326 7.99994 14V12.1569C7.99766 11.3614 8.26836 10.5893 8.76681 9.96937C9.4099 10.3055 10.1231 10.4853 10.8487 10.4944C11.5502 10.4966 12.2386 10.305 12.8381 9.94063C14.6806 8.82563 15.6668 6.22812 15.4768 2.99313ZM2.98806 9.725C2.02931 9.14438 1.48681 7.77 1.49994 6C3.26994 5.985 4.64431 6.52937 5.22494 7.48812C5.52806 7.98812 5.57744 8.57125 5.37869 9.17188L3.85306 7.64625C3.75853 7.55644 3.63266 7.50711 3.50228 7.50878C3.37189 7.51045 3.24732 7.56298 3.15512 7.65519C3.06292 7.74739 3.01039 7.87196 3.00872 8.00234C3.00705 8.13272 3.05638 8.25859 3.14619 8.35312L4.67181 9.87875C4.07119 10.0775 3.48869 10.0281 2.98806 9.725ZM12.3199 9.08625C11.4824 9.59313 10.4981 9.63188 9.49806 9.21125L12.8537 5.855C12.9435 5.76047 12.9928 5.63459 12.9912 5.50421C12.9895 5.37383 12.937 5.24926 12.8448 5.15706C12.7526 5.06486 12.628 5.01232 12.4976 5.01066C12.3672 5.00899 12.2413 5.05832 12.1468 5.14813L8.79056 8.5C8.36806 7.5 8.40619 6.515 8.91556 5.67812C9.78681 4.24062 11.8531 3.43938 14.4987 3.50125C14.5587 6.14625 13.7587 8.215 12.3199 9.08625Z" fill="#602105"/>
</svg>
